<svg width="1920" height="1080" viewBox="0 0 1920 1080" fill="none" xmlns="http://www.w3.org/2000/svg">
<g clip-path="url(#clip0)">
<rect width="1920" height="1080" fill="white"/>
<rect width="1920" height="1080" fill="#FFF0C8"/>
<g filter="url(#filter0_d)">
<rect x="870" y="431" width="180" height="180" rx="48" fill="#FFF0C8"/>
</g>
<path fill-rule="evenodd" clip-rule="evenodd" d="M922.633 518.653C922.557 518.653 923.615 514.495 923.615 514.495C923.806 513.686 924.049 513.424 924.897 513.399C929.61 513.265 931.8 513.373 931.387 516.006C930.924 518.95 925.984 518.644 922.633 518.653M923.498 507.504C918.956 507.448 918.661 507.739 917.116 513.965L912.576 532.773C912.113 534.64 911.736 535.252 913.216 535.252H917.442C918.923 535.252 918.733 534.864 919.3 532.773L921.295 524.326H924.016L926.485 533.577C926.883 535.07 926.787 535.252 928.014 535.252H932.48C933.976 535.252 934.215 535.275 934.444 534.819C934.634 534.437 934.093 532.93 933.817 532.103L930.978 523.62C934.862 522.525 937.107 520.1 938.018 516.048C938.733 512.863 938.137 510.754 936.38 509.26C934.188 507.396 927.163 507.55 923.498 507.504" fill="#6000BC"/>
<path fill-rule="evenodd" clip-rule="evenodd" d="M956.224 528.564H944.818C943.454 528.564 943.545 528.163 943.696 527.498L944.535 523.809H954.438C955.943 523.809 956.076 522.885 956.401 521.398L956.623 520.384C956.948 518.896 957.253 517.972 955.755 517.972H945.863L946.653 514.502C946.804 513.837 946.895 513.436 948.243 513.436H958.774C960.267 513.436 960.276 512.512 960.599 511.024L960.84 509.912C961.163 508.424 961.517 507.5 960.031 507.5H948.218C943.56 507.5 941.032 509.439 940.019 513.787L936.659 528.213C935.646 532.561 937.317 534.5 942.075 534.5H954.875C956.393 534.5 956.435 533.576 956.757 532.088L956.998 530.976C957.32 529.488 957.735 528.564 956.224 528.564" fill="#6000BC"/>
<path fill-rule="evenodd" clip-rule="evenodd" d="M974.838 513.21C975.408 513.213 975.775 513.129 975.925 515.115L976.476 522.396H969.633L973.012 515.119C974.182 513.002 974.274 513.207 974.838 513.21V513.21ZM982.378 514.299C981.651 507.06 977.582 507.505 973.342 507.505C969.188 507.505 967.681 511.237 966.378 514.125L958.102 532.345C957.353 533.968 957.242 534.29 957.405 534.697C957.505 534.947 957.553 535.216 958.704 535.216H962.13C963.856 535.216 963.836 534.797 964.59 533.185L966.837 528.395H976.956L977.352 533.185L977.352 533.189C977.473 534.515 977.515 535.216 978.842 535.216H982.558C983.605 535.216 983.832 535.065 984.149 534.674C984.485 534.259 984.343 533.358 984.23 532.319L982.378 514.299Z" fill="#6000BC"/>
<path fill-rule="evenodd" clip-rule="evenodd" d="M1018.58 531.922L1019.52 513.116C1019.89 507.12 1019.52 507.562 1014.8 507.562C1010.61 507.562 1010.5 506.511 1007.91 513.064L1002.77 526.761C1002.76 526.797 1002.75 526.829 1002.74 526.858C1002.73 526.824 1002.73 526.785 1002.73 526.741L1002.44 513.07C1002.44 506.872 1001.08 507.562 997.648 507.562C994.094 507.562 992.944 506.713 990.818 513.112L985.197 531.908C984.7 534.003 984.632 533.931 984.921 534.229C985.252 534.57 985.981 534.492 986.97 534.492H989.947C991.409 534.492 991.286 534.129 991.82 532.246L996.638 515.486L996.935 530.633C996.984 533.266 996.571 534.492 1001.39 534.492C1006.42 534.492 1006.11 533.802 1007.22 530.635L1012.86 515.487L1011.77 532.246C1011.68 533.673 1011.33 534.492 1012.99 534.492H1015.83C1016.82 534.492 1017.89 534.548 1018.24 534.227C1018.58 533.907 1018.53 532.885 1018.58 531.922" fill="#6000BC"/>
<path fill-rule="evenodd" clip-rule="evenodd" d="M899.134 520.386C895.726 533.075 908.008 528.403 908.008 528.403C908.265 528.353 908.512 528.53 908.561 528.799L909.465 533.834C909.513 534.103 909.341 534.348 909.087 534.413C906.339 535.116 887.469 540.506 892.104 521.06C897.002 500.512 914.631 507.532 914.631 507.532C914.883 507.6 915.111 507.873 914.941 508.313L913.594 513.687C913.528 513.951 913.271 514.11 913.019 514.042C913.019 514.042 902.222 508.889 899.134 520.386" fill="#6000BC"/>
<path fill-rule="evenodd" clip-rule="evenodd" d="M1029.75 502.305C1029.77 500.224 1028.02 498.52 1025.85 498.5C1023.67 498.48 1021.9 500.151 1021.88 502.233C1021.86 504.15 1023.12 505.373 1025.05 505.629C1024.54 506.452 1024.42 507.963 1025.21 507.362L1027.71 505.622C1028.87 504.856 1029.74 503.715 1029.75 502.305" fill="#FA5F82"/>
<rect width="1920" height="1080" fill="#500096"/>
<g filter="url(#filter1_d)">
<rect x="870" y="431" width="180" height="180" rx="48" fill="#FFF0C8"/>
</g>
<path fill-rule="evenodd" clip-rule="evenodd" d="M922.633 518.653C922.557 518.653 923.615 514.495 923.615 514.495C923.806 513.686 924.049 513.424 924.897 513.399C929.61 513.265 931.8 513.373 931.387 516.006C930.924 518.95 925.984 518.644 922.633 518.653M923.498 507.504C918.956 507.448 918.661 507.739 917.116 513.965L912.576 532.773C912.113 534.64 911.736 535.252 913.216 535.252H917.442C918.923 535.252 918.733 534.864 919.3 532.773L921.295 524.326H924.016L926.485 533.577C926.883 535.07 926.787 535.252 928.014 535.252H932.48C933.976 535.252 934.215 535.275 934.444 534.819C934.634 534.437 934.093 532.93 933.817 532.103L930.978 523.62C934.862 522.525 937.107 520.1 938.018 516.048C938.733 512.863 938.137 510.754 936.38 509.26C934.188 507.396 927.163 507.55 923.498 507.504" fill="#500096"/>
<path fill-rule="evenodd" clip-rule="evenodd" d="M956.224 528.564H944.818C943.454 528.564 943.545 528.163 943.696 527.498L944.535 523.809H954.438C955.943 523.809 956.076 522.885 956.401 521.398L956.623 520.384C956.948 518.896 957.253 517.972 955.755 517.972H945.863L946.653 514.502C946.804 513.837 946.895 513.436 948.243 513.436H958.774C960.267 513.436 960.276 512.512 960.599 511.024L960.84 509.912C961.163 508.424 961.517 507.5 960.031 507.5H948.218C943.56 507.5 941.032 509.439 940.019 513.787L936.659 528.213C935.646 532.561 937.317 534.5 942.075 534.5H954.875C956.393 534.5 956.435 533.576 956.757 532.088L956.998 530.976C957.32 529.488 957.735 528.564 956.224 528.564" fill="#500096"/>
<path fill-rule="evenodd" clip-rule="evenodd" d="M974.838 513.21C975.408 513.213 975.775 513.129 975.925 515.115L976.476 522.396H969.633L973.012 515.119C974.182 513.002 974.274 513.207 974.838 513.21V513.21ZM982.378 514.299C981.651 507.06 977.582 507.505 973.342 507.505C969.188 507.505 967.681 511.237 966.378 514.125L958.102 532.345C957.353 533.968 957.242 534.29 957.405 534.697C957.505 534.947 957.553 535.216 958.704 535.216H962.13C963.856 535.216 963.836 534.797 964.59 533.185L966.837 528.395H976.956L977.352 533.185L977.352 533.189C977.473 534.515 977.515 535.216 978.842 535.216H982.558C983.605 535.216 983.832 535.065 984.149 534.674C984.485 534.259 984.343 533.358 984.23 532.319L982.378 514.299Z" fill="#500096"/>
<path fill-rule="evenodd" clip-rule="evenodd" d="M1018.58 531.922L1019.52 513.116C1019.89 507.12 1019.52 507.562 1014.8 507.562C1010.61 507.562 1010.5 506.511 1007.91 513.064L1002.77 526.761C1002.76 526.797 1002.75 526.829 1002.74 526.858C1002.73 526.824 1002.73 526.785 1002.73 526.741L1002.44 513.07C1002.44 506.872 1001.08 507.562 997.648 507.562C994.094 507.562 992.944 506.713 990.818 513.112L985.197 531.908C984.7 534.003 984.632 533.931 984.921 534.229C985.252 534.57 985.981 534.492 986.97 534.492H989.947C991.409 534.492 991.286 534.129 991.82 532.246L996.638 515.486L996.935 530.633C996.984 533.266 996.571 534.492 1001.39 534.492C1006.42 534.492 1006.11 533.802 1007.22 530.635L1012.86 515.487L1011.77 532.246C1011.68 533.673 1011.33 534.492 1012.99 534.492H1015.83C1016.82 534.492 1017.89 534.548 1018.24 534.227C1018.58 533.907 1018.53 532.885 1018.58 531.922" fill="#500096"/>
<path fill-rule="evenodd" clip-rule="evenodd" d="M899.134 520.386C895.726 533.075 908.008 528.403 908.008 528.403C908.265 528.353 908.512 528.53 908.561 528.799L909.465 533.834C909.513 534.103 909.341 534.348 909.087 534.413C906.339 535.116 887.469 540.506 892.104 521.06C897.002 500.512 914.631 507.532 914.631 507.532C914.883 507.6 915.111 507.873 914.941 508.313L913.594 513.687C913.528 513.951 913.271 514.11 913.019 514.042C913.019 514.042 902.222 508.889 899.134 520.386" fill="#500096"/>
<path fill-rule="evenodd" clip-rule="evenodd" d="M1029.75 502.305C1029.77 500.224 1028.02 498.52 1025.85 498.5C1023.67 498.48 1021.9 500.151 1021.88 502.233C1021.86 504.15 1023.12 505.373 1025.05 505.629C1024.54 506.452 1024.42 507.963 1025.21 507.362L1027.71 505.622C1028.87 504.856 1029.74 503.715 1029.75 502.305" fill="#FA5F82"/>
</g>
<defs>
<filter id="filter0_d" x="842" y="403" width="260" height="260" filterUnits="userSpaceOnUse" color-interpolation-filters="sRGB">
<feFlood flood-opacity="0" result="BackgroundImageFix"/>
<feColorMatrix in="SourceAlpha" type="matrix" values="0 0 0 0 0 0 0 0 0 0 0 0 0 0 0 0 0 0 127 0"/>
<feOffset dx="12" dy="12"/>
<feGaussianBlur stdDeviation="20"/>
<feColorMatrix type="matrix" values="0 0 0 0 0.941667 0 0 0 0 0.853536 0 0 0 0 0.655243 0 0 0 1 0"/>
<feBlend mode="normal" in2="BackgroundImageFix" result="effect1_dropShadow"/>
<feBlend mode="normal" in="SourceGraphic" in2="effect1_dropShadow" result="shape"/>
</filter>
<filter id="filter1_d" x="842" y="403" width="260" height="260" filterUnits="userSpaceOnUse" color-interpolation-filters="sRGB">
<feFlood flood-opacity="0" result="BackgroundImageFix"/>
<feColorMatrix in="SourceAlpha" type="matrix" values="0 0 0 0 0 0 0 0 0 0 0 0 0 0 0 0 0 0 127 0"/>
<feOffset dx="12" dy="12"/>
<feGaussianBlur stdDeviation="20"/>
<feColorMatrix type="matrix" values="0 0 0 0 0 0 0 0 0 0 0 0 0 0 0 0 0 0 0.6 0"/>
<feBlend mode="normal" in2="BackgroundImageFix" result="effect1_dropShadow"/>
<feBlend mode="normal" in="SourceGraphic" in2="effect1_dropShadow" result="shape"/>
</filter>
<clipPath id="clip0">
<rect width="1920" height="1080" fill="white"/>
</clipPath>
</defs>
</svg>
