<svg width="456" height="876" viewBox="0 0 456 876" fill="none" xmlns="http://www.w3.org/2000/svg">
<g filter="url(#filter0_d)">
<rect x="4" y="4" width="368" height="788" rx="44" fill="#FFF0C8"/>
<rect x="4" y="4" width="368" height="788" rx="44" stroke="#F5E6BE" stroke-width="8"/>
<g clip-path="url(#clip0)">
<rect x="8" y="8" width="360" height="640" rx="40" fill="white"/>
<rect x="8" y="8" width="360" height="640" fill="#FFF0C8"/>
<path d="M37.536 102.296L34.152 102.296C34.344 101.24 34.44 100.136 34.44 99.032L26.232 99.032L26.232 100.496L32.712 100.496C32.4 105.032 30.024 109.016 25.344 111.824L26.376 113.096C30.408 110.648 32.784 107.384 33.816 103.736L37.536 103.736L37.536 107.672L33.48 107.672L33.48 109.136L37.536 109.136L37.536 116.648L39.192 116.648L39.192 96.872L37.536 96.872L37.536 102.296ZM41.808 96.296L41.808 117.752L43.488 117.752L43.488 96.296L41.808 96.296ZM58.8221 101.912L58.8221 103.376L63.2381 103.376L63.2381 109.064L64.9901 109.064L64.9901 96.296L63.2381 96.296L63.2381 101.912L58.8221 101.912ZM59.9741 106.832C56.9261 105.752 54.6941 103.064 54.6941 100.256L54.6941 99.368L59.5181 99.368L59.5181 97.904L48.0461 97.904L48.0461 99.368L52.9421 99.368L52.9421 100.256C52.9421 103.4 50.6141 106.28 47.4941 107.432L48.4061 108.848C50.9261 107.864 52.9661 105.848 53.8541 103.28C54.7901 105.512 56.6861 107.336 59.0861 108.224L59.9741 106.832ZM57.9341 116.336C54.6461 116.336 52.5821 115.376 52.5821 113.744C52.5821 112.112 54.6461 111.152 57.9341 111.152C61.2701 111.152 63.3341 112.112 63.3341 113.744C63.3341 115.376 61.2701 116.336 57.9341 116.336ZM57.9341 109.76C53.5421 109.76 50.8541 111.224 50.8541 113.744C50.8541 116.264 53.5421 117.728 57.9341 117.728C62.3741 117.728 65.0621 116.264 65.0621 113.744C65.0621 111.224 62.3741 109.76 57.9341 109.76ZM79.1483 98C82.7243 98 84.8603 98.888 84.8603 100.4C84.8603 101.912 82.7243 102.776 79.1483 102.776C75.5483 102.776 73.4363 101.912 73.4363 100.4C73.4363 98.888 75.5483 98 79.1483 98ZM79.1483 104.12C83.8523 104.12 86.6363 102.776 86.6363 100.4C86.6363 98 83.8523 96.656 79.1483 96.656C74.4443 96.656 71.6363 98 71.6363 100.4C71.6363 102.776 74.4443 104.12 79.1483 104.12ZM73.6043 113.744L86.3483 113.744L86.3483 109.04L71.8283 109.04L71.8283 110.384L84.6203 110.384L84.6203 112.448L71.9002 112.448L71.9002 117.488L86.9963 117.488L86.9963 116.072L73.6043 116.072L73.6043 113.744ZM69.4762 105.632L69.4762 107.072L88.8683 107.072L88.8683 105.632L69.4762 105.632ZM34.32 138.688L27.936 138.688L27.936 131.656L34.32 131.656L34.32 138.688ZM36.024 130.24L26.232 130.24L26.232 140.104L36.024 140.104L36.024 130.24ZM30.384 142.552L28.632 142.552L28.632 149.272L42.888 149.272L42.888 147.808L30.384 147.808L30.384 142.552ZM41.904 134.896L41.904 128.248L40.152 128.248L40.152 144.016L41.904 144.016L41.904 136.36L45.12 136.36L45.12 134.896L41.904 134.896ZM64.4861 134.08L51.7421 134.08L51.7421 130.48L64.2461 130.48L64.2461 129.04L49.9901 129.04L49.9901 135.52L64.4861 135.52L64.4861 134.08ZM51.5261 145.72L64.2701 145.72L64.2701 140.8L49.7501 140.8L49.7501 142.192L62.5421 142.192L62.5421 144.4L49.8221 144.4L49.8221 149.464L64.9181 149.464L64.9181 148.048L51.5261 148.048L51.5261 145.72ZM47.3981 137.368L47.3981 138.808L66.7901 138.808L66.7901 137.368L47.3981 137.368ZM75.1643 143.32C73.0042 143.32 71.5162 140.968 71.5162 137.416C71.5162 133.888 73.0042 131.536 75.1643 131.536C77.3003 131.536 78.8123 133.888 78.8123 137.416C78.8123 140.968 77.3002 143.32 75.1643 143.32ZM85.3163 128.272L85.3163 136.528L80.4443 136.528C80.1803 132.496 78.0683 129.976 75.1643 129.976C72.0442 129.976 69.8602 132.88 69.8602 137.416C69.8602 141.952 72.0442 144.88 75.1643 144.88C78.1402 144.88 80.2762 142.216 80.4443 137.992L85.3163 137.992L85.3163 149.776L87.0683 149.776L87.0683 128.272L85.3163 128.272ZM95.6824 145.864L108.426 145.864L108.426 141.184L93.9064 141.184L93.9064 142.552L106.698 142.552L106.698 144.568L93.9784 144.568L93.9784 149.488L109.074 149.488L109.074 148.096L95.6824 148.096L95.6824 145.864ZM95.8504 132.088L106.65 132.088L106.65 134.296L95.8504 134.296L95.8504 132.088ZM102.09 137.872L102.09 135.688L108.378 135.688L108.378 128.608L106.65 128.608L106.65 130.72L95.8504 130.72L95.8504 128.608L94.1224 128.608L94.1224 135.688L100.338 135.688L100.338 137.872L91.5304 137.872L91.5304 139.312L110.946 139.312L110.946 137.872L102.09 137.872ZM114.232 130.624L114.232 132.088L118.433 132.088C118.192 136.384 116.848 140.512 113.584 143.848L115 144.856C118.889 140.728 120.088 135.64 120.088 130.624L114.232 130.624ZM120.761 130.624L120.761 132.088L124.289 132.088C124.121 136.552 123.089 141.496 119.728 145.336L121.145 146.296C125.153 141.616 125.921 135.616 125.921 130.624L120.761 130.624ZM133.721 137.224L130.433 137.224L130.433 128.296L128.681 128.296L128.681 149.752L130.433 149.752L130.433 138.688L133.721 138.688L133.721 137.224ZM142.287 140.296C143.223 140.512 144.279 140.656 145.383 140.656C146.511 140.656 147.591 140.512 148.527 140.272L148.527 145.48L142.287 145.48L142.287 140.296ZM139.287 135.184C139.287 132.736 141.855 131.104 145.383 131.104C148.911 131.104 151.479 132.736 151.479 135.184C151.479 137.608 148.911 139.24 145.383 139.24C141.855 139.24 139.287 137.608 139.287 135.184ZM150.255 145.48L150.255 139.6C152.055 138.64 153.135 137.128 153.135 135.184C153.135 131.848 149.919 129.688 145.383 129.688C140.847 129.688 137.607 131.848 137.607 135.184C137.607 137.128 138.711 138.664 140.535 139.6L140.535 145.48L135.663 145.48L135.663 146.944L155.175 146.944L155.175 145.48L150.255 145.48ZM160.765 142.816L162.493 142.816C162.037 139 166.381 137.536 166.381 133.984C166.381 131.44 164.677 129.76 161.989 129.76C160.069 129.76 158.581 130.696 157.477 131.92L158.605 132.952C159.445 131.992 160.573 131.392 161.773 131.392C163.573 131.392 164.461 132.64 164.461 134.104C164.461 137.056 160.189 138.592 160.765 142.816ZM161.701 148.312C162.493 148.312 163.165 147.688 163.165 146.776C163.165 145.816 162.493 145.192 161.701 145.192C160.885 145.192 160.213 145.816 160.213 146.776C160.213 147.688 160.885 148.312 161.701 148.312Z" fill="black"/>
<rect width="328" height="1" transform="matrix(1 6.79865e-09 6.79865e-09 -1 24 238)" fill="black"/>
<path d="M35.376 210.832L35.376 225.184L36.544 225.184L36.544 210.832L35.376 210.832ZM25.712 212.064L25.712 221.712L32.384 221.712L32.384 212.064L31.232 212.064L31.232 215.904L26.864 215.904L26.864 212.064L25.712 212.064ZM26.864 216.848L31.232 216.848L31.232 220.736L26.864 220.736L26.864 216.848ZM51.2788 210.848L50.1108 210.848L50.1108 218.224L51.2788 218.224L51.2788 210.848ZM45.8228 216.528L41.4868 216.528L41.4868 212.592L45.8228 212.592L45.8228 216.528ZM46.9588 211.648L40.3348 211.648L40.3347 217.472L46.9588 217.472L46.9588 211.648ZM43.2468 224.032L43.2468 222.352L51.2788 222.352L51.2788 218.976L42.0628 218.976L42.0627 219.92L50.1268 219.92L50.1268 221.472L42.1108 221.472L42.1108 224.992L51.7908 224.992L51.7908 224.032L43.2468 224.032ZM60.2855 218.032L56.1895 218.032L56.1895 215.328L60.2855 215.328L60.2855 218.032ZM61.4215 215.904L64.8775 215.904L64.8775 221.456L66.0455 221.456L66.0455 210.864L64.8775 210.864L64.8775 214.928L61.4215 214.928L61.4215 211.808L60.2855 211.808L60.2855 214.384L56.1895 214.384L56.1895 211.808L55.0375 211.808L55.0375 218.992L61.4215 218.992L61.4215 215.904ZM58.0615 223.872L58.0615 220.432L56.8935 220.432L56.8935 224.848L66.3975 224.848L66.3975 223.872L58.0615 223.872ZM81.2603 213.008L76.0763 213.008L76.0763 211.088L74.9083 211.088L74.9083 213.008L69.6763 213.008L69.6763 213.984L81.2603 213.984L81.2603 213.008ZM72.0123 217.696C72.0123 216.608 73.3563 215.936 75.4843 215.936C77.6283 215.936 78.9563 216.608 78.9563 217.696C78.9563 218.816 77.6283 219.472 75.4843 219.472C73.3563 219.472 72.0123 218.816 72.0123 217.696ZM76.0763 222.48L76.0763 220.4C78.5883 220.272 80.1243 219.296 80.1243 217.696C80.1243 216.016 78.3483 214.992 75.4843 214.992C72.6203 214.992 70.8283 216.016 70.8283 217.696C70.8283 219.296 72.3643 220.272 74.9083 220.4L74.9083 222.48L69.0202 222.48L69.0202 223.456L81.9963 223.456L81.9963 222.48L76.0763 222.48ZM93.883 213.392L85.419 213.392L85.419 216.384L95.291 216.384L95.291 215.52L86.571 215.52L86.571 214.208L95.035 214.208L95.035 211.296L85.387 211.296L85.387 212.144L93.883 212.144L93.883 213.392ZM86.491 222.672L95.083 222.672L95.083 219.696L85.307 219.696L85.307 220.544L93.931 220.544L93.931 221.84L85.339 221.84L85.339 224.96L95.547 224.96L95.547 224.096L86.491 224.096L86.491 222.672ZM83.739 217.536L83.739 218.448L96.715 218.448L96.715 217.536L83.739 217.536ZM112.564 210.864L112.564 218.528L113.732 218.528L113.732 210.864L112.564 210.864ZM104.564 219.264L104.564 224.96L113.732 224.96L113.732 219.264L112.58 219.264L112.58 221.072L105.716 221.072L105.716 219.264L104.564 219.264ZM105.716 222.016L112.58 222.016L112.58 224L105.716 224L105.716 222.016ZM106.068 211.552C103.924 211.552 102.372 212.88 102.372 214.832C102.372 216.784 103.924 218.112 106.068 218.112C108.228 218.112 109.78 216.784 109.78 214.832C109.78 212.88 108.228 211.552 106.068 211.552ZM106.068 212.528C107.572 212.528 108.644 213.488 108.644 214.832C108.644 216.176 107.572 217.136 106.068 217.136C104.58 217.136 103.508 216.176 103.508 214.832C103.508 213.488 104.58 212.528 106.068 212.528ZM124.323 217.648C122.643 217.952 121.251 218 118.499 218L118.499 215.68L123.443 215.68L123.443 211.712L117.315 211.712L117.315 212.688L122.307 212.688L122.307 214.768L117.347 214.768L117.347 218.976L118.355 218.976C121.251 218.976 122.675 218.928 124.451 218.608L124.323 217.648ZM118.947 221.408L127.315 221.408L127.315 225.2L128.483 225.2L128.483 220.448L118.947 220.448L118.947 221.408ZM127.315 210.864L127.315 213.008L124.435 213.008L124.435 213.984L127.315 213.984L127.315 215.952L124.435 215.952L124.435 216.928L127.315 216.928L127.315 219.664L128.483 219.664L128.483 210.864L127.315 210.864ZM135.01 220.816C133.858 220.816 133.01 219.888 133.01 218.576C133.01 217.28 133.858 216.32 135.01 216.32C136.194 216.32 137.042 217.28 137.042 218.576C137.042 219.888 136.194 220.816 135.01 220.816ZM135.01 215.328C133.234 215.328 131.97 216.656 131.97 218.576C131.97 220.496 133.234 221.808 135.01 221.808C136.802 221.808 138.082 220.496 138.082 218.576C138.082 216.656 136.802 215.328 135.01 215.328ZM135.586 211.264L134.434 211.264L134.434 213.36L131.442 213.36L131.442 214.336L138.594 214.336L138.594 213.36L135.586 213.36L135.586 211.264ZM142.418 210.848L142.418 216.928L140.45 216.928L140.45 211.2L139.346 211.2L139.346 224.448L140.45 224.448L140.45 217.904L142.418 217.904L142.418 225.152L143.538 225.152L143.538 210.848L142.418 210.848ZM147.424 217.76C149.568 217.376 151.793 216.176 152.641 214.416C153.505 216.176 155.729 217.376 157.873 217.76L158.321 216.832C155.937 216.48 153.312 214.832 153.312 212.88L153.312 212.736L157.857 212.736L157.857 211.76L147.424 211.76L147.424 212.736L152.001 212.736L152.001 212.88C152.001 214.832 149.377 216.48 146.976 216.832L147.424 217.76ZM159.121 219.04L146.192 219.04L146.192 220.016L152.049 220.016L152.049 225.152L153.217 225.152L153.217 220.016L159.121 220.016L159.121 219.04ZM165.071 212.208L163.951 212.208L163.951 215.008C163.951 217.456 162.687 220.016 160.751 221.152L161.487 222.032C162.943 221.152 164.015 219.504 164.527 217.568C165.039 219.328 166.047 220.88 167.423 221.712L168.095 220.816C166.239 219.696 165.071 217.232 165.071 214.976L165.071 212.208ZM169.007 216.032L166.543 216.032L166.543 217.008L169.007 217.008L169.007 224.432L170.111 224.432L170.111 211.184L169.007 211.184L169.007 216.032ZM171.903 210.848L171.903 225.152L173.023 225.152L173.023 210.848L171.903 210.848ZM180.014 218.864C180.638 219.008 181.342 219.104 182.078 219.104C182.83 219.104 183.55 219.008 184.174 218.848L184.174 222.32L180.014 222.32L180.014 218.864ZM178.014 215.456C178.014 213.824 179.726 212.736 182.078 212.736C184.43 212.736 186.142 213.824 186.142 215.456C186.142 217.072 184.43 218.16 182.078 218.16C179.726 218.16 178.014 217.072 178.014 215.456ZM185.326 222.32L185.326 218.4C186.526 217.76 187.246 216.752 187.246 215.456C187.246 213.232 185.102 211.792 182.078 211.792C179.054 211.792 176.894 213.232 176.894 215.456C176.894 216.752 177.63 217.776 178.846 218.4L178.846 222.32L175.598 222.32L175.598 223.296L188.606 223.296L188.606 222.32L185.326 222.32ZM191.613 224.208C192.157 224.208 192.605 223.792 192.605 223.184C192.605 222.544 192.157 222.128 191.613 222.128C191.085 222.128 190.637 222.544 190.637 223.184C190.637 223.792 191.085 224.208 191.613 224.208Z" fill="black"/>
<path d="M330 50L349.799 69.799" stroke="black" stroke-linecap="round" stroke-linejoin="bevel"/>
<path d="M349.965 50L330.166 69.799" stroke="black" stroke-linecap="round" stroke-linejoin="bevel"/>
</g>
</g>
<defs>
<filter id="filter0_d" x="0" y="0" width="456" height="876" filterUnits="userSpaceOnUse" color-interpolation-filters="sRGB">
<feFlood flood-opacity="0" result="BackgroundImageFix"/>
<feColorMatrix in="SourceAlpha" type="matrix" values="0 0 0 0 0 0 0 0 0 0 0 0 0 0 0 0 0 0 127 0"/>
<feOffset dx="40" dy="40"/>
<feGaussianBlur stdDeviation="20"/>
<feColorMatrix type="matrix" values="0 0 0 0 0 0 0 0 0 0 0 0 0 0 0 0 0 0 0.08 0"/>
<feBlend mode="normal" in2="BackgroundImageFix" result="effect1_dropShadow"/>
<feBlend mode="normal" in="SourceGraphic" in2="effect1_dropShadow" result="shape"/>
</filter>
<clipPath id="clip0">
<rect x="8" y="8" width="360" height="640" rx="40" fill="white"/>
</clipPath>
</defs>
</svg>
