<svg width="456" height="876" viewBox="0 0 456 876" fill="none" xmlns="http://www.w3.org/2000/svg">
<g filter="url(#filter0_d)">
<g clip-path="url(#clip0)">
<rect x="4" y="4" width="368" height="788" rx="44" fill="#FFF0C8"/>
<g clip-path="url(#clip1)">
<rect x="8.11523" y="8.4834" width="360" height="780" fill="white"/>
<rect x="8.11523" y="8.4834" width="360" height="780" fill="#FFF0C8"/>
<path d="M103.913 622.885C105.411 622.885 105.985 621.905 105.985 620.351L105.985 611.881L104.711 611.881L104.711 620.351C104.711 621.275 104.529 621.849 103.759 621.849C103.493 621.849 103.241 621.779 103.045 621.709L102.793 622.689C103.059 622.787 103.451 622.885 103.913 622.885ZM105.355 610.313C105.845 610.313 106.237 609.963 106.237 609.487C106.237 608.969 105.845 608.661 105.355 608.661C104.851 608.661 104.473 608.969 104.473 609.487C104.473 609.963 104.851 610.313 105.355 610.313ZM108.553 619.483L109.827 619.483L109.827 611.881L108.553 611.881L108.553 619.483ZM109.197 610.313C109.701 610.313 110.079 609.963 110.079 609.487C110.079 608.969 109.701 608.661 109.197 608.661C108.693 608.661 108.315 608.969 108.315 609.487C108.315 609.963 108.693 610.313 109.197 610.313ZM112.408 619.483L113.682 619.483L113.682 613.967C114.452 613.197 114.984 612.805 115.768 612.805C116.776 612.805 117.21 613.407 117.21 614.835L117.21 619.483L118.484 619.483L118.484 614.667C118.484 612.721 117.756 611.685 116.16 611.685C115.124 611.685 114.34 612.259 113.64 612.959L113.682 611.391L113.682 608.339L112.408 608.339L112.408 619.483ZM121.038 622.759C122.55 622.759 123.334 621.611 123.866 620.113L126.736 611.881L125.49 611.881L124.132 616.109C123.922 616.781 123.698 617.551 123.488 618.237L123.418 618.237C123.18 617.551 122.914 616.767 122.69 616.109L121.136 611.881L119.806 611.881L122.858 619.497L122.69 620.071C122.382 621.009 121.836 621.709 120.968 621.709C120.772 621.709 120.548 621.639 120.394 621.583L120.142 622.605C120.38 622.703 120.674 622.759 121.038 622.759ZM131.224 619.665C132.26 619.665 133.072 619.315 133.744 618.881L133.282 618.041C132.722 618.419 132.12 618.643 131.378 618.643C129.936 618.643 128.942 617.607 128.858 615.983L133.982 615.983C134.01 615.801 134.038 615.535 134.038 615.255C134.038 613.085 132.946 611.685 131.014 611.685C129.25 611.685 127.584 613.225 127.584 615.689C127.584 618.195 129.208 619.665 131.224 619.665ZM128.844 615.073C128.998 613.575 129.95 612.707 131.028 612.707C132.218 612.707 132.918 613.533 132.918 615.073L128.844 615.073ZM140.922 621.905C142 621.905 142.98 621.653 143.89 621.107L143.554 620.351C142.854 620.757 141.958 621.051 141.006 621.051C138.346 621.051 136.358 619.315 136.358 616.263C136.358 612.609 139.046 610.229 141.832 610.229C144.674 610.229 146.172 612.077 146.172 614.611C146.172 616.641 145.052 617.831 144.058 617.831C143.204 617.831 142.91 617.257 143.204 615.997L143.82 612.875L142.98 612.875L142.798 613.519L142.77 613.519C142.49 613.001 142.056 612.749 141.524 612.749C139.69 612.749 138.514 614.723 138.514 616.375C138.514 617.803 139.326 618.601 140.39 618.601C141.076 618.601 141.79 618.125 142.294 617.523L142.336 617.523C142.434 618.321 143.092 618.713 143.946 618.713C145.36 618.713 147.068 617.285 147.068 614.555C147.068 611.475 145.08 609.375 141.93 609.375C138.444 609.375 135.406 612.119 135.406 616.305C135.406 619.945 137.856 621.905 140.922 621.905ZM140.642 617.719C140.012 617.719 139.536 617.313 139.536 616.305C139.536 615.129 140.292 613.645 141.524 613.645C141.944 613.645 142.238 613.827 142.532 614.303L142.084 616.795C141.552 617.439 141.076 617.719 140.642 617.719ZM149.158 619.483L150.432 619.483L150.432 613.967C151.132 613.183 151.776 612.805 152.35 612.805C153.316 612.805 153.764 613.407 153.764 614.835L153.764 619.483L155.038 619.483L155.038 613.967C155.752 613.183 156.368 612.805 156.956 612.805C157.922 612.805 158.37 613.407 158.37 614.835L158.37 619.483L159.644 619.483L159.644 614.667C159.644 612.721 158.902 611.685 157.334 611.685C156.41 611.685 155.612 612.287 154.828 613.141C154.52 612.245 153.89 611.685 152.728 611.685C151.818 611.685 151.02 612.259 150.362 612.987L150.32 612.987L150.208 611.881L149.158 611.881L149.158 619.483ZM162.245 622.759C163.757 622.759 164.541 621.611 165.073 620.113L167.943 611.881L166.697 611.881L165.339 616.109C165.129 616.781 164.905 617.551 164.695 618.237L164.625 618.237C164.387 617.551 164.121 616.767 163.897 616.109L162.343 611.881L161.013 611.881L164.065 619.497L163.897 620.071C163.589 621.009 163.043 621.709 162.175 621.709C161.979 621.709 161.755 621.639 161.601 621.583L161.349 622.605C161.587 622.703 161.881 622.759 162.245 622.759ZM169.42 619.483L170.694 619.483L170.694 613.967C171.394 613.183 172.038 612.805 172.612 612.805C173.578 612.805 174.026 613.407 174.026 614.835L174.026 619.483L175.3 619.483L175.3 613.967C176.014 613.183 176.63 612.805 177.218 612.805C178.184 612.805 178.632 613.407 178.632 614.835L178.632 619.483L179.906 619.483L179.906 614.667C179.906 612.721 179.164 611.685 177.596 611.685C176.672 611.685 175.874 612.287 175.09 613.141C174.782 612.245 174.152 611.685 172.99 611.685C172.08 611.685 171.282 612.259 170.624 612.987L170.582 612.987L170.47 611.881L169.42 611.881L169.42 619.483ZM184.593 619.665C185.643 619.665 186.399 619.119 187.113 618.293L187.155 618.293L187.253 619.483L188.317 619.483L188.317 611.881L187.043 611.881L187.043 617.271C186.315 618.181 185.769 618.559 184.985 618.559C183.977 618.559 183.557 617.957 183.557 616.543L183.557 611.881L182.283 611.881L182.283 616.697C182.283 618.629 182.997 619.665 184.593 619.665ZM192.873 619.665C194.665 619.665 195.645 618.643 195.645 617.411C195.645 615.969 194.427 615.521 193.321 615.101C192.467 614.779 191.641 614.513 191.641 613.785C191.641 613.197 192.075 612.693 193.027 612.693C193.713 612.693 194.245 612.973 194.777 613.365L195.393 612.539C194.791 612.077 193.965 611.685 193.027 611.685C191.375 611.685 190.409 612.637 190.409 613.841C190.409 615.129 191.613 615.647 192.677 616.039C193.517 616.361 194.413 616.711 194.413 617.481C194.413 618.139 193.923 618.671 192.915 618.671C192.005 618.671 191.319 618.307 190.661 617.775L190.031 618.615C190.759 619.217 191.795 619.665 192.873 619.665ZM197.434 619.483L198.708 619.483L198.708 611.881L197.434 611.881L197.434 619.483ZM198.078 610.313C198.582 610.313 198.96 609.963 198.96 609.487C198.96 608.969 198.582 608.661 198.078 608.661C197.574 608.661 197.196 608.969 197.196 609.487C197.196 609.963 197.574 610.313 198.078 610.313ZM204.285 619.665C205.195 619.665 206.063 619.315 206.735 618.699L206.189 617.845C205.713 618.279 205.097 618.601 204.397 618.601C202.997 618.601 202.045 617.439 202.045 615.689C202.045 613.939 203.053 612.749 204.425 612.749C205.041 612.749 205.503 613.029 205.951 613.435L206.609 612.581C206.063 612.105 205.377 611.685 204.383 611.685C202.437 611.685 200.715 613.155 200.715 615.689C200.715 618.209 202.269 619.665 204.285 619.665ZM210.656 619.665C211.118 619.665 211.622 619.525 212.056 619.385L211.804 618.433C211.552 618.531 211.202 618.629 210.936 618.629C210.054 618.629 209.76 618.097 209.76 617.159L209.76 612.917L211.818 612.917L211.818 611.881L209.76 611.881L209.76 609.753L208.696 609.753L208.542 611.881L207.352 611.951L207.352 612.917L208.486 612.917L208.486 617.131C208.486 618.657 209.032 619.665 210.656 619.665ZM214.947 619.665C215.885 619.665 216.739 619.175 217.467 618.573L217.509 618.573L217.621 619.483L218.671 619.483L218.671 614.807C218.671 612.931 217.887 611.685 216.039 611.685C214.821 611.685 213.743 612.231 213.043 612.679L213.547 613.561C214.149 613.155 214.947 612.749 215.829 612.749C217.075 612.749 217.397 613.687 217.397 614.667C214.163 615.031 212.721 615.857 212.721 617.509C212.721 618.881 213.673 619.665 214.947 619.665ZM215.311 618.643C214.555 618.643 213.967 618.293 213.967 617.425C213.967 616.445 214.835 615.815 217.397 615.507L217.397 617.635C216.655 618.293 216.053 618.643 215.311 618.643ZM223.088 619.665C224.88 619.665 225.86 618.643 225.86 617.411C225.86 615.969 224.642 615.521 223.536 615.101C222.682 614.779 221.856 614.513 221.856 613.785C221.856 613.197 222.29 612.693 223.242 612.693C223.928 612.693 224.46 612.973 224.992 613.365L225.608 612.539C225.006 612.077 224.18 611.685 223.242 611.685C221.59 611.685 220.624 612.637 220.624 613.841C220.624 615.129 221.828 615.647 222.892 616.039C223.732 616.361 224.628 616.711 224.628 617.481C224.628 618.139 224.138 618.671 223.13 618.671C222.22 618.671 221.534 618.307 220.876 617.775L220.246 618.615C220.974 619.217 222.01 619.665 223.088 619.665ZM229.728 619.665C230.19 619.665 230.694 619.525 231.128 619.385L230.876 618.433C230.624 618.531 230.274 618.629 230.008 618.629C229.126 618.629 228.832 618.097 228.832 617.159L228.832 612.917L230.89 612.917L230.89 611.881L228.832 611.881L228.832 609.753L227.768 609.753L227.614 611.881L226.424 611.951L226.424 612.917L227.558 612.917L227.558 617.131C227.558 618.657 228.104 619.665 229.728 619.665ZM235.472 619.665C236.508 619.665 237.32 619.315 237.992 618.881L237.53 618.041C236.97 618.419 236.368 618.643 235.626 618.643C234.184 618.643 233.19 617.607 233.106 615.983L238.23 615.983C238.258 615.801 238.286 615.535 238.286 615.255C238.286 613.085 237.194 611.685 235.262 611.685C233.498 611.685 231.832 613.225 231.832 615.689C231.832 618.195 233.456 619.665 235.472 619.665ZM233.092 615.073C233.246 613.575 234.198 612.707 235.276 612.707C236.466 612.707 237.166 613.533 237.166 615.073L233.092 615.073ZM240.816 619.665C241.32 619.665 241.74 619.273 241.74 618.699C241.74 618.125 241.32 617.705 240.816 617.705C240.312 617.705 239.892 618.125 239.892 618.699C239.892 619.273 240.312 619.665 240.816 619.665ZM246.873 619.665C247.783 619.665 248.651 619.315 249.323 618.699L248.777 617.845C248.301 618.279 247.685 618.601 246.985 618.601C245.585 618.601 244.633 617.439 244.633 615.689C244.633 613.939 245.641 612.749 247.013 612.749C247.629 612.749 248.091 613.029 248.539 613.435L249.197 612.581C248.651 612.105 247.965 611.685 246.971 611.685C245.025 611.685 243.303 613.155 243.303 615.689C243.303 618.209 244.857 619.665 246.873 619.665ZM253.612 619.665C255.474 619.665 257.14 618.209 257.14 615.689C257.14 613.155 255.474 611.685 253.612 611.685C251.75 611.685 250.084 613.155 250.084 615.689C250.084 618.209 251.75 619.665 253.612 619.665ZM253.612 618.601C252.296 618.601 251.414 617.439 251.414 615.689C251.414 613.939 252.296 612.749 253.612 612.749C254.928 612.749 255.824 613.939 255.824 615.689C255.824 617.439 254.928 618.601 253.612 618.601ZM259.148 619.483L260.422 619.483L260.422 613.967C261.122 613.183 261.766 612.805 262.34 612.805C263.306 612.805 263.754 613.407 263.754 614.835L263.754 619.483L265.028 619.483L265.028 613.967C265.742 613.183 266.358 612.805 266.946 612.805C267.912 612.805 268.36 613.407 268.36 614.835L268.36 619.483L269.634 619.483L269.634 614.667C269.634 612.721 268.892 611.685 267.324 611.685C266.4 611.685 265.602 612.287 264.818 613.141C264.51 612.245 263.88 611.685 262.718 611.685C261.808 611.685 261.01 612.259 260.352 612.987L260.31 612.987L260.198 611.881L259.148 611.881L259.148 619.483Z" fill="black"/>
<path d="M111.477 641.567L107.637 641.567L107.637 640.439L106.773 640.439L106.773 641.567L102.861 641.567L102.861 642.263L111.477 642.263L111.477 641.567ZM103.389 649.067L109.869 649.067L109.869 651.359L110.745 651.359L110.745 648.371L103.389 648.371L103.389 649.067ZM104.649 644.279C104.649 643.679 105.585 643.355 107.205 643.355C108.813 643.355 109.737 643.679 109.737 644.279C109.737 644.867 108.813 645.191 107.205 645.191C105.585 645.191 104.649 644.867 104.649 644.279ZM107.637 646.739L107.637 645.827C109.545 645.755 110.625 645.227 110.625 644.279C110.625 643.247 109.377 642.707 107.205 642.707C105.009 642.707 103.761 643.247 103.761 644.279C103.761 645.227 104.841 645.767 106.773 645.827L106.773 646.739L102.357 646.739L102.357 647.447L112.041 647.447L112.041 646.739L107.637 646.739ZM117.128 641.579L116.264 641.579L116.264 643.571C116.264 645.599 114.896 647.651 113.348 648.383L113.888 649.103C115.124 648.455 116.216 647.087 116.696 645.443C117.212 647.003 118.292 648.311 119.504 648.911L120.02 648.215C118.484 647.495 117.128 645.527 117.128 643.571L117.128 641.579ZM121.268 640.619L121.268 651.371L122.144 651.371L122.144 640.619L121.268 640.619ZM135.879 640.643L135.003 640.643L135.003 648.503L135.879 648.503L135.879 640.643ZM128.211 644.015C128.211 642.923 129.039 642.143 130.131 642.143C131.235 642.143 132.063 642.923 132.063 644.015C132.063 645.107 131.235 645.887 130.131 645.887C129.039 645.887 128.211 645.107 128.211 644.015ZM132.915 644.015C132.915 642.467 131.727 641.387 130.131 641.387C128.547 641.387 127.359 642.467 127.359 644.015C127.359 645.563 128.547 646.643 130.131 646.643C131.727 646.643 132.915 645.563 132.915 644.015ZM129.891 650.387L129.891 647.687L129.027 647.687L129.027 651.119L136.215 651.119L136.215 650.387L129.891 650.387ZM139.022 645.059C140.738 644.843 142.406 644.051 142.994 642.839C143.57 644.051 145.25 644.843 146.966 645.059L147.278 644.363C145.43 644.147 143.546 643.187 143.546 641.903L143.546 641.891L146.966 641.891L146.966 641.171L139.034 641.171L139.034 641.891L142.43 641.891L142.43 641.903C142.43 643.187 140.558 644.147 138.71 644.363L139.022 645.059ZM142.982 650.627C141.254 650.627 140.198 650.183 140.198 649.391C140.198 648.611 141.254 648.167 142.982 648.167C144.71 648.167 145.766 648.611 145.766 649.391C145.766 650.183 144.71 650.627 142.982 650.627ZM142.982 647.459C140.69 647.459 139.322 648.179 139.322 649.391C139.322 650.627 140.69 651.335 142.982 651.335C145.274 651.335 146.654 650.627 146.654 649.391C146.654 648.179 145.274 647.459 142.982 647.459ZM138.146 645.755L138.146 646.487L147.842 646.487L147.842 645.755L138.146 645.755ZM155.481 647.735L153.069 647.735L153.069 642.599L155.481 642.599L155.481 647.735ZM158.001 644.687L156.297 644.687L156.297 641.879L152.241 641.879L152.241 648.443L156.297 648.443L156.297 645.419L158.001 645.419L158.001 650.819L158.829 650.819L158.829 640.859L158.001 640.859L158.001 644.687ZM160.101 640.619L160.101 651.359L160.941 651.359L160.941 640.619L160.101 640.619ZM171.668 640.619L170.792 640.619L170.792 646.151L171.668 646.151L171.668 640.619ZM164 643.391C164 642.431 164.804 641.747 165.896 641.747C167 641.747 167.804 642.431 167.804 643.391C167.804 644.351 167 645.035 165.896 645.035C164.804 645.035 164 644.351 164 643.391ZM168.656 643.391C168.656 641.999 167.504 641.027 165.896 641.027C164.312 641.027 163.148 641.999 163.148 643.391C163.148 644.795 164.312 645.755 165.896 645.755C167.504 645.755 168.656 644.795 168.656 643.391ZM165.644 650.495L165.644 649.223L171.668 649.223L171.668 646.691L164.756 646.691L164.756 647.399L170.804 647.399L170.804 648.563L164.78 648.563L164.78 651.203L172.052 651.203L172.052 650.495L165.644 650.495ZM178.771 641.483C180.559 641.483 181.627 641.927 181.627 642.683C181.627 643.439 180.559 643.871 178.771 643.871C176.971 643.871 175.915 643.439 175.915 642.683C175.915 641.927 176.971 641.483 178.771 641.483ZM178.771 644.543C181.123 644.543 182.515 643.871 182.515 642.683C182.515 641.483 181.123 640.811 178.771 640.811C176.419 640.811 175.015 641.483 175.015 642.683C175.015 643.871 176.419 644.543 178.771 644.543ZM175.999 649.355L182.371 649.355L182.371 647.003L175.111 647.003L175.111 647.675L181.507 647.675L181.507 648.707L175.147 648.707L175.147 651.227L182.695 651.227L182.695 650.519L175.999 650.519L175.999 649.355ZM173.935 645.299L173.935 646.019L183.631 646.019L183.631 645.299L173.935 645.299ZM192.182 645.491L188.966 645.491L188.966 643.619L192.182 643.619L192.182 645.491ZM193.034 641.219L192.182 641.219L192.182 642.911L188.966 642.911L188.966 641.219L188.102 641.219L188.102 646.211L193.034 646.211L193.034 641.219ZM190.166 648.239L196.046 648.239L196.046 647.507L189.29 647.507L189.29 651.215L196.238 651.215L196.238 650.483L190.166 650.483L190.166 648.239ZM195.938 643.235L195.938 640.631L195.062 640.631L195.062 646.907L195.938 646.907L195.938 643.967L197.546 643.967L197.546 643.235L195.938 643.235ZM202.441 642.467L205.021 642.467L205.021 641.735L199.033 641.735L199.033 642.467L201.577 642.467L201.577 643.967C201.577 645.827 200.197 647.855 198.697 648.587L199.213 649.283C200.413 648.659 201.517 647.267 202.009 645.695C202.525 647.195 203.629 648.431 204.865 649.019L205.357 648.323C203.821 647.651 202.441 645.803 202.441 643.967L202.441 642.467ZM206.557 640.631L206.557 651.347L207.433 651.347L207.433 640.631L206.557 640.631ZM217.688 647.423L216.788 647.423L216.788 647.771C216.788 649.247 215.024 650.327 213.152 650.603L213.488 651.287C215.084 651.011 216.608 650.255 217.244 649.043C217.868 650.255 219.38 651.011 220.976 651.287L221.312 650.603C219.44 650.327 217.688 649.247 217.688 647.771L217.688 647.423ZM214.496 641.783L219.98 641.783L219.98 643.943L214.496 643.943L214.496 641.783ZM217.688 645.971L217.688 644.663L220.832 644.663L220.832 641.075L213.632 641.075L213.632 644.663L216.812 644.663L216.812 645.971L212.384 645.971L212.384 646.703L222.092 646.703L222.092 645.971L217.688 645.971ZM226.579 648.191C225.571 648.191 224.827 647.471 224.827 646.475C224.827 645.479 225.571 644.759 226.579 644.759C227.611 644.759 228.355 645.479 228.355 646.475C228.355 647.471 227.611 648.191 226.579 648.191ZM226.579 644.027C225.091 644.027 223.999 645.035 223.999 646.475C223.999 647.927 225.091 648.923 226.579 648.923C228.103 648.923 229.183 647.927 229.183 646.475C229.183 645.035 228.103 644.027 226.579 644.027ZM227.011 640.739L226.135 640.739L226.135 642.359L223.363 642.359L223.363 643.079L229.711 643.079L229.711 642.359L227.011 642.359L227.011 640.739ZM233.443 645.083L231.643 645.083L231.643 640.619L230.767 640.619L230.767 651.359L231.643 651.359L231.643 645.815L233.443 645.815L233.443 645.083ZM242.394 646.943L243.27 646.943L243.27 640.631L242.394 640.631L242.394 641.951L240.198 641.951L240.198 642.683L242.394 642.683L242.394 644.087L240.198 644.087L240.198 644.807L242.394 644.807L242.394 646.943ZM240.678 645.791C239.142 645.191 238.038 643.715 238.038 642.143L238.038 641.003L237.174 641.003L237.174 642.143C237.174 643.871 236.094 645.359 234.486 645.971L234.978 646.679C236.226 646.163 237.186 645.155 237.618 643.835C238.086 645.035 239.022 646.007 240.174 646.487L240.678 645.791ZM242.082 647.339L241.23 647.339L241.23 647.867C241.23 648.707 240.69 649.823 239.634 650.471C238.602 649.883 238.086 648.839 238.086 647.867L238.086 647.339L237.246 647.339L237.246 647.867C237.246 648.899 236.406 650.075 235.062 650.579L235.494 651.227C236.514 650.831 237.27 650.075 237.654 649.199C237.966 650.111 238.614 650.915 239.658 651.323C240.666 650.891 241.326 650.051 241.65 649.163C242.01 650.087 242.766 650.843 243.822 651.227L244.278 650.579C242.91 650.111 242.082 648.983 242.082 647.867L242.082 647.339ZM246.822 641.675L245.946 641.675L245.946 648.623L246.786 648.623C248.418 648.623 250.062 648.503 251.886 648.131L251.79 647.399C250.014 647.759 248.394 647.879 246.822 647.879L246.822 641.675ZM255.486 644.939L253.722 644.939L253.722 640.619L252.846 640.619L252.846 651.347L253.722 651.347L253.722 645.683L255.486 645.683L255.486 644.939ZM259.841 646.631C260.309 646.739 260.837 646.811 261.389 646.811C261.953 646.811 262.493 646.739 262.961 646.619L262.961 649.223L259.841 649.223L259.841 646.631ZM258.341 644.075C258.341 642.851 259.625 642.035 261.389 642.035C263.153 642.035 264.437 642.851 264.437 644.075C264.437 645.287 263.153 646.103 261.389 646.103C259.625 646.103 258.341 645.287 258.341 644.075ZM263.825 649.223L263.825 646.283C264.725 645.803 265.265 645.047 265.265 644.075C265.265 642.407 263.657 641.327 261.389 641.327C259.121 641.327 257.501 642.407 257.501 644.075C257.501 645.047 258.053 645.815 258.965 646.283L258.965 649.223L256.529 649.223L256.529 649.955L266.285 649.955L266.285 649.223L263.825 649.223ZM269.08 647.891L269.944 647.891C269.716 645.983 271.888 645.251 271.888 643.475C271.888 642.203 271.036 641.363 269.692 641.363C268.732 641.363 267.988 641.831 267.436 642.443L268 642.959C268.42 642.479 268.984 642.179 269.584 642.179C270.484 642.179 270.928 642.803 270.928 643.535C270.928 645.011 268.792 645.779 269.08 647.891ZM269.548 650.639C269.944 650.639 270.28 650.327 270.28 649.871C270.28 649.391 269.944 649.079 269.548 649.079C269.14 649.079 268.804 649.391 268.804 649.871C268.804 650.327 269.14 650.639 269.548 650.639ZM70.6161 661.439L70.6161 662.171L72.8241 662.171L72.8241 665.015L73.7001 665.015L73.7001 658.631L72.8241 658.631L72.8241 661.439L70.6161 661.439ZM71.1921 663.899C69.6681 663.359 68.5521 662.015 68.5521 660.611L68.5521 660.167L70.9641 660.167L70.9641 659.435L65.2281 659.435L65.2281 660.167L67.6761 660.167L67.6761 660.611C67.6761 662.183 66.5121 663.623 64.9521 664.199L65.4081 664.907C66.6681 664.415 67.6881 663.407 68.1321 662.123C68.6001 663.239 69.5481 664.151 70.7481 664.595L71.1921 663.899ZM70.1721 668.651C68.5281 668.651 67.4961 668.171 67.4961 667.355C67.4961 666.539 68.5281 666.059 70.1721 666.059C71.8401 666.059 72.8721 666.539 72.8721 667.355C72.8721 668.171 71.8401 668.651 70.1721 668.651ZM70.1721 665.363C67.9761 665.363 66.6321 666.095 66.6321 667.355C66.6321 668.615 67.9761 669.347 70.1721 669.347C72.3921 669.347 73.7361 668.615 73.7361 667.355C73.7361 666.095 72.3921 665.363 70.1721 665.363ZM82.3392 659.627L79.6872 659.627L79.6872 658.535L78.8232 658.535L78.8232 659.627L76.1592 659.627L76.1592 660.311L82.3392 660.311L82.3392 659.627ZM77.5872 662.327C77.5872 661.739 78.2472 661.355 79.2552 661.355C80.2512 661.355 80.8992 661.739 80.8992 662.327C80.8992 662.915 80.2512 663.311 79.2552 663.311C78.2472 663.311 77.5872 662.915 77.5872 662.327ZM82.6632 664.415C81.7152 664.547 80.7072 664.643 79.6872 664.679L79.6872 663.899C80.9352 663.791 81.7272 663.215 81.7272 662.327C81.7272 661.343 80.7432 660.743 79.2552 660.743C77.7432 660.743 76.7592 661.343 76.7592 662.327C76.7592 663.227 77.5632 663.791 78.8232 663.911L78.8232 664.715C77.7672 664.751 76.7592 664.751 75.8952 664.751L76.0152 665.471C77.8752 665.471 80.4432 665.459 82.7352 665.039L82.6632 664.415ZM77.2032 667.079L83.3352 667.079L83.3352 669.359L84.2112 669.359L84.2112 666.371L77.2032 666.371L77.2032 667.079ZM85.8192 661.919L84.2112 661.919L84.2112 658.631L83.3352 658.631L83.3352 665.807L84.2112 665.807L84.2112 662.651L85.8192 662.651L85.8192 661.919ZM93.3543 659.975L90.6183 659.975L90.6183 658.643L89.7423 658.643L89.7423 659.975L87.0183 659.975L87.0183 660.695L93.3543 660.695L93.3543 659.975ZM88.4463 663.311C88.4463 662.531 89.1423 662.003 90.1743 662.003C91.1943 662.003 91.9023 662.531 91.9023 663.311C91.9023 664.079 91.1943 664.595 90.1743 664.595C89.1423 664.595 88.4463 664.079 88.4463 663.311ZM92.7303 663.311C92.7303 662.099 91.6983 661.307 90.1743 661.307C88.6503 661.307 87.6183 662.099 87.6183 663.311C87.6183 664.499 88.6503 665.291 90.1743 665.291C91.6983 665.291 92.7303 664.499 92.7303 663.311ZM89.5143 666.035L88.6383 666.035L88.6383 669.119L95.7663 669.119L95.7663 668.387L89.5143 668.387L89.5143 666.035ZM95.2743 662.219L95.2743 658.643L94.3983 658.643L94.3983 666.683L95.2743 666.683L95.2743 662.951L96.8823 662.951L96.8823 662.219L95.2743 662.219ZM108.565 658.619L108.565 669.371L109.441 669.371L109.441 658.619L108.565 658.619ZM103.801 659.471C102.217 659.471 101.089 660.923 101.089 663.191C101.089 665.459 102.217 666.923 103.801 666.923C105.385 666.923 106.513 665.459 106.513 663.191C106.513 660.923 105.385 659.471 103.801 659.471ZM103.801 660.251C104.893 660.251 105.673 661.427 105.673 663.191C105.673 664.967 104.893 666.143 103.801 666.143C102.709 666.143 101.929 664.967 101.929 663.191C101.929 661.427 102.709 660.251 103.801 660.251ZM115.356 665.735L112.944 665.735L112.944 660.599L115.356 660.599L115.356 665.735ZM117.876 662.687L116.172 662.687L116.172 659.879L112.116 659.879L112.116 666.443L116.172 666.443L116.172 663.419L117.876 663.419L117.876 668.819L118.704 668.819L118.704 658.859L117.876 658.859L117.876 662.687ZM119.976 658.619L119.976 669.359L120.816 669.359L120.816 658.619L119.976 658.619ZM131.543 658.619L130.667 658.619L130.667 664.151L131.543 664.151L131.543 658.619ZM123.875 661.391C123.875 660.431 124.679 659.747 125.771 659.747C126.875 659.747 127.679 660.431 127.679 661.391C127.679 662.351 126.875 663.035 125.771 663.035C124.679 663.035 123.875 662.351 123.875 661.391ZM128.531 661.391C128.531 659.999 127.379 659.027 125.771 659.027C124.187 659.027 123.023 659.999 123.023 661.391C123.023 662.795 124.187 663.755 125.771 663.755C127.379 663.755 128.531 662.795 128.531 661.391ZM125.519 668.495L125.519 667.223L131.543 667.223L131.543 664.691L124.631 664.691L124.631 665.399L130.679 665.399L130.679 666.563L124.655 666.563L124.655 669.203L131.927 669.203L131.927 668.495L125.519 668.495ZM137.406 663.803C139.014 663.515 140.682 662.615 141.318 661.295C141.966 662.615 143.634 663.515 145.242 663.803L145.578 663.107C143.79 662.843 141.822 661.607 141.822 660.143L141.822 660.035L145.23 660.035L145.23 659.303L137.406 659.303L137.406 660.035L140.838 660.035L140.838 660.143C140.838 661.607 138.87 662.843 137.07 663.107L137.406 663.803ZM146.178 664.763L136.482 664.763L136.482 665.495L140.874 665.495L140.874 669.347L141.75 669.347L141.75 665.495L146.178 665.495L146.178 664.763ZM156.749 663.923C154.973 663.599 152.801 662.039 152.801 660.191L152.801 659.363L151.877 659.363L151.877 660.191C151.877 662.039 149.717 663.599 147.929 663.923L148.301 664.655C149.897 664.307 151.649 663.179 152.333 661.607C153.029 663.179 154.793 664.307 156.377 664.655L156.749 663.923ZM152.777 667.211L152.777 664.559L151.901 664.559L151.901 667.211L147.509 667.211L147.509 667.943L157.253 667.943L157.253 667.211L152.777 667.211ZM166.156 660.527L159.808 660.527L159.808 662.771L167.212 662.771L167.212 662.123L160.672 662.123L160.672 661.139L167.02 661.139L167.02 658.955L159.784 658.955L159.784 659.591L166.156 659.591L166.156 660.527ZM160.612 667.487L167.056 667.487L167.056 665.255L159.724 665.255L159.724 665.891L166.192 665.891L166.192 666.863L159.748 666.863L159.748 669.203L167.404 669.203L167.404 668.555L160.612 668.555L160.612 667.487ZM158.548 663.635L158.548 664.319L168.28 664.319L168.28 663.635L158.548 663.635ZM180.827 661.979L174.359 661.979L174.359 659.807L180.755 659.807L180.755 659.075L173.495 659.075L173.495 662.699L180.827 662.699L180.827 661.979ZM177.107 668.639C175.379 668.639 174.323 668.195 174.323 667.403C174.323 666.623 175.379 666.179 177.107 666.179C178.847 666.179 179.891 666.623 179.891 667.403C179.891 668.195 178.835 668.639 177.107 668.639ZM177.107 665.471C174.815 665.471 173.447 666.179 173.447 667.403C173.447 668.639 174.815 669.335 177.107 669.335C179.399 669.335 180.779 668.639 180.779 667.403C180.779 666.179 179.399 665.471 177.107 665.471ZM172.259 663.767L172.259 664.499L181.967 664.499L181.967 663.767L172.259 663.767ZM184.378 666.863L190.942 666.863L190.942 669.251L191.818 669.251L191.818 666.143L184.378 666.143L184.378 666.863ZM188.602 664.547L188.602 663.359L191.986 663.359L191.986 662.663L185.422 662.663L185.422 661.451L191.77 661.451L191.77 658.895L184.534 658.895L184.534 659.603L190.906 659.603L190.906 660.791L184.558 660.791L184.558 663.359L187.726 663.359L187.726 664.547L183.286 664.547L183.286 665.279L193.03 665.279L193.03 664.547L188.602 664.547ZM197.493 666.191C196.485 666.191 195.741 665.471 195.741 664.475C195.741 663.479 196.485 662.759 197.493 662.759C198.525 662.759 199.269 663.479 199.269 664.475C199.269 665.471 198.525 666.191 197.493 666.191ZM197.493 662.027C196.005 662.027 194.913 663.035 194.913 664.475C194.913 665.927 196.005 666.923 197.493 666.923C199.017 666.923 200.097 665.927 200.097 664.475C200.097 663.035 199.017 662.027 197.493 662.027ZM197.925 658.739L197.049 658.739L197.049 660.359L194.277 660.359L194.277 661.079L200.625 661.079L200.625 660.359L197.925 660.359L197.925 658.739ZM204.357 663.083L202.557 663.083L202.557 658.619L201.681 658.619L201.681 669.359L202.557 669.359L202.557 663.815L204.357 663.815L204.357 663.083ZM213.309 664.943L214.185 664.943L214.185 658.631L213.309 658.631L213.309 659.951L211.113 659.951L211.113 660.683L213.309 660.683L213.309 662.087L211.113 662.087L211.113 662.807L213.309 662.807L213.309 664.943ZM211.593 663.791C210.057 663.191 208.953 661.715 208.953 660.143L208.953 659.003L208.089 659.003L208.089 660.143C208.089 661.871 207.009 663.359 205.401 663.971L205.893 664.679C207.141 664.163 208.101 663.155 208.533 661.835C209.001 663.035 209.937 664.007 211.089 664.487L211.593 663.791ZM212.997 665.339L212.145 665.339L212.145 665.867C212.145 666.707 211.605 667.823 210.549 668.471C209.517 667.883 209.001 666.839 209.001 665.867L209.001 665.339L208.161 665.339L208.161 665.867C208.161 666.899 207.321 668.075 205.977 668.579L206.409 669.227C207.429 668.831 208.185 668.075 208.569 667.199C208.881 668.111 209.529 668.915 210.573 669.323C211.581 668.891 212.241 668.051 212.565 667.163C212.925 668.087 213.681 668.843 214.737 669.227L215.193 668.579C213.825 668.111 212.997 666.983 212.997 665.867L212.997 665.339ZM225.008 661.907L218.612 661.907L218.612 659.015L217.736 659.015L217.736 662.627L225.008 662.627L225.008 661.907ZM218.552 665.963L217.676 665.963L217.676 669.095L225.08 669.095L225.08 668.363L218.552 668.363L218.552 665.963ZM216.404 664.115L216.404 664.847L226.136 664.847L226.136 664.115L216.404 664.115ZM231.223 660.467L233.803 660.467L233.803 659.735L227.815 659.735L227.815 660.467L230.359 660.467L230.359 661.967C230.359 663.827 228.979 665.855 227.479 666.587L227.995 667.283C229.195 666.659 230.299 665.267 230.791 663.695C231.307 665.195 232.411 666.431 233.647 667.019L234.139 666.323C232.603 665.651 231.223 663.803 231.223 661.967L231.223 660.467ZM235.339 658.631L235.339 669.347L236.215 669.347L236.215 658.631L235.339 658.631ZM247.574 659.627L244.922 659.627L244.922 658.535L244.058 658.535L244.058 659.627L241.394 659.627L241.394 660.311L247.574 660.311L247.574 659.627ZM242.822 662.327C242.822 661.739 243.482 661.355 244.49 661.355C245.486 661.355 246.134 661.739 246.134 662.327C246.134 662.915 245.486 663.311 244.49 663.311C243.482 663.311 242.822 662.915 242.822 662.327ZM247.898 664.415C246.95 664.547 245.942 664.643 244.922 664.679L244.922 663.899C246.17 663.791 246.962 663.215 246.962 662.327C246.962 661.343 245.978 660.743 244.49 660.743C242.978 660.743 241.994 661.343 241.994 662.327C241.994 663.227 242.798 663.791 244.058 663.911L244.058 664.715C243.002 664.751 241.994 664.751 241.13 664.751L241.25 665.471C243.11 665.471 245.678 665.459 247.97 665.039L247.898 664.415ZM242.438 667.079L248.57 667.079L248.57 669.359L249.446 669.359L249.446 666.371L242.438 666.371L242.438 667.079ZM251.054 661.919L249.446 661.919L249.446 658.631L248.57 658.631L248.57 665.807L249.446 665.807L249.446 662.651L251.054 662.651L251.054 661.919ZM260.989 658.643L260.113 658.643L260.113 666.503L260.989 666.503L260.989 658.643ZM253.321 662.015C253.321 660.923 254.149 660.143 255.241 660.143C256.345 660.143 257.173 660.923 257.173 662.015C257.173 663.107 256.345 663.887 255.241 663.887C254.149 663.887 253.321 663.107 253.321 662.015ZM258.025 662.015C258.025 660.467 256.837 659.387 255.241 659.387C253.657 659.387 252.469 660.467 252.469 662.015C252.469 663.563 253.657 664.643 255.241 664.643C256.837 664.643 258.025 663.563 258.025 662.015ZM255.001 668.387L255.001 665.687L254.137 665.687L254.137 669.119L261.325 669.119L261.325 668.387L255.001 668.387ZM265.908 666.095C265.044 666.095 264.408 665.399 264.408 664.415C264.408 663.443 265.044 662.723 265.908 662.723C266.796 662.723 267.432 663.443 267.432 664.415C267.432 665.399 266.796 666.095 265.908 666.095ZM265.908 661.979C264.576 661.979 263.628 662.975 263.628 664.415C263.628 665.855 264.576 666.839 265.908 666.839C267.252 666.839 268.212 665.855 268.212 664.415C268.212 662.975 267.252 661.979 265.908 661.979ZM266.34 658.931L265.476 658.931L265.476 660.503L263.232 660.503L263.232 661.235L268.596 661.235L268.596 660.503L266.34 660.503L266.34 658.931ZM271.464 658.619L271.464 663.179L269.988 663.179L269.988 658.883L269.16 658.883L269.16 668.819L269.988 668.819L269.988 663.911L271.464 663.911L271.464 669.347L272.304 669.347L272.304 658.619L271.464 658.619ZM275.219 663.803C276.827 663.515 278.495 662.615 279.131 661.295C279.779 662.615 281.447 663.515 283.055 663.803L283.391 663.107C281.603 662.843 279.635 661.607 279.635 660.143L279.635 660.035L283.043 660.035L283.043 659.303L275.219 659.303L275.219 660.035L278.651 660.035L278.651 660.143C278.651 661.607 276.683 662.843 274.883 663.107L275.219 663.803ZM283.991 664.763L274.295 664.763L274.295 665.495L278.687 665.495L278.687 669.347L279.563 669.347L279.563 665.495L283.991 665.495L283.991 664.763ZM288.454 659.639L287.614 659.639L287.614 661.739C287.614 663.575 286.666 665.495 285.214 666.347L285.766 667.007C286.858 666.347 287.662 665.111 288.046 663.659C288.43 664.979 289.186 666.143 290.218 666.767L290.722 666.095C289.33 665.255 288.454 663.407 288.454 661.715L288.454 659.639ZM291.406 662.507L289.558 662.507L289.558 663.239L291.406 663.239L291.406 668.807L292.234 668.807L292.234 658.871L291.406 658.871L291.406 662.507ZM293.578 658.619L293.578 669.347L294.418 669.347L294.418 658.619L293.578 658.619ZM299.661 664.631C300.129 664.739 300.657 664.811 301.209 664.811C301.773 664.811 302.313 664.739 302.781 664.619L302.781 667.223L299.661 667.223L299.661 664.631ZM298.161 662.075C298.161 660.851 299.445 660.035 301.209 660.035C302.973 660.035 304.257 660.851 304.257 662.075C304.257 663.287 302.973 664.103 301.209 664.103C299.445 664.103 298.161 663.287 298.161 662.075ZM303.645 667.223L303.645 664.283C304.545 663.803 305.085 663.047 305.085 662.075C305.085 660.407 303.477 659.327 301.209 659.327C298.941 659.327 297.321 660.407 297.321 662.075C297.321 663.047 297.873 663.815 298.785 664.283L298.785 667.223L296.349 667.223L296.349 667.955L306.105 667.955L306.105 667.223L303.645 667.223ZM308.36 668.639C308.768 668.639 309.104 668.327 309.104 667.871C309.104 667.391 308.768 667.079 308.36 667.079C307.964 667.079 307.628 667.391 307.628 667.871C307.628 668.327 307.964 668.639 308.36 668.639Z" fill="#646464"/>
<path d="M330.115 50.4834L349.914 70.2824" stroke="black" stroke-linecap="round" stroke-linejoin="bevel"/>
<path d="M350.081 50.4834L330.282 70.2824" stroke="black" stroke-linecap="round" stroke-linejoin="bevel"/>
<path d="M42.9792 94.8034L41.2272 94.8034L41.2272 110.523L42.9792 110.523L42.9792 94.8034ZM27.6432 101.547C27.6432 99.3634 29.2992 97.8034 31.4832 97.8034C33.6912 97.8034 35.3472 99.3634 35.3472 101.547C35.3472 103.731 33.6912 105.291 31.4832 105.291C29.2992 105.291 27.6432 103.731 27.6432 101.547ZM37.0512 101.547C37.0512 98.4514 34.6752 96.2914 31.4832 96.2914C28.3152 96.2914 25.9392 98.4514 25.9392 101.547C25.9392 104.643 28.3152 106.803 31.4832 106.803C34.6752 106.803 37.0512 104.643 37.0512 101.547ZM31.0032 114.291L31.0032 108.891L29.2752 108.891L29.2752 115.755L43.6512 115.755L43.6512 114.291L31.0032 114.291ZM49.2654 103.635C52.6974 103.203 56.0334 101.619 57.2094 99.1954C58.3614 101.619 61.7214 103.203 65.1534 103.635L65.7774 102.243C62.0814 101.811 58.3134 99.8914 58.3134 97.3234L58.3134 97.2994L65.1534 97.2994L65.1534 95.8594L49.2894 95.8594L49.2894 97.2994L56.0814 97.2994L56.0814 97.3234C56.0814 99.8914 52.3374 101.811 48.6414 102.243L49.2654 103.635ZM57.1854 114.771C53.7294 114.771 51.6174 113.883 51.6174 112.299C51.6174 110.739 53.7294 109.851 57.1854 109.851C60.6414 109.851 62.7534 110.739 62.7534 112.299C62.7534 113.883 60.6414 114.771 57.1854 114.771ZM57.1854 108.435C52.6014 108.435 49.8654 109.875 49.8654 112.299C49.8654 114.771 52.6014 116.187 57.1854 116.187C61.7694 116.187 64.5294 114.771 64.5294 112.299C64.5294 109.875 61.7694 108.435 57.1854 108.435ZM47.5134 105.027L47.5134 106.491L66.9054 106.491L66.9054 105.027L47.5134 105.027ZM83.8872 105.531L77.7432 105.531L77.7432 101.475L83.8872 101.475L83.8872 105.531ZM85.5912 102.339L90.7752 102.339L90.7752 110.667L92.5272 110.667L92.5272 94.7794L90.7752 94.7794L90.7752 100.875L85.5912 100.875L85.5912 96.1954L83.8872 96.1954L83.8872 100.059L77.7432 100.059L77.7432 96.1954L76.0152 96.1954L76.0152 106.971L85.5912 106.971L85.5912 102.339ZM80.5512 114.291L80.5512 109.131L78.7992 109.131L78.7992 115.755L93.0552 115.755L93.0552 114.291L80.5512 114.291ZM115.349 97.9954L107.573 97.9954L107.573 95.1154L105.821 95.1154L105.821 97.9954L97.9734 97.9954L97.9734 99.4594L115.349 99.4594L115.349 97.9954ZM101.477 105.027C101.477 103.395 103.493 102.387 106.685 102.387C109.901 102.387 111.893 103.395 111.893 105.027C111.893 106.707 109.901 107.691 106.685 107.691C103.493 107.691 101.477 106.707 101.477 105.027ZM107.573 112.203L107.573 109.083C111.341 108.891 113.645 107.427 113.645 105.027C113.645 102.507 110.981 100.971 106.685 100.971C102.389 100.971 99.7014 102.507 99.7014 105.027C99.7014 107.427 102.005 108.891 105.821 109.083L105.821 112.203L96.9894 112.203L96.9894 113.667L116.453 113.667L116.453 112.203L107.573 112.203ZM134.283 98.5714L121.587 98.5714L121.587 103.059L136.395 103.059L136.395 101.763L123.315 101.763L123.315 99.7954L136.011 99.7954L136.011 95.4274L121.539 95.4274L121.539 96.6994L134.283 96.6994L134.283 98.5714ZM123.195 112.491L136.083 112.491L136.083 108.027L121.419 108.027L121.419 109.299L134.355 109.299L134.355 111.243L121.467 111.243L121.467 115.923L136.779 115.923L136.779 114.627L123.195 114.627L123.195 112.491ZM119.067 104.787L119.067 106.155L138.531 106.155L138.531 104.787L119.067 104.787ZM41.2272 126.779L41.2272 138.275L42.9792 138.275L42.9792 126.779L41.2272 126.779ZM29.2272 139.379L29.2272 147.923L42.9792 147.923L42.9792 139.379L41.2512 139.379L41.2512 142.091L30.9552 142.091L30.9552 139.379L29.2272 139.379ZM30.9552 143.507L41.2512 143.507L41.2512 146.483L30.9552 146.483L30.9552 143.507ZM31.4832 127.811C28.2672 127.811 25.9392 129.803 25.9392 132.731C25.9392 135.659 28.2672 137.651 31.4832 137.651C34.7232 137.651 37.0512 135.659 37.0512 132.731C37.0512 129.803 34.7232 127.811 31.4832 127.811ZM31.4832 129.275C33.7392 129.275 35.3472 130.715 35.3472 132.731C35.3472 134.747 33.7392 136.187 31.4832 136.187C29.2512 136.187 27.6432 134.747 27.6432 132.731C27.6432 130.715 29.2512 129.275 31.4832 129.275ZM58.8654 136.955C56.3454 137.411 54.2574 137.483 50.1294 137.483L50.1294 134.003L57.5454 134.003L57.5454 128.051L48.3534 128.051L48.3534 129.515L55.8414 129.515L55.8414 132.635L48.4014 132.635L48.4014 138.947L49.9134 138.947C54.2574 138.947 56.3934 138.875 59.0574 138.395L58.8654 136.955ZM50.8014 142.595L63.3534 142.595L63.3534 148.283L65.1054 148.283L65.1054 141.155L50.8014 141.155L50.8014 142.595ZM63.3534 126.779L63.3534 129.995L59.0334 129.995L59.0334 131.459L63.3534 131.459L63.3534 134.411L59.0334 134.411L59.0334 135.875L63.3534 135.875L63.3534 139.979L65.1054 139.979L65.1054 126.779L63.3534 126.779ZM74.8955 141.707C73.1675 141.707 71.8955 140.315 71.8955 138.347C71.8955 136.403 73.1675 134.963 74.8955 134.963C76.6715 134.963 77.9435 136.403 77.9435 138.347C77.9435 140.315 76.6715 141.707 74.8955 141.707ZM74.8955 133.475C72.2315 133.475 70.3355 135.467 70.3355 138.347C70.3355 141.227 72.2315 143.195 74.8955 143.195C77.5835 143.195 79.5035 141.227 79.5035 138.347C79.5035 135.467 77.5835 133.475 74.8955 133.475ZM75.7595 127.379L74.0315 127.379L74.0315 130.523L69.5435 130.523L69.5435 131.987L80.2715 131.987L80.2715 130.523L75.7595 130.523L75.7595 127.379ZM86.0075 126.755L86.0075 135.875L83.0555 135.875L83.0555 127.283L81.3995 127.283L81.3995 147.155L83.0555 147.155L83.0555 137.339L86.0075 137.339L86.0075 148.211L87.6875 148.211L87.6875 126.755L86.0075 126.755ZM93.5176 137.123C96.7336 136.547 100.07 134.747 101.342 132.107C102.638 134.747 105.974 136.547 109.19 137.123L109.862 135.731C106.286 135.203 102.35 132.731 102.35 129.803L102.35 129.587L109.166 129.587L109.166 128.123L93.5176 128.123L93.5176 129.587L100.382 129.587L100.382 129.803C100.382 132.731 96.4456 135.203 92.8456 135.731L93.5176 137.123ZM111.062 139.043L91.6696 139.043L91.6696 140.507L100.454 140.507L100.454 148.211L102.206 148.211L102.206 140.507L111.062 140.507L111.062 139.043ZM119.988 128.795L118.308 128.795L118.308 132.995C118.308 136.667 116.412 140.507 113.508 142.211L114.612 143.531C116.796 142.211 118.404 139.739 119.172 136.835C119.94 139.475 121.452 141.803 123.516 143.051L124.524 141.707C121.74 140.027 119.988 136.331 119.988 132.947L119.988 128.795ZM125.892 134.531L122.196 134.531L122.196 135.995L125.892 135.995L125.892 147.131L127.548 147.131L127.548 127.259L125.892 127.259L125.892 134.531ZM130.236 126.755L130.236 148.211L131.916 148.211L131.916 126.755L130.236 126.755ZM142.402 138.779C143.338 138.995 144.394 139.139 145.498 139.139C146.626 139.139 147.706 138.995 148.642 138.755L148.642 143.963L142.402 143.963L142.402 138.779ZM139.402 133.667C139.402 131.219 141.97 129.587 145.498 129.587C149.026 129.587 151.594 131.219 151.594 133.667C151.594 136.091 149.026 137.723 145.498 137.723C141.97 137.723 139.402 136.091 139.402 133.667ZM150.37 143.963L150.37 138.083C152.17 137.123 153.25 135.611 153.25 133.667C153.25 130.331 150.034 128.171 145.498 128.171C140.962 128.171 137.722 130.331 137.722 133.667C137.722 135.611 138.826 137.147 140.65 138.083L140.65 143.963L135.778 143.963L135.778 145.427L155.29 145.427L155.29 143.963L150.37 143.963ZM159.8 146.795C160.616 146.795 161.288 146.171 161.288 145.259C161.288 144.299 160.616 143.675 159.8 143.675C159.008 143.675 158.336 144.299 158.336 145.259C158.336 146.171 159.008 146.795 159.8 146.795Z" fill="black"/>
<path d="M31.9752 185.283L31.2452 185.283L31.2452 191.833L31.9752 191.833L31.9752 185.283ZM25.5852 188.093C25.5852 187.183 26.2752 186.533 27.1852 186.533C28.1052 186.533 28.7952 187.183 28.7952 188.093C28.7952 189.003 28.1052 189.653 27.1852 189.653C26.2752 189.653 25.5852 189.003 25.5852 188.093ZM29.5052 188.093C29.5052 186.803 28.5152 185.903 27.1852 185.903C25.8652 185.903 24.8752 186.803 24.8752 188.093C24.8752 189.383 25.8652 190.283 27.1852 190.283C28.5152 190.283 29.5052 189.383 29.5052 188.093ZM26.9852 193.403L26.9852 191.153L26.2652 191.153L26.2652 194.013L32.2552 194.013L32.2552 193.403L26.9852 193.403ZM34.5945 188.963C36.0245 188.783 37.4145 188.123 37.9045 187.113C38.3845 188.123 39.7845 188.783 41.2145 188.963L41.4745 188.383C39.9345 188.203 38.3645 187.403 38.3645 186.333L38.3645 186.323L41.2145 186.323L41.2145 185.723L34.6045 185.723L34.6045 186.323L37.4345 186.323L37.4345 186.333C37.4345 187.403 35.8745 188.203 34.3345 188.383L34.5945 188.963ZM37.8945 193.603C36.4545 193.603 35.5745 193.233 35.5745 192.573C35.5745 191.923 36.4545 191.553 37.8945 191.553C39.3345 191.553 40.2145 191.923 40.2145 192.573C40.2145 193.233 39.3345 193.603 37.8945 193.603ZM37.8945 190.963C35.9845 190.963 34.8445 191.563 34.8445 192.573C34.8445 193.603 35.9845 194.193 37.8945 194.193C39.8045 194.193 40.9545 193.603 40.9545 192.573C40.9545 191.563 39.8045 190.963 37.8945 190.963ZM33.8645 189.543L33.8645 190.153L41.9445 190.153L41.9445 189.543L33.8645 189.543ZM49.0202 189.753L46.4602 189.753L46.4602 188.063L49.0202 188.063L49.0202 189.753ZM49.7302 188.423L51.8902 188.423L51.8902 191.893L52.6202 191.893L52.6202 185.273L51.8902 185.273L51.8902 187.813L49.7302 187.813L49.7302 185.863L49.0202 185.863L49.0202 187.473L46.4602 187.473L46.4602 185.863L45.7402 185.863L45.7402 190.353L49.7302 190.353L49.7302 188.423ZM47.6302 193.403L47.6302 191.253L46.9002 191.253L46.9002 194.013L52.8402 194.013L52.8402 193.403L47.6302 193.403ZM62.1295 186.613L58.8895 186.613L58.8895 185.413L58.1595 185.413L58.1595 186.613L54.8895 186.613L54.8895 187.223L62.1295 187.223L62.1295 186.613ZM56.3495 189.543C56.3495 188.863 57.1895 188.443 58.5195 188.443C59.8595 188.443 60.6895 188.863 60.6895 189.543C60.6895 190.243 59.8595 190.653 58.5195 190.653C57.1895 190.653 56.3495 190.243 56.3495 189.543ZM58.8895 192.533L58.8895 191.233C60.4595 191.153 61.4195 190.543 61.4195 189.543C61.4195 188.493 60.3095 187.853 58.5195 187.853C56.7295 187.853 55.6095 188.493 55.6095 189.543C55.6095 190.543 56.5695 191.153 58.1595 191.233L58.1595 192.533L54.4795 192.533L54.4795 193.143L62.5895 193.143L62.5895 192.533L58.8895 192.533Z" fill="black"/>
<path d="M57.0605 209.283L57.0605 210.099L52.3725 220.483L51.1245 220.483L55.7325 210.307L49.9725 210.307L49.9725 212.403L48.8365 212.403L48.8365 209.283L57.0605 209.283Z" fill="black"/>
<rect width="57.8387" height="1" transform="matrix(1 6.79865e-09 6.79865e-09 -1 24.1152 235.483)" fill="black"/>
<path d="M125.795 217.539L123.555 217.539L123.555 220.483L122.403 220.483L122.403 217.539L116.083 217.539L116.083 216.707L122.019 209.283L123.299 209.283L117.571 216.515L122.435 216.515L122.435 213.923L123.555 213.923L123.555 216.515L125.795 216.515L125.795 217.539Z" fill="black"/>
<rect width="57.8387" height="1" transform="matrix(1 6.79865e-09 6.79865e-09 -1 91.1562 235.483)" fill="black"/>
<path d="M189.919 214.611C190.623 214.846 191.162 215.198 191.535 215.667C191.919 216.137 192.111 216.702 192.111 217.363C192.111 218.014 191.935 218.585 191.583 219.075C191.231 219.555 190.725 219.929 190.063 220.195C189.413 220.451 188.645 220.579 187.759 220.579C186.415 220.579 185.359 220.291 184.591 219.715C183.823 219.139 183.439 218.355 183.439 217.363C183.439 216.691 183.621 216.126 183.983 215.667C184.357 215.198 184.895 214.846 185.599 214.611C185.023 214.387 184.586 214.067 184.287 213.651C183.989 213.225 183.839 212.723 183.839 212.147C183.839 211.241 184.191 210.521 184.895 209.987C185.61 209.454 186.565 209.187 187.759 209.187C188.549 209.187 189.237 209.31 189.823 209.555C190.421 209.79 190.885 210.131 191.215 210.579C191.546 211.027 191.711 211.55 191.711 212.147C191.711 212.723 191.557 213.225 191.247 213.651C190.938 214.067 190.495 214.387 189.919 214.611ZM184.991 212.179C184.991 212.798 185.237 213.289 185.727 213.651C186.218 214.014 186.895 214.195 187.759 214.195C188.623 214.195 189.301 214.014 189.791 213.651C190.293 213.289 190.543 212.803 190.543 212.195C190.543 211.566 190.287 211.07 189.775 210.707C189.274 210.345 188.602 210.163 187.759 210.163C186.906 210.163 186.229 210.345 185.727 210.707C185.237 211.07 184.991 211.561 184.991 212.179ZM187.759 219.603C188.751 219.603 189.525 219.401 190.079 218.995C190.645 218.59 190.927 218.041 190.927 217.347C190.927 216.654 190.645 216.11 190.079 215.715C189.525 215.31 188.751 215.107 187.759 215.107C186.778 215.107 186.005 215.31 185.439 215.715C184.885 216.11 184.607 216.654 184.607 217.347C184.607 218.051 184.885 218.606 185.439 219.011C185.994 219.406 186.767 219.603 187.759 219.603Z" fill="black"/>
<rect width="57.8387" height="1" transform="matrix(1 6.79865e-09 6.79865e-09 -1 158.195 235.483)" fill="black"/>
<path d="M258.09 219.459L258.09 220.483L250.234 220.483L250.234 219.667L254.89 215.107C255.476 214.531 255.871 214.035 256.074 213.619C256.287 213.193 256.394 212.766 256.394 212.339C256.394 211.678 256.164 211.166 255.706 210.803C255.258 210.43 254.612 210.243 253.77 210.243C252.458 210.243 251.439 210.659 250.714 211.491L249.898 210.787C250.335 210.275 250.89 209.881 251.562 209.603C252.244 209.326 253.012 209.187 253.866 209.187C255.007 209.187 255.908 209.459 256.57 210.003C257.242 210.537 257.578 211.273 257.578 212.211C257.578 212.787 257.45 213.342 257.194 213.875C256.938 214.409 256.452 215.022 255.738 215.715L251.93 219.459L258.09 219.459Z" fill="black"/>
<rect width="57.8387" height="1" transform="matrix(1 6.79865e-09 6.79865e-09 -1 225.236 235.483)" fill="black"/>
<path d="M322.241 209.283L322.241 220.483L321.089 220.483L321.089 210.307L318.449 210.307L318.449 209.283L322.241 209.283Z" fill="black"/>
<rect width="57.8387" height="1" transform="matrix(1 6.79865e-09 6.79865e-09 -1 292.275 235.483)" fill="black"/>
<rect x="8.11523" y="692.483" width="360" height="48" fill="black" fill-opacity="0.7"/>
<path d="M106.281 711.003L105.259 711.003L105.259 720.173L106.281 720.173L106.281 711.003ZM97.3353 714.937C97.3353 713.663 98.3013 712.753 99.5753 712.753C100.863 712.753 101.829 713.663 101.829 714.937C101.829 716.211 100.863 717.121 99.5753 717.121C98.3013 717.121 97.3353 716.211 97.3353 714.937ZM102.823 714.937C102.823 713.131 101.437 711.871 99.5753 711.871C97.7273 711.871 96.3413 713.131 96.3413 714.937C96.3413 716.743 97.7273 718.003 99.5753 718.003C101.437 718.003 102.823 716.743 102.823 714.937ZM99.2953 722.371L99.2953 719.221L98.2873 719.221L98.2873 723.225L106.673 723.225L106.673 722.371L99.2953 722.371ZM109.948 716.155C111.95 715.903 113.896 714.979 114.582 713.565C115.254 714.979 117.214 715.903 119.216 716.155L119.58 715.343C117.424 715.091 115.226 713.971 115.226 712.473L115.226 712.459L119.216 712.459L119.216 711.619L109.962 711.619L109.962 712.459L113.924 712.459L113.924 712.473C113.924 713.971 111.74 715.091 109.584 715.343L109.948 716.155ZM114.568 722.651C112.552 722.651 111.32 722.133 111.32 721.209C111.32 720.299 112.552 719.781 114.568 719.781C116.584 719.781 117.816 720.299 117.816 721.209C117.816 722.133 116.584 722.651 114.568 722.651ZM114.568 718.955C111.894 718.955 110.298 719.795 110.298 721.209C110.298 722.651 111.894 723.477 114.568 723.477C117.242 723.477 118.852 722.651 118.852 721.209C118.852 719.795 117.242 718.955 114.568 718.955ZM108.926 716.967L108.926 717.821L120.238 717.821L120.238 716.967L108.926 716.967ZM129.15 719.277L126.336 719.277L126.336 713.285L129.15 713.285L129.15 719.277ZM132.09 715.721L130.102 715.721L130.102 712.445L125.37 712.445L125.37 720.103L130.102 720.103L130.102 716.575L132.09 716.575L132.09 722.875L133.056 722.875L133.056 711.255L132.09 711.255L132.09 715.721ZM134.54 710.975L134.54 723.505L135.52 723.505L135.52 710.975L134.54 710.975ZM148.035 710.975L147.013 710.975L147.013 717.429L148.035 717.429L148.035 710.975ZM139.089 714.209C139.089 713.089 140.027 712.291 141.301 712.291C142.589 712.291 143.527 713.089 143.527 714.209C143.527 715.329 142.589 716.127 141.301 716.127C140.027 716.127 139.089 715.329 139.089 714.209ZM144.521 714.209C144.521 712.585 143.177 711.451 141.301 711.451C139.453 711.451 138.095 712.585 138.095 714.209C138.095 715.847 139.453 716.967 141.301 716.967C143.177 716.967 144.521 715.847 144.521 714.209ZM141.007 722.497L141.007 721.013L148.035 721.013L148.035 718.059L139.971 718.059L139.971 718.885L147.027 718.885L147.027 720.243L139.999 720.243L139.999 723.323L148.483 723.323L148.483 722.497L141.007 722.497ZM156.322 711.983C158.408 711.983 159.654 712.501 159.654 713.383C159.654 714.265 158.408 714.769 156.322 714.769C154.222 714.769 152.99 714.265 152.99 713.383C152.99 712.501 154.222 711.983 156.322 711.983ZM156.322 715.553C159.066 715.553 160.69 714.769 160.69 713.383C160.69 711.983 159.066 711.199 156.322 711.199C153.578 711.199 151.94 711.983 151.94 713.383C151.94 714.769 153.578 715.553 156.322 715.553ZM153.088 721.167L160.522 721.167L160.522 718.423L152.052 718.423L152.052 719.207L159.514 719.207L159.514 720.411L152.094 720.411L152.094 723.351L160.9 723.351L160.9 722.525L153.088 722.525L153.088 721.167ZM150.68 716.435L150.68 717.275L161.992 717.275L161.992 716.435L150.68 716.435ZM170.302 713.341L172.654 713.341L172.654 712.487L166.83 712.487L166.83 713.341L169.322 713.341L169.322 714.433C169.322 716.995 168.342 719.123 166.55 720.103L167.194 720.887C168.51 720.117 169.42 718.745 169.84 716.981C170.288 718.521 171.17 719.767 172.416 720.453L173.032 719.655C171.282 718.759 170.302 716.729 170.302 714.433L170.302 713.341ZM176.322 710.975L176.322 716.071L174.558 716.071L174.558 711.269L173.592 711.269L173.592 722.875L174.558 722.875L174.558 716.939L176.322 716.939L176.322 723.505L177.302 723.505L177.302 710.975L176.322 710.975ZM184.847 716.113L181.095 716.113L181.095 714.153L184.847 714.153L184.847 716.113ZM185.841 711.479L184.847 711.479L184.847 713.341L181.095 713.341L181.095 711.479L180.087 711.479L180.087 716.953L185.841 716.953L185.841 711.479ZM182.383 721.055L189.229 721.055L189.229 718.073L181.347 718.073L181.347 718.899L188.235 718.899L188.235 720.271L181.375 720.271L181.375 723.351L189.705 723.351L189.705 722.511L182.383 722.511L182.383 721.055ZM189.229 713.733L189.229 710.989L188.207 710.989L188.207 717.457L189.229 717.457L189.229 714.587L191.105 714.587L191.105 713.733L189.229 713.733ZM203.032 715.161C200.918 714.867 198.594 713.467 198.594 711.759L198.594 711.171L197.558 711.171L197.558 711.759C197.558 713.481 195.262 714.867 193.12 715.161L193.512 715.987C195.388 715.665 197.306 714.671 198.076 713.187C198.86 714.657 200.792 715.665 202.64 715.987L203.032 715.161ZM198.076 722.679C196.046 722.679 194.828 722.175 194.828 721.321C194.828 720.467 196.046 719.963 198.076 719.963C200.12 719.963 201.324 720.467 201.324 721.321C201.324 722.175 200.12 722.679 198.076 722.679ZM198.076 719.165C195.388 719.165 193.806 719.935 193.806 721.321C193.806 722.707 195.388 723.477 198.076 723.477C200.764 723.477 202.36 722.707 202.36 721.321C202.36 719.935 200.764 719.165 198.076 719.165ZM198.594 717.233L198.594 715.357L197.572 715.357L197.572 717.233L192.434 717.233L192.434 718.073L203.746 718.073L203.746 717.233L198.594 717.233ZM213.153 715.315L214.861 715.315L214.861 718.731L215.841 718.731L215.841 710.989L214.861 710.989L214.861 714.461L213.153 714.461L213.153 711.185L212.187 711.185L212.187 718.549L213.153 718.549L213.153 715.315ZM211.641 712.445L208.953 712.445L208.953 711.031L207.945 711.031L207.945 712.445L205.229 712.445L205.229 713.285L211.641 713.285L211.641 712.445ZM208.449 714.727C209.485 714.727 210.185 715.273 210.185 716.085C210.185 716.897 209.485 717.443 208.449 717.443C207.399 717.443 206.699 716.897 206.699 716.085C206.699 715.273 207.399 714.727 208.449 714.727ZM208.449 718.213C210.031 718.213 211.095 717.373 211.095 716.085C211.095 714.797 210.031 713.943 208.449 713.943C206.867 713.943 205.789 714.797 205.789 716.085C205.789 717.373 206.867 718.213 208.449 718.213ZM214.273 719.109L213.279 719.109L213.279 719.571C213.279 720.495 212.663 721.769 211.431 722.455C210.255 721.811 209.639 720.663 209.639 719.571L209.639 719.109L208.659 719.109L208.659 719.571C208.659 720.733 207.679 722.035 206.111 722.581L206.587 723.351C207.805 722.903 208.687 722.049 209.149 721.055C209.499 722.091 210.255 723.001 211.459 723.463C212.635 722.973 213.391 722.021 213.769 721.027C214.189 722.063 215.085 722.917 216.345 723.351L216.821 722.581C215.267 722.077 214.273 720.803 214.273 719.571L214.273 719.109ZM221.51 719.753C220.25 719.753 219.382 718.381 219.382 716.309C219.382 714.251 220.25 712.879 221.51 712.879C222.756 712.879 223.638 714.251 223.638 716.309C223.638 718.381 222.756 719.753 221.51 719.753ZM227.432 710.975L227.432 715.791L224.59 715.791C224.436 713.439 223.204 711.969 221.51 711.969C219.69 711.969 218.416 713.663 218.416 716.309C218.416 718.955 219.69 720.663 221.51 720.663C223.246 720.663 224.492 719.109 224.59 716.645L227.432 716.645L227.432 723.519L228.454 723.519L228.454 710.975L227.432 710.975ZM234.907 717.989C235.453 718.115 236.069 718.199 236.713 718.199C237.371 718.199 238.001 718.115 238.547 717.975L238.547 721.013L234.907 721.013L234.907 717.989ZM233.157 715.007C233.157 713.579 234.655 712.627 236.713 712.627C238.771 712.627 240.269 713.579 240.269 715.007C240.269 716.421 238.771 717.373 236.713 717.373C234.655 717.373 233.157 716.421 233.157 715.007ZM239.555 721.013L239.555 717.583C240.605 717.023 241.235 716.141 241.235 715.007C241.235 713.061 239.359 711.801 236.713 711.801C234.067 711.801 232.177 713.061 232.177 715.007C232.177 716.141 232.821 717.037 233.885 717.583L233.885 721.013L231.043 721.013L231.043 721.867L242.425 721.867L242.425 721.013L239.555 721.013ZM245.056 722.665C245.532 722.665 245.924 722.301 245.924 721.769C245.924 721.209 245.532 720.845 245.056 720.845C244.594 720.845 244.202 721.209 244.202 721.769C244.202 722.301 244.594 722.665 245.056 722.665Z" fill="white"/>
<path d="M254.341 724.199C253.818 723.341 253.417 722.356 253.137 721.245C252.857 720.125 252.717 718.926 252.717 717.647C252.717 716.369 252.857 715.169 253.137 714.049C253.417 712.92 253.818 711.935 254.341 711.095L255.293 711.095C254.742 712.038 254.336 713.051 254.075 714.133C253.823 715.216 253.697 716.387 253.697 717.647C253.697 718.907 253.823 720.079 254.075 721.161C254.336 722.244 254.742 723.257 255.293 724.199L254.341 724.199ZM259.928 715.883C260.955 715.939 261.734 716.219 262.266 716.723C262.807 717.218 263.078 717.867 263.078 718.669C263.078 719.229 262.943 719.729 262.672 720.167C262.401 720.597 262 720.937 261.468 721.189C260.936 721.441 260.287 721.567 259.522 721.567C258.813 721.567 258.141 721.455 257.506 721.231C256.881 720.998 256.377 720.69 255.994 720.307L256.484 719.509C256.811 719.845 257.245 720.121 257.786 720.335C258.327 720.541 258.906 720.643 259.522 720.643C260.325 720.643 260.945 720.471 261.384 720.125C261.823 719.771 262.042 719.285 262.042 718.669C262.042 718.063 261.823 717.587 261.384 717.241C260.945 716.896 260.283 716.723 259.396 716.723L258.696 716.723L258.696 715.981L261.412 712.579L256.4 712.579L256.4 711.683L262.7 711.683L262.7 712.397L259.928 715.883ZM268.041 709.695L268.951 709.695L264.331 722.883L263.421 722.883L268.041 709.695ZM272.52 715.883C273.547 715.939 274.326 716.219 274.858 716.723C275.399 717.218 275.67 717.867 275.67 718.669C275.67 719.229 275.535 719.729 275.264 720.167C274.993 720.597 274.592 720.937 274.06 721.189C273.528 721.441 272.879 721.567 272.114 721.567C271.405 721.567 270.733 721.455 270.098 721.231C269.473 720.998 268.969 720.69 268.586 720.307L269.076 719.509C269.403 719.845 269.837 720.121 270.378 720.335C270.919 720.541 271.498 720.643 272.114 720.643C272.917 720.643 273.537 720.471 273.976 720.125C274.415 719.771 274.634 719.285 274.634 718.669C274.634 718.063 274.415 717.587 273.976 717.241C273.537 716.896 272.875 716.723 271.988 716.723L271.288 716.723L271.288 715.981L274.004 712.579L268.992 712.579L268.992 711.683L275.292 711.683L275.292 712.397L272.52 715.883ZM276.922 724.199C277.473 723.257 277.879 722.249 278.14 721.175C278.402 720.093 278.532 718.917 278.532 717.647C278.532 716.378 278.402 715.207 278.14 714.133C277.879 713.051 277.473 712.038 276.922 711.095L277.874 711.095C278.397 711.935 278.798 712.92 279.078 714.049C279.368 715.169 279.512 716.369 279.512 717.647C279.512 718.926 279.372 720.125 279.092 721.245C278.812 722.365 278.406 723.35 277.874 724.199L276.922 724.199Z" fill="white"/>
<rect x="128.115" y="740.483" width="240" height="48" fill="#F0F0F0"/>
<rect x="8.11523" y="740.483" width="120" height="48" fill="white"/>
<path d="M216.683 761.047L221.471 761.047L221.471 760.193L215.661 760.193L215.661 768.383L216.627 768.383C219.021 768.383 220.645 768.299 222.577 767.949L222.465 767.067C220.603 767.417 219.007 767.501 216.683 767.501L216.683 761.047ZM226.805 763.973L224.705 763.973L224.705 758.975L223.683 758.975L223.683 771.519L224.705 771.519L224.705 764.827L226.805 764.827L226.805 763.973ZM232.362 760.095L231.354 760.095L231.354 762.419C231.354 764.785 229.758 767.179 227.952 768.033L228.582 768.873C230.024 768.117 231.298 766.521 231.858 764.603C232.46 766.423 233.72 767.949 235.134 768.649L235.736 767.837C233.944 766.997 232.362 764.701 232.362 762.419L232.362 760.095ZM237.192 758.975L237.192 771.519L238.214 771.519L238.214 758.975L237.192 758.975ZM246.37 763.021L252.95 763.021L252.95 765.415L246.37 765.415L246.37 763.021ZM250.164 769.027L250.164 766.269L253.944 766.269L253.944 759.871L252.95 759.871L252.95 762.167L246.37 762.167L246.37 759.871L245.362 759.871L245.362 766.269L249.142 766.269L249.142 769.027L243.99 769.027L243.99 769.881L255.344 769.881L255.344 769.027L250.164 769.027ZM258.521 760.529L257.513 760.529L257.513 768.215L258.297 768.215C259.655 768.215 261.083 768.145 262.805 767.809L262.693 766.927C261.125 767.235 259.753 767.305 258.521 767.319L258.521 760.529ZM266.473 758.989L266.473 764.127L264.597 764.127L264.597 759.269L263.631 759.269L263.631 770.847L264.597 770.847L264.597 764.981L266.473 764.981L266.473 771.491L267.453 771.491L267.453 758.989L266.473 758.989ZM270.49 760.333L270.49 761.173L275.278 761.173C275.068 764.183 273.318 766.675 269.93 768.299L270.476 769.125C274.606 767.109 276.314 763.917 276.314 760.333L270.49 760.333ZM278.974 758.975L278.974 771.505L279.996 771.505L279.996 758.975L278.974 758.975Z" fill="#C8C8C8"/>
<path d="M44.3134 758.975L44.3134 771.519L45.3354 771.519L45.3354 758.975L44.3134 758.975ZM38.7554 759.969C36.9074 759.969 35.5914 761.663 35.5914 764.309C35.5914 766.955 36.9074 768.663 38.7554 768.663C40.6034 768.663 41.9194 766.955 41.9194 764.309C41.9194 761.663 40.6034 759.969 38.7554 759.969ZM38.7554 760.879C40.0294 760.879 40.9394 762.251 40.9394 764.309C40.9394 766.381 40.0294 767.753 38.7554 767.753C37.4814 767.753 36.5714 766.381 36.5714 764.309C36.5714 762.251 37.4814 760.879 38.7554 760.879ZM52.2363 767.277L49.4223 767.277L49.4223 761.285L52.2363 761.285L52.2363 767.277ZM55.1763 763.721L53.1883 763.721L53.1883 760.445L48.4563 760.445L48.4563 768.103L53.1883 768.103L53.1883 764.575L55.1763 764.575L55.1763 770.875L56.1423 770.875L56.1423 759.255L55.1763 759.255L55.1763 763.721ZM57.6263 758.975L57.6263 771.505L58.6063 771.505L58.6063 758.975L57.6263 758.975ZM71.1212 758.975L70.0992 758.975L70.0992 765.429L71.1212 765.429L71.1212 758.975ZM62.1752 762.209C62.1752 761.089 63.1132 760.291 64.3872 760.291C65.6752 760.291 66.6132 761.089 66.6132 762.209C66.6132 763.329 65.6752 764.127 64.3872 764.127C63.1132 764.127 62.1752 763.329 62.1752 762.209ZM67.6072 762.209C67.6072 760.585 66.2632 759.451 64.3872 759.451C62.5392 759.451 61.1812 760.585 61.1812 762.209C61.1812 763.847 62.5392 764.967 64.3872 764.967C66.2632 764.967 67.6072 763.847 67.6072 762.209ZM64.0932 770.497L64.0932 769.013L71.1212 769.013L71.1212 766.059L63.0572 766.059L63.0572 766.885L70.1132 766.885L70.1132 768.243L63.0852 768.243L63.0852 771.323L71.5692 771.323L71.5692 770.497L64.0932 770.497ZM86.1233 762.167L86.1233 764.015L83.0993 764.015L83.0993 762.167L86.1233 762.167ZM82.1053 765.261L78.5213 765.261L78.5213 762.895L82.1053 762.895L82.1053 765.261ZM83.0993 764.869L86.1233 764.869L86.1233 768.257L87.1453 768.257L87.1453 759.003L86.1233 759.003L86.1233 761.313L83.0993 761.313L83.0993 759.815L82.1053 759.815L82.1053 762.069L78.5213 762.069L78.5213 759.815L77.5133 759.815L77.5133 766.101L83.0993 766.101L83.0993 764.869ZM80.1593 770.371L80.1593 767.361L79.1373 767.361L79.1373 771.225L87.4533 771.225L87.4533 770.371L80.1593 770.371ZM99.0022 762.181L99.0022 763.959L95.6282 763.959L95.6282 764.813L99.0022 764.813L99.0022 766.535L100.024 766.535L100.024 758.989L99.0022 758.989L99.0022 761.341L96.0482 761.341C96.1462 760.907 96.2022 760.445 96.2022 759.941L90.5742 759.941L90.5742 760.795L95.0962 760.795C94.8862 763.035 92.9542 764.771 89.9442 765.667L90.3502 766.493C93.0242 765.681 94.9702 764.197 95.7822 762.181L99.0022 762.181ZM95.9642 770.623C94.0602 770.623 92.8422 770.035 92.8422 769.055C92.8422 768.089 94.0602 767.501 95.9642 767.501C97.8542 767.501 99.0722 768.089 99.0722 769.055C99.0722 770.035 97.8542 770.623 95.9642 770.623ZM95.9642 766.675C93.4302 766.675 91.8482 767.571 91.8482 769.055C91.8482 770.539 93.4302 771.449 95.9642 771.449C98.4982 771.449 100.08 770.539 100.08 769.055C100.08 767.571 98.4982 766.675 95.9642 766.675Z" fill="black"/>
</g>
</g>
<rect x="4" y="4" width="368" height="788" rx="44" stroke="#F5E6BE" stroke-width="8"/>
</g>
<defs>
<filter id="filter0_d" x="0" y="0" width="456" height="876" filterUnits="userSpaceOnUse" color-interpolation-filters="sRGB">
<feFlood flood-opacity="0" result="BackgroundImageFix"/>
<feColorMatrix in="SourceAlpha" type="matrix" values="0 0 0 0 0 0 0 0 0 0 0 0 0 0 0 0 0 0 127 0"/>
<feOffset dx="40" dy="40"/>
<feGaussianBlur stdDeviation="20"/>
<feColorMatrix type="matrix" values="0 0 0 0 0 0 0 0 0 0 0 0 0 0 0 0 0 0 0.08 0"/>
<feBlend mode="normal" in2="BackgroundImageFix" result="effect1_dropShadow"/>
<feBlend mode="normal" in="SourceGraphic" in2="effect1_dropShadow" result="shape"/>
</filter>
<clipPath id="clip0">
</clipPath>
<clipPath id="clip1">
<rect x="8.11523" y="8.4834" width="360" height="780" fill="white"/>
</clipPath>
</defs>
</svg>
