<svg width="496" height="916" viewBox="0 0 496 916" fill="none" xmlns="http://www.w3.org/2000/svg">
<g filter="url(#filter0_d)">
<rect x="68" y="8" width="360" height="780" rx="40" fill="#500096"/>
<rect x="68" y="8" width="360" height="780" rx="40" fill="white"/>
<rect x="68" y="8" width="360" height="296" fill="#500096"/>
<path d="M93.4615 42.7846L87 35.8923L93.4615 29" stroke="white" stroke-width="2" stroke-linecap="round" stroke-linejoin="round"/>
<path d="M87.8984 35.9265H101.001" stroke="white" stroke-width="2" stroke-linecap="round" stroke-linejoin="round"/>
<path d="M225.785 33.56V34.632H228.617V38.392H229.945V29.848H228.617V33.56H225.785ZM226.585 36.824C224.505 36.088 223.097 34.28 223.097 32.44V31.944H226.249V30.888H218.585V31.944H221.785V32.44C221.785 34.504 220.313 36.44 218.169 37.224L218.857 38.264C220.537 37.624 221.865 36.28 222.473 34.616C223.097 36.088 224.329 37.272 225.929 37.848L226.585 36.824ZM225.209 43.16C223.049 43.16 221.737 42.552 221.737 41.512C221.737 40.472 223.049 39.848 225.209 39.848C227.369 39.848 228.681 40.472 228.681 41.512C228.681 42.552 227.369 43.16 225.209 43.16ZM225.209 38.84C222.265 38.84 220.425 39.816 220.425 41.512C220.425 43.208 222.265 44.184 225.209 44.184C228.153 44.184 229.977 43.208 229.977 41.512C229.977 39.816 228.153 38.84 225.209 38.84ZM241.208 37.048C239.096 36.296 237.672 34.472 237.672 32.504V30.696H236.36V32.472C236.36 34.696 234.968 36.616 232.776 37.4L233.464 38.44C235.176 37.8 236.456 36.488 237.048 34.792C237.688 36.296 238.936 37.496 240.552 38.088L241.208 37.048ZM236.392 39.416H235.08V43.864H244.6V42.792H236.392V39.416ZM243.976 34.232V29.816H242.664V40.424H243.976V35.32H246.104V34.232H243.976ZM253.153 31.576H251.841V40.456H252.753C254.305 40.456 255.953 40.376 257.889 40.008L257.761 38.872C256.049 39.208 254.529 39.304 253.153 39.32V31.576ZM262.049 29.832V35.672H260.017V30.152H258.785V43.448H260.017V36.76H262.049V44.168H263.313V29.832H262.049ZM268.08 40.152H276.352V44.2H277.68V39.08H268.08V40.152ZM273.296 35.16C273.392 34.824 273.456 34.472 273.456 34.072C273.456 33.688 273.392 33.336 273.296 33H276.352V35.16H273.296ZM269.76 36.424C268.368 36.424 267.328 35.448 267.328 34.072C267.328 32.728 268.368 31.752 269.76 31.752C271.168 31.752 272.208 32.728 272.208 34.072C272.208 35.448 271.168 36.424 269.76 36.424ZM276.352 29.848V31.944H272.736C272.064 31.128 271.008 30.632 269.76 30.632C267.648 30.632 266.08 32.056 266.08 34.072C266.08 36.104 267.648 37.544 269.76 37.544C271.008 37.544 272.048 37.048 272.72 36.232H276.352V38.296H277.68V29.832L276.352 29.848Z" fill="white"/>
<g opacity="0.1" filter="url(#filter1_d)">
<rect x="84" y="124" width="328" height="80" rx="4" fill="black"/>
</g>
<path d="M102.32 152.88C103.693 153.013 104.74 153.44 105.46 154.16C106.18 154.867 106.54 155.773 106.54 156.88C106.54 157.68 106.34 158.407 105.94 159.06C105.54 159.7 104.94 160.213 104.14 160.6C103.353 160.973 102.387 161.16 101.24 161.16C100.24 161.16 99.28 161.013 98.36 160.72C97.44 160.413 96.6867 159.993 96.1 159.46L97.02 157.88C97.5 158.333 98.1133 158.7 98.86 158.98C99.6067 159.247 100.4 159.38 101.24 159.38C102.28 159.38 103.087 159.16 103.66 158.72C104.247 158.28 104.54 157.673 104.54 156.9C104.54 156.127 104.253 155.527 103.68 155.1C103.107 154.673 102.24 154.46 101.08 154.46H99.96V153.06L103.48 148.74H96.74V147H105.98V148.36L102.32 152.88ZM109.745 158.38C110.119 158.38 110.425 158.513 110.665 158.78C110.919 159.033 111.045 159.353 111.045 159.74C111.045 159.94 111.019 160.133 110.965 160.32C110.925 160.507 110.839 160.793 110.705 161.18L109.765 163.96H108.505L109.245 160.98C108.992 160.887 108.785 160.733 108.625 160.52C108.479 160.293 108.405 160.033 108.405 159.74C108.405 159.34 108.532 159.013 108.785 158.76C109.039 158.507 109.359 158.38 109.745 158.38ZM116.937 152.58C118.937 152.58 120.403 152.96 121.337 153.72C122.283 154.467 122.757 155.493 122.757 156.8C122.757 157.627 122.557 158.373 122.157 159.04C121.77 159.693 121.177 160.213 120.377 160.6C119.59 160.973 118.617 161.16 117.457 161.16C116.47 161.16 115.517 161.013 114.597 160.72C113.677 160.413 112.917 159.993 112.317 159.46L113.237 157.88C113.717 158.333 114.33 158.7 115.077 158.98C115.823 159.247 116.61 159.38 117.437 159.38C118.49 159.38 119.303 159.16 119.877 158.72C120.463 158.267 120.757 157.653 120.757 156.88C120.757 156.04 120.437 155.407 119.797 154.98C119.157 154.54 118.063 154.32 116.517 154.32H113.337L114.077 147H121.977V148.74H115.757L115.377 152.58H116.937ZM128.323 152.58C130.323 152.58 131.79 152.96 132.723 153.72C133.67 154.467 134.143 155.493 134.143 156.8C134.143 157.627 133.943 158.373 133.543 159.04C133.157 159.693 132.563 160.213 131.763 160.6C130.977 160.973 130.003 161.16 128.843 161.16C127.857 161.16 126.903 161.013 125.983 160.72C125.063 160.413 124.303 159.993 123.703 159.46L124.623 157.88C125.103 158.333 125.717 158.7 126.463 158.98C127.21 159.247 127.997 159.38 128.823 159.38C129.877 159.38 130.69 159.16 131.263 158.72C131.85 158.267 132.143 157.653 132.143 156.88C132.143 156.04 131.823 155.407 131.183 154.98C130.543 154.54 129.45 154.32 127.903 154.32H124.723L125.463 147H133.363V148.74H127.143L126.763 152.58H128.323ZM141.528 161.16C140.421 161.16 139.434 160.88 138.568 160.32C137.714 159.747 137.041 158.92 136.548 157.84C136.054 156.76 135.808 155.48 135.808 154C135.808 152.52 136.054 151.24 136.548 150.16C137.041 149.08 137.714 148.26 138.568 147.7C139.434 147.127 140.421 146.84 141.528 146.84C142.621 146.84 143.594 147.127 144.448 147.7C145.314 148.26 145.994 149.08 146.488 150.16C146.981 151.24 147.228 152.52 147.228 154C147.228 155.48 146.981 156.76 146.488 157.84C145.994 158.92 145.314 159.747 144.448 160.32C143.594 160.88 142.621 161.16 141.528 161.16ZM141.528 159.38C142.648 159.38 143.541 158.92 144.208 158C144.888 157.08 145.228 155.747 145.228 154C145.228 152.253 144.888 150.92 144.208 150C143.541 149.08 142.648 148.62 141.528 148.62C140.394 148.62 139.488 149.08 138.808 150C138.141 150.92 137.808 152.253 137.808 154C137.808 155.747 138.141 157.08 138.808 158C139.488 158.92 140.394 159.38 141.528 159.38ZM150.253 158.38C150.626 158.38 150.933 158.513 151.173 158.78C151.426 159.033 151.553 159.353 151.553 159.74C151.553 159.94 151.526 160.133 151.473 160.32C151.433 160.507 151.346 160.793 151.213 161.18L150.273 163.96H149.013L149.753 160.98C149.5 160.887 149.293 160.733 149.133 160.52C148.986 160.293 148.913 160.033 148.913 159.74C148.913 159.34 149.04 159.013 149.293 158.76C149.546 158.507 149.866 158.38 150.253 158.38ZM158.93 161.16C157.823 161.16 156.837 160.88 155.97 160.32C155.117 159.747 154.443 158.92 153.95 157.84C153.457 156.76 153.21 155.48 153.21 154C153.21 152.52 153.457 151.24 153.95 150.16C154.443 149.08 155.117 148.26 155.97 147.7C156.837 147.127 157.823 146.84 158.93 146.84C160.023 146.84 160.997 147.127 161.85 147.7C162.717 148.26 163.397 149.08 163.89 150.16C164.383 151.24 164.63 152.52 164.63 154C164.63 155.48 164.383 156.76 163.89 157.84C163.397 158.92 162.717 159.747 161.85 160.32C160.997 160.88 160.023 161.16 158.93 161.16ZM158.93 159.38C160.05 159.38 160.943 158.92 161.61 158C162.29 157.08 162.63 155.747 162.63 154C162.63 152.253 162.29 150.92 161.61 150C160.943 149.08 160.05 148.62 158.93 148.62C157.797 148.62 156.89 149.08 156.21 150C155.543 150.92 155.21 152.253 155.21 154C155.21 155.747 155.543 157.08 156.21 158C156.89 158.92 157.797 159.38 158.93 159.38ZM172.27 161.16C171.163 161.16 170.177 160.88 169.31 160.32C168.457 159.747 167.783 158.92 167.29 157.84C166.797 156.76 166.55 155.48 166.55 154C166.55 152.52 166.797 151.24 167.29 150.16C167.783 149.08 168.457 148.26 169.31 147.7C170.177 147.127 171.163 146.84 172.27 146.84C173.363 146.84 174.337 147.127 175.19 147.7C176.057 148.26 176.737 149.08 177.23 150.16C177.723 151.24 177.97 152.52 177.97 154C177.97 155.48 177.723 156.76 177.23 157.84C176.737 158.92 176.057 159.747 175.19 160.32C174.337 160.88 173.363 161.16 172.27 161.16ZM172.27 159.38C173.39 159.38 174.283 158.92 174.95 158C175.63 157.08 175.97 155.747 175.97 154C175.97 152.253 175.63 150.92 174.95 150C174.283 149.08 173.39 148.62 172.27 148.62C171.137 148.62 170.23 149.08 169.55 150C168.883 150.92 168.55 152.253 168.55 154C168.55 155.747 168.883 157.08 169.55 158C170.23 158.92 171.137 159.38 172.27 159.38ZM185.61 161.16C184.503 161.16 183.516 160.88 182.65 160.32C181.796 159.747 181.123 158.92 180.63 157.84C180.136 156.76 179.89 155.48 179.89 154C179.89 152.52 180.136 151.24 180.63 150.16C181.123 149.08 181.796 148.26 182.65 147.7C183.516 147.127 184.503 146.84 185.61 146.84C186.703 146.84 187.676 147.127 188.53 147.7C189.396 148.26 190.076 149.08 190.57 150.16C191.063 151.24 191.31 152.52 191.31 154C191.31 155.48 191.063 156.76 190.57 157.84C190.076 158.92 189.396 159.747 188.53 160.32C187.676 160.88 186.703 161.16 185.61 161.16ZM185.61 159.38C186.73 159.38 187.623 158.92 188.29 158C188.97 157.08 189.31 155.747 189.31 154C189.31 152.253 188.97 150.92 188.29 150C187.623 149.08 186.73 148.62 185.61 148.62C184.476 148.62 183.57 149.08 182.89 150C182.223 150.92 181.89 152.253 181.89 154C181.89 155.747 182.223 157.08 182.89 158C183.57 158.92 184.476 159.38 185.61 159.38Z" fill="white"/>
<path opacity="0.6" d="M97.63 180.06V177.69H101.13V174.68H97.07V175.14H100.61V177.24H97.1V180.51H97.81C99.27 180.51 100.64 180.45 102.34 180.18L102.29 179.73C100.61 179.99 99.24 180.06 97.81 180.06H97.63ZM103.25 173.82V182.71H103.78V173.82H103.25ZM113.339 178.43C112.079 178.18 110.029 176.84 110.029 175.2V174.49H109.479V175.2C109.479 176.85 107.459 178.17 106.189 178.43L106.439 178.88C107.619 178.57 109.209 177.59 109.759 176.2C110.309 177.59 111.919 178.58 113.089 178.88L113.339 178.43ZM105.759 180.98V181.43H113.819V180.98H105.759ZM122.518 177.36C121.188 177.15 119.258 176.09 119.258 174.72V174.16H118.708V174.72C118.708 176.12 116.808 177.14 115.458 177.36L115.668 177.8C116.928 177.55 118.458 176.77 118.988 175.58C119.518 176.76 121.058 177.55 122.298 177.8L122.518 177.36ZM123.018 179H114.958V179.44H117.138V182.78H117.668V179.44H120.308V182.78H120.838V179.44H123.018V179ZM131.288 177.7H125.808V176.38H130.958V175.94H125.808V174.71H131.178V174.27H125.278V178.14H131.288V177.7ZM132.218 179.24H124.158V179.69H126.388V182.7H126.918V179.69H129.438V182.7H129.968V179.69H132.218V179.24ZM134.487 179.98V175.16H138.097V174.69H133.957V180.45H134.647C136.367 180.45 137.537 180.38 138.997 180.12L138.927 179.66C137.517 179.92 136.337 179.98 134.647 179.98H134.487ZM140.037 173.82V182.71H140.567V173.82H140.037ZM143.896 176.73C143.896 175.66 145.036 174.91 146.566 174.91C148.106 174.91 149.246 175.66 149.246 176.73C149.246 177.8 148.106 178.55 146.566 178.55C145.036 178.55 143.896 177.8 143.896 176.73ZM146.836 181.05V178.97C148.556 178.89 149.746 178.03 149.746 176.73C149.746 175.36 148.426 174.48 146.566 174.48C144.716 174.48 143.396 175.36 143.396 176.73C143.396 178.03 144.586 178.89 146.306 178.97V181.05H142.556V181.5H150.616V181.05H146.836ZM151.295 183.77H151.765L155.065 174.14H154.585L151.295 183.77ZM162.921 173.83H162.391V180.36H162.921V173.83ZM160.981 178.43C159.751 177.94 158.671 176.68 158.671 175.24V174.32H158.151V175.24C158.151 176.74 157.111 178.07 155.861 178.6L156.161 179.03C157.181 178.57 158.061 177.61 158.421 176.41C158.791 177.54 159.681 178.43 160.701 178.85L160.981 178.43ZM157.871 182.03V179.77H157.341V182.48H163.221V182.03H157.871ZM170.19 175H167.83V173.83H167.3V175H164.93V175.44H170.19V175ZM165.96 177.66C165.96 176.95 166.61 176.46 167.56 176.46C168.51 176.46 169.15 176.95 169.15 177.66C169.15 178.35 168.51 178.85 167.56 178.85C166.61 178.85 165.96 178.35 165.96 177.66ZM169.65 177.66C169.65 176.67 168.82 176.03 167.56 176.03C166.3 176.03 165.46 176.67 165.46 177.66C165.46 178.64 166.3 179.28 167.56 179.28C168.82 179.28 169.65 178.64 169.65 177.66ZM166.85 179.95H166.32V182.48H172.18V182.03H166.85V179.95ZM171.74 176.87V173.83H171.21V180.5H171.74V177.32H173.13V176.87H171.74ZM176.239 182.13C177.539 182.13 178.419 181.31 178.419 180.28C178.419 179.28 177.799 178.75 177.179 178.38V178.33C177.589 178 178.179 177.31 178.179 176.52C178.179 175.42 177.459 174.61 176.249 174.61C175.189 174.61 174.369 175.35 174.369 176.41C174.369 177.18 174.849 177.72 175.369 178.07V178.11C174.699 178.48 173.979 179.19 173.979 180.19C173.979 181.3 174.929 182.13 176.239 182.13ZM176.749 178.17C175.839 177.81 174.929 177.4 174.929 176.41C174.929 175.64 175.479 175.08 176.239 175.08C177.129 175.08 177.639 175.75 177.639 176.54C177.639 177.14 177.329 177.69 176.749 178.17ZM176.239 181.66C175.249 181.66 174.529 181.01 174.529 180.16C174.529 179.37 175.029 178.74 175.719 178.33C176.819 178.76 177.839 179.16 177.839 180.27C177.839 181.05 177.209 181.66 176.239 181.66ZM181.381 178.73C180.371 178.73 179.921 177.96 179.921 176.91C179.921 175.85 180.511 175.06 181.301 175.06C182.441 175.06 183.021 176.07 183.081 177.66C182.531 178.42 181.921 178.73 181.381 178.73ZM179.491 181.43C179.881 181.84 180.391 182.13 181.101 182.13C182.431 182.13 183.661 181.03 183.661 177.96C183.661 175.76 182.721 174.58 181.311 174.58C180.251 174.58 179.341 175.54 179.341 176.91C179.341 178.39 180.091 179.2 181.311 179.2C181.991 179.2 182.611 178.81 183.091 178.23C183.031 180.75 182.121 181.63 181.111 181.63C180.611 181.63 180.171 181.43 179.841 181.05L179.491 181.43ZM186.282 182H186.912C187.022 179.15 187.382 177.33 189.112 175.06V174.71H184.712V175.22H188.402C186.952 177.24 186.402 179.09 186.282 182ZM192.164 182.13C193.404 182.13 194.364 181.34 194.364 180.07C194.364 179.04 193.644 178.38 192.764 178.19V178.14C193.544 177.88 194.104 177.28 194.104 176.34C194.104 175.21 193.254 174.58 192.134 174.57C191.304 174.58 190.684 174.96 190.184 175.43L190.524 175.83C190.924 175.4 191.494 175.07 192.124 175.06C192.964 175.07 193.504 175.59 193.504 176.38C193.504 177.25 192.944 177.94 191.344 177.94V178.43C193.084 178.43 193.764 179.09 193.764 180.07C193.764 181.01 193.084 181.63 192.144 181.63C191.214 181.63 190.644 181.19 190.224 180.74L189.894 181.13C190.354 181.62 191.034 182.13 192.164 182.13ZM197.616 182.13C198.936 182.13 199.756 180.89 199.756 178.33C199.756 175.8 198.936 174.58 197.616 174.58C196.286 174.58 195.466 175.8 195.466 178.33C195.466 180.89 196.286 182.13 197.616 182.13ZM197.616 181.64C196.666 181.64 196.046 180.54 196.046 178.33C196.046 176.16 196.666 175.07 197.616 175.07C198.556 175.07 199.176 176.16 199.176 178.33C199.176 180.54 198.556 181.64 197.616 181.64ZM200.737 182H205.127V181.48H202.857C202.477 181.48 202.057 181.51 201.657 181.54C203.597 179.73 204.777 178.2 204.777 176.67C204.777 175.41 204.027 174.58 202.757 174.58C201.877 174.58 201.257 175.02 200.707 175.63L201.077 175.98C201.497 175.46 202.067 175.07 202.697 175.07C203.727 175.07 204.187 175.78 204.187 176.69C204.187 178.01 203.207 179.51 200.737 181.64V182ZM206.089 182H210.479V181.48H208.209C207.829 181.48 207.409 181.51 207.009 181.54C208.949 179.73 210.129 178.2 210.129 176.67C210.129 175.41 209.379 174.58 208.109 174.58C207.229 174.58 206.609 175.02 206.059 175.63L206.429 175.98C206.849 175.46 207.419 175.07 208.049 175.07C209.079 175.07 209.539 175.78 209.539 176.69C209.539 178.01 208.559 179.51 206.089 181.64V182ZM213.93 181.64C212.82 181.64 212.25 180.62 212.16 179.02C212.72 178.26 213.35 177.98 213.83 177.98C214.87 177.98 215.31 178.74 215.31 179.8C215.31 180.86 214.72 181.64 213.93 181.64ZM215.75 175.28C215.37 174.86 214.88 174.58 214.2 174.58C212.83 174.58 211.58 175.62 211.58 178.56C211.58 180.88 212.51 182.13 213.92 182.13C214.98 182.13 215.89 181.17 215.89 179.8C215.89 178.3 215.15 177.51 213.91 177.51C213.27 177.51 212.63 177.87 212.15 178.46C212.18 175.95 213.11 175.08 214.21 175.08C214.66 175.08 215.09 175.28 215.4 175.66L215.75 175.28ZM217.262 182H221.022V181.49H219.502V174.71H219.032C218.682 174.91 218.232 175.07 217.642 175.17V175.56H218.912V181.49H217.262V182ZM222.613 182H226.373V181.49H224.853V174.71H224.383C224.033 174.91 223.583 175.07 222.993 175.17V175.56H224.263V181.49H222.613V182ZM229.725 182.13C231.045 182.13 231.865 180.89 231.865 178.33C231.865 175.8 231.045 174.58 229.725 174.58C228.395 174.58 227.575 175.8 227.575 178.33C227.575 180.89 228.395 182.13 229.725 182.13ZM229.725 181.64C228.775 181.64 228.155 180.54 228.155 178.33C228.155 176.16 228.775 175.07 229.725 175.07C230.665 175.07 231.285 176.16 231.285 178.33C231.285 180.54 230.665 181.64 229.725 181.64Z" fill="white"/>
<path d="M200.31 156.71L198.88 158.16V160H198.14V153H198.88V157.23L202.99 153H203.84L200.81 156.17L204.05 160H203.17L200.31 156.71ZM210.029 160L208.429 157.75C208.249 157.77 208.063 157.78 207.869 157.78H205.989V160H205.249V153H207.869C208.763 153 209.463 153.213 209.969 153.64C210.476 154.067 210.729 154.653 210.729 155.4C210.729 155.947 210.589 156.41 210.309 156.79C210.036 157.163 209.643 157.433 209.129 157.6L210.839 160H210.029ZM207.849 157.15C208.543 157.15 209.073 156.997 209.439 156.69C209.806 156.383 209.989 155.953 209.989 155.4C209.989 154.833 209.806 154.4 209.439 154.1C209.073 153.793 208.543 153.64 207.849 153.64H205.989V157.15H207.849ZM222.086 153L219.726 160H218.946L216.896 154.03L214.836 160H214.066L211.706 153H212.466L214.486 159.02L216.576 153H217.266L219.326 159.05L221.376 153H222.086Z" fill="white"/>
<rect opacity="0.203683" x="241" y="168" width="56" height="20" rx="4" fill="black"/>
<path opacity="0.6" d="M255.922 176.1V176.77H257.692V179.12H258.522V173.78H257.692V176.1H255.922ZM256.422 178.14C255.122 177.68 254.242 176.55 254.242 175.4V175.09H256.212V174.43H251.422V175.09H253.422V175.4C253.422 176.69 252.502 177.9 251.162 178.39L251.592 179.04C252.642 178.64 253.472 177.8 253.852 176.76C254.242 177.68 255.012 178.42 256.012 178.78L256.422 178.14ZM255.562 182.1C254.212 182.1 253.392 181.72 253.392 181.07C253.392 180.42 254.212 180.03 255.562 180.03C256.912 180.03 257.732 180.42 257.732 181.07C257.732 181.72 256.912 182.1 255.562 182.1ZM255.562 179.4C253.722 179.4 252.572 180.01 252.572 181.07C252.572 182.13 253.722 182.74 255.562 182.74C257.402 182.74 258.542 182.13 258.542 181.07C258.542 180.01 257.402 179.4 255.562 179.4ZM262.101 176.68H266.681V178.33H262.101V176.68ZM264.801 180.92V178.99H267.481V174.41H266.681V176.01H262.101V174.41H261.291V178.99H263.971V180.92H260.331V181.59H268.461V180.92H264.801ZM274.24 177.6C274.47 176.42 274.47 175.53 274.47 174.94V174.47H270.01V175.14H273.67C273.67 175.71 273.64 176.48 273.43 177.51L274.24 177.6ZM275.09 178.14C274.18 178.27 273.16 178.34 272.18 178.38V176.47H271.37V178.41C270.69 178.42 270.04 178.43 269.47 178.43L269.55 179.1C271.14 179.1 273.29 179.05 275.15 178.74L275.09 178.14ZM271.66 179.91H270.84V182.54H276.8V181.87H271.66V179.91ZM276.51 176.69V173.77H275.69V180.53H276.51V177.37H277.8V176.69H276.51ZM280.069 177.81H283.379V174.6H279.219V175.27H282.549V177.14H279.249V180.58H279.989C281.529 180.58 282.889 180.52 284.509 180.25L284.429 179.58C282.859 179.83 281.539 179.9 280.069 179.9V177.81ZM285.269 173.76V182.75H286.089V173.76H285.269Z" fill="white"/>
<path opacity="0.6" d="M352.306 161.92V162.724H354.43V165.544H355.426V159.136H354.43V161.92H352.306ZM352.906 164.368C351.346 163.816 350.29 162.46 350.29 161.08V160.708H352.654V159.916H346.906V160.708H349.306V161.08C349.306 162.628 348.202 164.08 346.594 164.668L347.11 165.448C348.37 164.968 349.366 163.96 349.822 162.712C350.29 163.816 351.214 164.704 352.414 165.136L352.906 164.368ZM351.874 169.12C350.254 169.12 349.27 168.664 349.27 167.884C349.27 167.104 350.254 166.636 351.874 166.636C353.494 166.636 354.478 167.104 354.478 167.884C354.478 168.664 353.494 169.12 351.874 169.12ZM351.874 165.88C349.666 165.88 348.286 166.612 348.286 167.884C348.286 169.156 349.666 169.888 351.874 169.888C354.082 169.888 355.45 169.156 355.45 167.884C355.45 166.612 354.082 165.88 351.874 165.88ZM363.873 164.536C362.289 163.972 361.221 162.604 361.221 161.128V159.772H360.237V161.104C360.237 162.772 359.193 164.212 357.549 164.8L358.065 165.58C359.349 165.1 360.309 164.116 360.753 162.844C361.233 163.972 362.169 164.872 363.381 165.316L363.873 164.536ZM360.261 166.312H359.277V169.648H366.417V168.844H360.261V166.312ZM365.949 162.424V159.112H364.965V167.068H365.949V163.24H367.545V162.424H365.949ZM373.268 165.004C373.328 164.62 373.364 164.224 373.364 163.768C373.364 163.312 373.328 162.916 373.268 162.532H374.732V165.004H373.268ZM371.06 166.612C370.208 166.612 369.656 165.52 369.656 163.768C369.656 162.028 370.208 160.936 371.06 160.936C371.924 160.936 372.464 162.028 372.464 163.768C372.464 165.52 371.924 166.612 371.06 166.612ZM374.732 161.728H373.064C372.692 160.648 371.996 160.024 371.06 160.024C369.668 160.024 368.768 161.464 368.768 163.768C368.768 166.084 369.668 167.524 371.06 167.524C371.996 167.524 372.68 166.9 373.064 165.82H374.732V169.36H375.668V159.364H374.732V161.728ZM376.844 159.124V169.888H377.78V159.124H376.844ZM385.423 161.92V162.724H387.547V165.544H388.543V159.136H387.547V161.92H385.423ZM386.023 164.368C384.463 163.816 383.407 162.46 383.407 161.08V160.708H385.771V159.916H380.023V160.708H382.423V161.08C382.423 162.628 381.319 164.08 379.711 164.668L380.227 165.448C381.487 164.968 382.483 163.96 382.939 162.712C383.407 163.816 384.331 164.704 385.531 165.136L386.023 164.368ZM384.991 169.12C383.371 169.12 382.387 168.664 382.387 167.884C382.387 167.104 383.371 166.636 384.991 166.636C386.611 166.636 387.595 167.104 387.595 167.884C387.595 168.664 386.611 169.12 384.991 169.12ZM384.991 165.88C382.783 165.88 381.403 166.612 381.403 167.884C381.403 169.156 382.783 169.888 384.991 169.888C387.199 169.888 388.567 169.156 388.567 167.884C388.567 166.612 387.199 165.88 384.991 165.88Z" fill="white"/>
<path d="M91.966 105.42C90.426 105.756 89.068 105.826 86.646 105.84V102.522H90.832V101.346H85.204V107.016H86.226C88.97 107.016 90.468 106.932 92.12 106.596L91.966 105.42ZM90.51 111.916C88.76 111.916 87.724 111.44 87.724 110.586C87.724 109.732 88.76 109.27 90.51 109.27C92.26 109.27 93.296 109.732 93.296 110.586C93.296 111.44 92.26 111.916 90.51 111.916ZM90.51 108.108C87.92 108.108 86.296 109.046 86.296 110.586C86.296 112.14 87.92 113.092 90.51 113.092C93.1 113.092 94.724 112.14 94.724 110.586C94.724 109.046 93.1 108.108 90.51 108.108ZM94.612 103.586V100.436H93.142V107.856H94.612V104.776H96.376V103.586H94.612ZM104.243 106.372V107.268H106.623V107.814H108.065V100.436H106.623V106.372H104.243ZM101.625 101.626C102.703 101.626 103.403 101.962 103.403 102.55C103.403 103.138 102.703 103.474 101.625 103.474C100.533 103.474 99.8329 103.138 99.8329 102.55C99.8329 101.962 100.533 101.626 101.625 101.626ZM101.625 104.44C103.501 104.44 104.761 103.712 104.761 102.55C104.761 101.388 103.501 100.66 101.625 100.66C99.7349 100.66 98.4749 101.388 98.4749 102.55C98.4749 103.712 99.7349 104.44 101.625 104.44ZM100.827 107.856H102.283V105.994C103.459 105.938 104.663 105.84 105.825 105.672L105.727 104.762C103.053 105.042 100.001 105.056 97.5649 105.056L97.7329 106.092C98.6849 106.092 99.7349 106.092 100.827 106.05V107.856ZM100.883 111.944V111.02H108.065V108.262H99.4269V109.256H106.637V110.096H99.4549V112.966H108.429V111.944H100.883ZM120.406 103.614V104.79H122.646V107.968H124.088V100.436H122.646V103.614H120.406ZM121.134 106.428C119.244 105.77 118.166 104.202 118.166 102.62V102.452H120.798V101.29H114.036V102.452H116.71V102.634C116.71 104.37 115.576 106.05 113.616 106.75L114.358 107.898C115.856 107.366 116.92 106.246 117.48 104.86C118.012 106.078 119.02 107.072 120.42 107.562L121.134 106.428ZM119.888 111.972C118.082 111.972 117.06 111.524 117.06 110.698C117.06 109.872 118.082 109.424 119.888 109.424C121.666 109.424 122.702 109.872 122.702 110.698C122.702 111.524 121.666 111.972 119.888 111.972ZM119.888 108.304C117.242 108.304 115.618 109.2 115.618 110.698C115.618 112.21 117.242 113.092 119.888 113.092C122.52 113.092 124.144 112.21 124.144 110.698C124.144 109.2 122.52 108.304 119.888 108.304ZM133.943 106.624C132.025 105.966 130.933 104.37 130.933 102.69V101.206H129.477V102.676C129.477 104.524 128.399 106.232 126.369 106.918L127.153 108.038C128.637 107.506 129.687 106.428 130.233 105.042C130.793 106.274 131.815 107.282 133.215 107.772L133.943 106.624ZM129.827 108.85H128.385V112.84H136.869V111.664H129.827V108.85ZM136.365 104.216V100.422H134.923V109.746H136.365V105.406H138.157V104.216H136.365ZM147.979 107.254C148.049 106.834 148.077 106.4 148.077 105.91C148.077 105.42 148.049 104.972 147.979 104.552H149.435V107.254H147.979ZM145.361 109.032C144.493 109.032 143.947 107.912 143.947 105.91C143.947 103.908 144.493 102.774 145.361 102.774C146.229 102.774 146.775 103.908 146.775 105.91C146.775 107.912 146.229 109.032 145.361 109.032ZM149.435 103.362H147.685C147.251 102.116 146.411 101.416 145.361 101.416C143.723 101.416 142.645 103.124 142.645 105.91C142.645 108.682 143.723 110.39 145.361 110.39C146.425 110.39 147.251 109.662 147.699 108.43H149.435V112.476H150.779V100.674H149.435V103.362ZM151.941 100.436V113.064H153.313V100.436H151.941ZM162.188 103.614V104.79H164.428V107.968H165.87V100.436H164.428V103.614H162.188ZM162.916 106.428C161.026 105.77 159.948 104.202 159.948 102.62V102.452H162.58V101.29H155.818V102.452H158.492V102.634C158.492 104.37 157.358 106.05 155.398 106.75L156.14 107.898C157.638 107.366 158.702 106.246 159.262 104.86C159.794 106.078 160.802 107.072 162.202 107.562L162.916 106.428ZM161.67 111.972C159.864 111.972 158.842 111.524 158.842 110.698C158.842 109.872 159.864 109.424 161.67 109.424C163.448 109.424 164.484 109.872 164.484 110.698C164.484 111.524 163.448 111.972 161.67 111.972ZM161.67 108.304C159.024 108.304 157.4 109.2 157.4 110.698C157.4 112.21 159.024 113.092 161.67 113.092C164.302 113.092 165.926 112.21 165.926 110.698C165.926 109.2 164.302 108.304 161.67 108.304Z" fill="white"/>
<rect x="68" y="304" width="360" height="484" fill="#FAFAFA"/>
<g filter="url(#filter2_d)">
<rect x="84" y="212" width="328" height="108" rx="4" fill="white"/>
</g>
<path d="M343.651 248.6V257H342.787V249.368H340.807V248.6H343.651ZM346.319 255.752C346.503 255.752 346.655 255.816 346.775 255.944C346.895 256.064 346.955 256.216 346.955 256.4C346.955 256.496 346.939 256.6 346.907 256.712C346.883 256.824 346.843 256.952 346.787 257.096L346.283 258.752H345.707L346.115 257.012C345.987 256.972 345.883 256.9 345.803 256.796C345.723 256.684 345.683 256.552 345.683 256.4C345.683 256.216 345.743 256.064 345.863 255.944C345.983 255.816 346.135 255.752 346.319 255.752ZM353.99 248.6V249.212L350.474 257H349.538L352.994 249.368H348.674V250.94H347.822V248.6H353.99ZM359.717 252.596C360.245 252.772 360.649 253.036 360.929 253.388C361.217 253.74 361.361 254.164 361.361 254.66C361.361 255.148 361.229 255.576 360.965 255.944C360.701 256.304 360.321 256.584 359.825 256.784C359.337 256.976 358.761 257.072 358.097 257.072C357.089 257.072 356.297 256.856 355.721 256.424C355.145 255.992 354.857 255.404 354.857 254.66C354.857 254.156 354.993 253.732 355.265 253.388C355.545 253.036 355.949 252.772 356.477 252.596C356.045 252.428 355.717 252.188 355.493 251.876C355.269 251.556 355.157 251.18 355.157 250.748C355.157 250.068 355.421 249.528 355.949 249.128C356.485 248.728 357.201 248.528 358.097 248.528C358.689 248.528 359.205 248.62 359.645 248.804C360.093 248.98 360.441 249.236 360.689 249.572C360.937 249.908 361.061 250.3 361.061 250.748C361.061 251.18 360.945 251.556 360.713 251.876C360.481 252.188 360.149 252.428 359.717 252.596ZM356.021 250.772C356.021 251.236 356.205 251.604 356.573 251.876C356.941 252.148 357.449 252.284 358.097 252.284C358.745 252.284 359.253 252.148 359.621 251.876C359.997 251.604 360.185 251.24 360.185 250.784C360.185 250.312 359.993 249.94 359.609 249.668C359.233 249.396 358.729 249.26 358.097 249.26C357.457 249.26 356.949 249.396 356.573 249.668C356.205 249.94 356.021 250.308 356.021 250.772ZM358.097 256.34C358.841 256.34 359.421 256.188 359.837 255.884C360.261 255.58 360.473 255.168 360.473 254.648C360.473 254.128 360.261 253.72 359.837 253.424C359.421 253.12 358.841 252.968 358.097 252.968C357.361 252.968 356.781 253.12 356.357 253.424C355.941 253.72 355.733 254.128 355.733 254.648C355.733 255.176 355.941 255.592 356.357 255.896C356.773 256.192 357.353 256.34 358.097 256.34ZM365.906 257.072C365.258 257.072 364.678 256.9 364.166 256.556C363.662 256.212 363.266 255.72 362.978 255.08C362.698 254.432 362.558 253.672 362.558 252.8C362.558 251.928 362.698 251.172 362.978 250.532C363.266 249.884 363.662 249.388 364.166 249.044C364.678 248.7 365.258 248.528 365.906 248.528C366.554 248.528 367.13 248.7 367.634 249.044C368.146 249.388 368.546 249.884 368.834 250.532C369.122 251.172 369.266 251.928 369.266 252.8C369.266 253.672 369.122 254.432 368.834 255.08C368.546 255.72 368.146 256.212 367.634 256.556C367.13 256.9 366.554 257.072 365.906 257.072ZM365.906 256.28C366.394 256.28 366.822 256.144 367.19 255.872C367.566 255.6 367.858 255.204 368.066 254.684C368.274 254.164 368.378 253.536 368.378 252.8C368.378 252.064 368.274 251.436 368.066 250.916C367.858 250.396 367.566 250 367.19 249.728C366.822 249.456 366.394 249.32 365.906 249.32C365.418 249.32 364.986 249.456 364.61 249.728C364.242 250 363.954 250.396 363.746 250.916C363.538 251.436 363.434 252.064 363.434 252.8C363.434 253.536 363.538 254.164 363.746 254.684C363.954 255.204 364.242 255.6 364.61 255.872C364.986 256.144 365.418 256.28 365.906 256.28ZM371.034 255.752C371.218 255.752 371.37 255.816 371.49 255.944C371.61 256.064 371.67 256.216 371.67 256.4C371.67 256.496 371.654 256.6 371.622 256.712C371.598 256.824 371.558 256.952 371.502 257.096L370.998 258.752H370.422L370.83 257.012C370.702 256.972 370.598 256.9 370.518 256.796C370.438 256.684 370.398 256.552 370.398 256.4C370.398 256.216 370.458 256.064 370.578 255.944C370.698 255.816 370.85 255.752 371.034 255.752ZM376.136 257.072C375.488 257.072 374.908 256.9 374.396 256.556C373.892 256.212 373.496 255.72 373.208 255.08C372.928 254.432 372.788 253.672 372.788 252.8C372.788 251.928 372.928 251.172 373.208 250.532C373.496 249.884 373.892 249.388 374.396 249.044C374.908 248.7 375.488 248.528 376.136 248.528C376.784 248.528 377.36 248.7 377.864 249.044C378.376 249.388 378.776 249.884 379.064 250.532C379.352 251.172 379.496 251.928 379.496 252.8C379.496 253.672 379.352 254.432 379.064 255.08C378.776 255.72 378.376 256.212 377.864 256.556C377.36 256.9 376.784 257.072 376.136 257.072ZM376.136 256.28C376.624 256.28 377.052 256.144 377.42 255.872C377.796 255.6 378.088 255.204 378.296 254.684C378.504 254.164 378.608 253.536 378.608 252.8C378.608 252.064 378.504 251.436 378.296 250.916C378.088 250.396 377.796 250 377.42 249.728C377.052 249.456 376.624 249.32 376.136 249.32C375.648 249.32 375.216 249.456 374.84 249.728C374.472 250 374.184 250.396 373.976 250.916C373.768 251.436 373.664 252.064 373.664 252.8C373.664 253.536 373.768 254.164 373.976 254.684C374.184 255.204 374.472 255.6 374.84 255.872C375.216 256.144 375.648 256.28 376.136 256.28ZM384.081 257.072C383.433 257.072 382.853 256.9 382.341 256.556C381.837 256.212 381.441 255.72 381.153 255.08C380.873 254.432 380.733 253.672 380.733 252.8C380.733 251.928 380.873 251.172 381.153 250.532C381.441 249.884 381.837 249.388 382.341 249.044C382.853 248.7 383.433 248.528 384.081 248.528C384.729 248.528 385.305 248.7 385.809 249.044C386.321 249.388 386.721 249.884 387.009 250.532C387.297 251.172 387.441 251.928 387.441 252.8C387.441 253.672 387.297 254.432 387.009 255.08C386.721 255.72 386.321 256.212 385.809 256.556C385.305 256.9 384.729 257.072 384.081 257.072ZM384.081 256.28C384.569 256.28 384.997 256.144 385.365 255.872C385.741 255.6 386.033 255.204 386.241 254.684C386.449 254.164 386.553 253.536 386.553 252.8C386.553 252.064 386.449 251.436 386.241 250.916C386.033 250.396 385.741 250 385.365 249.728C384.997 249.456 384.569 249.32 384.081 249.32C383.593 249.32 383.161 249.456 382.785 249.728C382.417 250 382.129 250.396 381.921 250.916C381.713 251.436 381.609 252.064 381.609 252.8C381.609 253.536 381.713 254.164 381.921 254.684C382.129 255.204 382.417 255.6 382.785 255.872C383.161 256.144 383.593 256.28 384.081 256.28ZM392.027 257.072C391.379 257.072 390.799 256.9 390.287 256.556C389.783 256.212 389.387 255.72 389.099 255.08C388.819 254.432 388.679 253.672 388.679 252.8C388.679 251.928 388.819 251.172 389.099 250.532C389.387 249.884 389.783 249.388 390.287 249.044C390.799 248.7 391.379 248.528 392.027 248.528C392.675 248.528 393.251 248.7 393.755 249.044C394.267 249.388 394.667 249.884 394.955 250.532C395.243 251.172 395.387 251.928 395.387 252.8C395.387 253.672 395.243 254.432 394.955 255.08C394.667 255.72 394.267 256.212 393.755 256.556C393.251 256.9 392.675 257.072 392.027 257.072ZM392.027 256.28C392.515 256.28 392.943 256.144 393.311 255.872C393.687 255.6 393.979 255.204 394.187 254.684C394.395 254.164 394.499 253.536 394.499 252.8C394.499 252.064 394.395 251.436 394.187 250.916C393.979 250.396 393.687 250 393.311 249.728C392.943 249.456 392.515 249.32 392.027 249.32C391.539 249.32 391.107 249.456 390.731 249.728C390.363 250 390.075 250.396 389.867 250.916C389.659 251.436 389.555 252.064 389.555 252.8C389.555 253.536 389.659 254.164 389.867 254.684C390.075 255.204 390.363 255.6 390.731 255.872C391.107 256.144 391.539 256.28 392.027 256.28Z" fill="black"/>
<path d="M392.027 281.072C391.379 281.072 390.799 280.9 390.287 280.556C389.783 280.212 389.387 279.72 389.099 279.08C388.819 278.432 388.679 277.672 388.679 276.8C388.679 275.928 388.819 275.172 389.099 274.532C389.387 273.884 389.783 273.388 390.287 273.044C390.799 272.7 391.379 272.528 392.027 272.528C392.675 272.528 393.251 272.7 393.755 273.044C394.267 273.388 394.667 273.884 394.955 274.532C395.243 275.172 395.387 275.928 395.387 276.8C395.387 277.672 395.243 278.432 394.955 279.08C394.667 279.72 394.267 280.212 393.755 280.556C393.251 280.9 392.675 281.072 392.027 281.072ZM392.027 280.28C392.515 280.28 392.943 280.144 393.311 279.872C393.687 279.6 393.979 279.204 394.187 278.684C394.395 278.164 394.499 277.536 394.499 276.8C394.499 276.064 394.395 275.436 394.187 274.916C393.979 274.396 393.687 274 393.311 273.728C392.943 273.456 392.515 273.32 392.027 273.32C391.539 273.32 391.107 273.456 390.731 273.728C390.363 274 390.075 274.396 389.867 274.916C389.659 275.436 389.555 276.064 389.555 276.8C389.555 277.536 389.659 278.164 389.867 278.684C390.075 279.204 390.363 279.6 390.731 279.872C391.107 280.144 391.539 280.28 392.027 280.28Z" fill="black"/>
<path d="M342.562 300.2C343.442 300.248 344.11 300.488 344.566 300.92C345.03 301.344 345.262 301.9 345.262 302.588C345.262 303.068 345.146 303.496 344.914 303.872C344.682 304.24 344.338 304.532 343.882 304.748C343.426 304.964 342.87 305.072 342.214 305.072C341.606 305.072 341.03 304.976 340.486 304.784C339.95 304.584 339.518 304.32 339.19 303.992L339.61 303.308C339.89 303.596 340.262 303.832 340.726 304.016C341.19 304.192 341.686 304.28 342.214 304.28C342.902 304.28 343.434 304.132 343.81 303.836C344.186 303.532 344.374 303.116 344.374 302.588C344.374 302.068 344.186 301.66 343.81 301.364C343.434 301.068 342.866 300.92 342.106 300.92H341.506V300.284L343.834 297.368H339.538V296.6H344.938V297.212L342.562 300.2ZM347.139 303.752C347.323 303.752 347.475 303.816 347.595 303.944C347.715 304.064 347.775 304.216 347.775 304.4C347.775 304.496 347.759 304.6 347.727 304.712C347.703 304.824 347.663 304.952 347.607 305.096L347.103 306.752H346.527L346.935 305.012C346.807 304.972 346.703 304.9 346.623 304.796C346.543 304.684 346.503 304.552 346.503 304.4C346.503 304.216 346.563 304.064 346.683 303.944C346.803 303.816 346.955 303.752 347.139 303.752ZM351.23 300.044C352.446 300.044 353.33 300.264 353.882 300.704C354.442 301.136 354.722 301.744 354.722 302.528C354.722 303.016 354.606 303.452 354.374 303.836C354.15 304.22 353.81 304.524 353.354 304.748C352.898 304.964 352.338 305.072 351.674 305.072C351.074 305.072 350.502 304.976 349.958 304.784C349.422 304.584 348.99 304.32 348.662 303.992L349.082 303.308C349.362 303.596 349.73 303.832 350.186 304.016C350.642 304.192 351.134 304.28 351.662 304.28C352.358 304.28 352.894 304.124 353.27 303.812C353.654 303.5 353.846 303.084 353.846 302.564C353.846 301.988 353.63 301.552 353.198 301.256C352.774 300.96 352.054 300.812 351.038 300.812H349.25L349.682 296.6H354.278V297.368H350.438L350.15 300.044H351.23ZM357.969 300.044C359.185 300.044 360.069 300.264 360.621 300.704C361.181 301.136 361.461 301.744 361.461 302.528C361.461 303.016 361.345 303.452 361.113 303.836C360.889 304.22 360.549 304.524 360.093 304.748C359.637 304.964 359.077 305.072 358.413 305.072C357.813 305.072 357.241 304.976 356.697 304.784C356.161 304.584 355.729 304.32 355.401 303.992L355.821 303.308C356.101 303.596 356.469 303.832 356.925 304.016C357.381 304.192 357.873 304.28 358.401 304.28C359.097 304.28 359.633 304.124 360.009 303.812C360.393 303.5 360.585 303.084 360.585 302.564C360.585 301.988 360.369 301.552 359.937 301.256C359.513 300.96 358.793 300.812 357.777 300.812H355.989L356.421 296.6H361.017V297.368H357.177L356.889 300.044H357.969ZM365.906 305.072C365.258 305.072 364.678 304.9 364.166 304.556C363.662 304.212 363.266 303.72 362.978 303.08C362.698 302.432 362.558 301.672 362.558 300.8C362.558 299.928 362.698 299.172 362.978 298.532C363.266 297.884 363.662 297.388 364.166 297.044C364.678 296.7 365.258 296.528 365.906 296.528C366.554 296.528 367.13 296.7 367.634 297.044C368.146 297.388 368.546 297.884 368.834 298.532C369.122 299.172 369.266 299.928 369.266 300.8C369.266 301.672 369.122 302.432 368.834 303.08C368.546 303.72 368.146 304.212 367.634 304.556C367.13 304.9 366.554 305.072 365.906 305.072ZM365.906 304.28C366.394 304.28 366.822 304.144 367.19 303.872C367.566 303.6 367.858 303.204 368.066 302.684C368.274 302.164 368.378 301.536 368.378 300.8C368.378 300.064 368.274 299.436 368.066 298.916C367.858 298.396 367.566 298 367.19 297.728C366.822 297.456 366.394 297.32 365.906 297.32C365.418 297.32 364.986 297.456 364.61 297.728C364.242 298 363.954 298.396 363.746 298.916C363.538 299.436 363.434 300.064 363.434 300.8C363.434 301.536 363.538 302.164 363.746 302.684C363.954 303.204 364.242 303.6 364.61 303.872C364.986 304.144 365.418 304.28 365.906 304.28ZM371.034 303.752C371.218 303.752 371.37 303.816 371.49 303.944C371.61 304.064 371.67 304.216 371.67 304.4C371.67 304.496 371.654 304.6 371.622 304.712C371.598 304.824 371.558 304.952 371.502 305.096L370.998 306.752H370.422L370.83 305.012C370.702 304.972 370.598 304.9 370.518 304.796C370.438 304.684 370.398 304.552 370.398 304.4C370.398 304.216 370.458 304.064 370.578 303.944C370.698 303.816 370.85 303.752 371.034 303.752ZM376.136 305.072C375.488 305.072 374.908 304.9 374.396 304.556C373.892 304.212 373.496 303.72 373.208 303.08C372.928 302.432 372.788 301.672 372.788 300.8C372.788 299.928 372.928 299.172 373.208 298.532C373.496 297.884 373.892 297.388 374.396 297.044C374.908 296.7 375.488 296.528 376.136 296.528C376.784 296.528 377.36 296.7 377.864 297.044C378.376 297.388 378.776 297.884 379.064 298.532C379.352 299.172 379.496 299.928 379.496 300.8C379.496 301.672 379.352 302.432 379.064 303.08C378.776 303.72 378.376 304.212 377.864 304.556C377.36 304.9 376.784 305.072 376.136 305.072ZM376.136 304.28C376.624 304.28 377.052 304.144 377.42 303.872C377.796 303.6 378.088 303.204 378.296 302.684C378.504 302.164 378.608 301.536 378.608 300.8C378.608 300.064 378.504 299.436 378.296 298.916C378.088 298.396 377.796 298 377.42 297.728C377.052 297.456 376.624 297.32 376.136 297.32C375.648 297.32 375.216 297.456 374.84 297.728C374.472 298 374.184 298.396 373.976 298.916C373.768 299.436 373.664 300.064 373.664 300.8C373.664 301.536 373.768 302.164 373.976 302.684C374.184 303.204 374.472 303.6 374.84 303.872C375.216 304.144 375.648 304.28 376.136 304.28ZM384.081 305.072C383.433 305.072 382.853 304.9 382.341 304.556C381.837 304.212 381.441 303.72 381.153 303.08C380.873 302.432 380.733 301.672 380.733 300.8C380.733 299.928 380.873 299.172 381.153 298.532C381.441 297.884 381.837 297.388 382.341 297.044C382.853 296.7 383.433 296.528 384.081 296.528C384.729 296.528 385.305 296.7 385.809 297.044C386.321 297.388 386.721 297.884 387.009 298.532C387.297 299.172 387.441 299.928 387.441 300.8C387.441 301.672 387.297 302.432 387.009 303.08C386.721 303.72 386.321 304.212 385.809 304.556C385.305 304.9 384.729 305.072 384.081 305.072ZM384.081 304.28C384.569 304.28 384.997 304.144 385.365 303.872C385.741 303.6 386.033 303.204 386.241 302.684C386.449 302.164 386.553 301.536 386.553 300.8C386.553 300.064 386.449 299.436 386.241 298.916C386.033 298.396 385.741 298 385.365 297.728C384.997 297.456 384.569 297.32 384.081 297.32C383.593 297.32 383.161 297.456 382.785 297.728C382.417 298 382.129 298.396 381.921 298.916C381.713 299.436 381.609 300.064 381.609 300.8C381.609 301.536 381.713 302.164 381.921 302.684C382.129 303.204 382.417 303.6 382.785 303.872C383.161 304.144 383.593 304.28 384.081 304.28ZM392.027 305.072C391.379 305.072 390.799 304.9 390.287 304.556C389.783 304.212 389.387 303.72 389.099 303.08C388.819 302.432 388.679 301.672 388.679 300.8C388.679 299.928 388.819 299.172 389.099 298.532C389.387 297.884 389.783 297.388 390.287 297.044C390.799 296.7 391.379 296.528 392.027 296.528C392.675 296.528 393.251 296.7 393.755 297.044C394.267 297.388 394.667 297.884 394.955 298.532C395.243 299.172 395.387 299.928 395.387 300.8C395.387 301.672 395.243 302.432 394.955 303.08C394.667 303.72 394.267 304.212 393.755 304.556C393.251 304.9 392.675 305.072 392.027 305.072ZM392.027 304.28C392.515 304.28 392.943 304.144 393.311 303.872C393.687 303.6 393.979 303.204 394.187 302.684C394.395 302.164 394.499 301.536 394.499 300.8C394.499 300.064 394.395 299.436 394.187 298.916C393.979 298.396 393.687 298 393.311 297.728C392.943 297.456 392.515 297.32 392.027 297.32C391.539 297.32 391.107 297.456 390.731 297.728C390.363 298 390.075 298.396 389.867 298.916C389.659 299.436 389.555 300.064 389.555 300.8C389.555 301.536 389.659 302.164 389.867 302.684C390.075 303.204 390.363 303.6 390.731 303.872C391.107 304.144 391.539 304.28 392.027 304.28Z" fill="black"/>
<path d="M103.764 254.792H102.084V257H101.22V254.792H96.48V254.168L100.932 248.6H101.892L97.596 254.024H101.244V252.08H102.084V254.024H103.764V254.792ZM111.698 254.792H110.018V257H109.154V254.792H104.414V254.168L108.866 248.6H109.826L105.53 254.024H109.178V252.08H110.018V254.024H111.698V254.792Z" fill="black"/>
<rect opacity="0.2" x="120" y="252" width="200" height="2" rx="1" fill="black"/>
<rect opacity="0.2" x="120" y="276" width="200" height="2" rx="1" fill="black"/>
<rect opacity="0.2" x="120" y="300" width="200" height="2" rx="1" fill="black"/>
<rect x="120" y="252" width="100" height="2" rx="1" fill="url(#paint0_linear)"/>
<rect x="120" y="276" width="4" height="2" rx="1" fill="url(#paint1_linear)"/>
<rect x="120" y="300" width="160" height="2" rx="1" fill="url(#paint2_linear)"/>
<path d="M99.972 281.072C99.324 281.072 98.744 280.9 98.232 280.556C97.728 280.212 97.332 279.72 97.044 279.08C96.764 278.432 96.624 277.672 96.624 276.8C96.624 275.928 96.764 275.172 97.044 274.532C97.332 273.884 97.728 273.388 98.232 273.044C98.744 272.7 99.324 272.528 99.972 272.528C100.62 272.528 101.196 272.7 101.7 273.044C102.212 273.388 102.612 273.884 102.9 274.532C103.188 275.172 103.332 275.928 103.332 276.8C103.332 277.672 103.188 278.432 102.9 279.08C102.612 279.72 102.212 280.212 101.7 280.556C101.196 280.9 100.62 281.072 99.972 281.072ZM99.972 280.28C100.46 280.28 100.888 280.144 101.256 279.872C101.632 279.6 101.924 279.204 102.132 278.684C102.34 278.164 102.444 277.536 102.444 276.8C102.444 276.064 102.34 275.436 102.132 274.916C101.924 274.396 101.632 274 101.256 273.728C100.888 273.456 100.46 273.32 99.972 273.32C99.484 273.32 99.052 273.456 98.676 273.728C98.308 274 98.02 274.396 97.812 274.916C97.604 275.436 97.5 276.064 97.5 276.8C97.5 277.536 97.604 278.164 97.812 278.684C98.02 279.204 98.308 279.6 98.676 279.872C99.052 280.144 99.484 280.28 99.972 280.28Z" fill="black"/>
<path d="M102.36 304.232V305H96.468V304.388L99.96 300.968C100.4 300.536 100.696 300.164 100.848 299.852C101.008 299.532 101.088 299.212 101.088 298.892C101.088 298.396 100.916 298.012 100.572 297.74C100.236 297.46 99.752 297.32 99.12 297.32C98.136 297.32 97.372 297.632 96.828 298.256L96.216 297.728C96.544 297.344 96.96 297.048 97.464 296.84C97.976 296.632 98.552 296.528 99.192 296.528C100.048 296.528 100.724 296.732 101.22 297.14C101.724 297.54 101.976 298.092 101.976 298.796C101.976 299.228 101.88 299.644 101.688 300.044C101.496 300.444 101.132 300.904 100.596 301.424L97.74 304.232H102.36ZM105.772 296.6V305H104.908V297.368H102.928V296.6H105.772Z" fill="black"/>
<path d="M97.23 229.81C98.3 229.47 99.13 228.76 99.52 227.82C99.93 228.71 100.75 229.39 101.81 229.71L102.19 229.08C100.88 228.69 99.94 227.74 99.92 226.6H101.99V225.94H99.92V224.84H99.1V225.94H97.06V226.6H99.1C99.08 227.78 98.17 228.77 96.85 229.17L97.23 229.81ZM99.92 229.51H99.1V231.18C98.19 231.21 97.32 231.21 96.58 231.21L96.69 231.9C98.29 231.89 100.49 231.88 102.5 231.51L102.43 230.9C101.63 231.03 100.76 231.09 99.92 231.14V229.51ZM103.02 224.77V233.75H103.84V224.77H103.02ZM107.609 230.57H106.799V233.53H113.079V232.86H107.609V230.57ZM112.589 228.9C112.819 227.68 112.819 226.77 112.819 226V225.3H106.759V225.97H112.009V226C112.009 226.78 112.009 227.66 111.759 228.9H105.719V229.56H113.869V228.9H112.589ZM119.275 233.13C120.575 233.13 121.625 232.35 121.625 231.04C121.625 230.04 120.935 229.38 120.065 229.18V229.14C120.845 228.85 121.375 228.26 121.375 227.37C121.375 226.19 120.475 225.53 119.245 225.53C118.395 225.53 117.745 225.9 117.195 226.41L117.685 226.99C118.095 226.58 118.615 226.28 119.205 226.26C119.965 226.28 120.445 226.73 120.445 227.44C120.445 228.23 119.925 228.84 118.415 228.84V229.54C120.105 229.54 120.695 230.13 120.695 231.01C120.695 231.85 120.075 232.37 119.205 232.37C118.375 232.37 117.815 231.98 117.385 231.53L116.925 232.13C117.405 232.65 118.125 233.13 119.275 233.13ZM123.052 225.93V226.6H125.742C125.622 228.46 124.772 230.08 122.712 231.23L123.192 231.82C125.742 230.38 126.552 228.24 126.552 225.93H123.052ZM129.532 224.77V228.38H128.312V225.01H127.542V233.29H128.312V229.05H129.532V233.74H130.322V224.77H129.532ZM136.651 229.04V229.58H138.431V230.05H139.251V224.78H138.431V229.04H136.651ZM134.781 225.52C135.661 225.52 136.221 225.82 136.221 226.3C136.221 226.76 135.661 227.07 134.781 227.07C133.911 227.07 133.341 226.76 133.341 226.3C133.341 225.82 133.911 225.52 134.781 225.52ZM134.781 227.63C136.111 227.63 136.991 227.12 136.991 226.3C136.991 225.46 136.111 224.95 134.781 224.95C133.451 224.95 132.571 225.46 132.571 226.3C132.571 227.12 133.451 227.63 134.781 227.63ZM134.321 230.08H135.141V228.7C136.011 228.65 136.901 228.58 137.771 228.46L137.721 227.92C135.801 228.14 133.611 228.15 131.881 228.15L131.981 228.77C132.701 228.77 133.491 228.76 134.321 228.74V230.08ZM134.071 233.04V232.25H139.251V230.38H133.241V230.97H138.451V231.69H133.261V233.64H139.561V233.04H134.071Z" fill="black"/>
<path d="M373.31 229.71L371.88 231.16V233H371.14V226H371.88V230.23L375.99 226H376.84L373.81 229.17L377.05 233H376.17L373.31 229.71ZM383.029 233L381.429 230.75C381.249 230.77 381.063 230.78 380.869 230.78H378.989V233H378.249V226H380.869C381.763 226 382.463 226.213 382.969 226.64C383.476 227.067 383.729 227.653 383.729 228.4C383.729 228.947 383.589 229.41 383.309 229.79C383.036 230.163 382.643 230.433 382.129 230.6L383.839 233H383.029ZM380.849 230.15C381.543 230.15 382.073 229.997 382.439 229.69C382.806 229.383 382.989 228.953 382.989 228.4C382.989 227.833 382.806 227.4 382.439 227.1C382.073 226.793 381.543 226.64 380.849 226.64H378.989V230.15H380.849ZM395.086 226L392.726 233H391.946L389.896 227.03L387.836 233H387.066L384.706 226H385.466L387.486 232.02L389.576 226H390.266L392.326 232.05L394.376 226H395.086Z" fill="#969696"/>
<g filter="url(#filter3_d)">
<rect x="84" y="388" width="328" height="80" fill="white"/>
</g>
<path d="M102.32 436.88C103.693 437.013 104.74 437.44 105.46 438.16C106.18 438.867 106.54 439.773 106.54 440.88C106.54 441.68 106.34 442.407 105.94 443.06C105.54 443.7 104.94 444.213 104.14 444.6C103.353 444.973 102.387 445.16 101.24 445.16C100.24 445.16 99.28 445.013 98.36 444.72C97.44 444.413 96.6867 443.993 96.1 443.46L97.02 441.88C97.5 442.333 98.1133 442.7 98.86 442.98C99.6067 443.247 100.4 443.38 101.24 443.38C102.28 443.38 103.087 443.16 103.66 442.72C104.247 442.28 104.54 441.673 104.54 440.9C104.54 440.127 104.253 439.527 103.68 439.1C103.107 438.673 102.24 438.46 101.08 438.46H99.96V437.06L103.48 432.74H96.74V431H105.98V432.36L102.32 436.88ZM109.745 442.38C110.119 442.38 110.425 442.513 110.665 442.78C110.919 443.033 111.045 443.353 111.045 443.74C111.045 443.94 111.019 444.133 110.965 444.32C110.925 444.507 110.839 444.793 110.705 445.18L109.765 447.96H108.505L109.245 444.98C108.992 444.887 108.785 444.733 108.625 444.52C108.479 444.293 108.405 444.033 108.405 443.74C108.405 443.34 108.532 443.013 108.785 442.76C109.039 442.507 109.359 442.38 109.745 442.38ZM116.937 436.58C118.937 436.58 120.403 436.96 121.337 437.72C122.283 438.467 122.757 439.493 122.757 440.8C122.757 441.627 122.557 442.373 122.157 443.04C121.77 443.693 121.177 444.213 120.377 444.6C119.59 444.973 118.617 445.16 117.457 445.16C116.47 445.16 115.517 445.013 114.597 444.72C113.677 444.413 112.917 443.993 112.317 443.46L113.237 441.88C113.717 442.333 114.33 442.7 115.077 442.98C115.823 443.247 116.61 443.38 117.437 443.38C118.49 443.38 119.303 443.16 119.877 442.72C120.463 442.267 120.757 441.653 120.757 440.88C120.757 440.04 120.437 439.407 119.797 438.98C119.157 438.54 118.063 438.32 116.517 438.32H113.337L114.077 431H121.977V432.74H115.757L115.377 436.58H116.937ZM128.323 436.58C130.323 436.58 131.79 436.96 132.723 437.72C133.67 438.467 134.143 439.493 134.143 440.8C134.143 441.627 133.943 442.373 133.543 443.04C133.157 443.693 132.563 444.213 131.763 444.6C130.977 444.973 130.003 445.16 128.843 445.16C127.857 445.16 126.903 445.013 125.983 444.72C125.063 444.413 124.303 443.993 123.703 443.46L124.623 441.88C125.103 442.333 125.717 442.7 126.463 442.98C127.21 443.247 127.997 443.38 128.823 443.38C129.877 443.38 130.69 443.16 131.263 442.72C131.85 442.267 132.143 441.653 132.143 440.88C132.143 440.04 131.823 439.407 131.183 438.98C130.543 438.54 129.45 438.32 127.903 438.32H124.723L125.463 431H133.363V432.74H127.143L126.763 436.58H128.323ZM141.528 445.16C140.421 445.16 139.434 444.88 138.568 444.32C137.714 443.747 137.041 442.92 136.548 441.84C136.054 440.76 135.808 439.48 135.808 438C135.808 436.52 136.054 435.24 136.548 434.16C137.041 433.08 137.714 432.26 138.568 431.7C139.434 431.127 140.421 430.84 141.528 430.84C142.621 430.84 143.594 431.127 144.448 431.7C145.314 432.26 145.994 433.08 146.488 434.16C146.981 435.24 147.228 436.52 147.228 438C147.228 439.48 146.981 440.76 146.488 441.84C145.994 442.92 145.314 443.747 144.448 444.32C143.594 444.88 142.621 445.16 141.528 445.16ZM141.528 443.38C142.648 443.38 143.541 442.92 144.208 442C144.888 441.08 145.228 439.747 145.228 438C145.228 436.253 144.888 434.92 144.208 434C143.541 433.08 142.648 432.62 141.528 432.62C140.394 432.62 139.488 433.08 138.808 434C138.141 434.92 137.808 436.253 137.808 438C137.808 439.747 138.141 441.08 138.808 442C139.488 442.92 140.394 443.38 141.528 443.38ZM150.253 442.38C150.626 442.38 150.933 442.513 151.173 442.78C151.426 443.033 151.553 443.353 151.553 443.74C151.553 443.94 151.526 444.133 151.473 444.32C151.433 444.507 151.346 444.793 151.213 445.18L150.273 447.96H149.013L149.753 444.98C149.5 444.887 149.293 444.733 149.133 444.52C148.986 444.293 148.913 444.033 148.913 443.74C148.913 443.34 149.04 443.013 149.293 442.76C149.546 442.507 149.866 442.38 150.253 442.38ZM158.93 445.16C157.823 445.16 156.837 444.88 155.97 444.32C155.117 443.747 154.443 442.92 153.95 441.84C153.457 440.76 153.21 439.48 153.21 438C153.21 436.52 153.457 435.24 153.95 434.16C154.443 433.08 155.117 432.26 155.97 431.7C156.837 431.127 157.823 430.84 158.93 430.84C160.023 430.84 160.997 431.127 161.85 431.7C162.717 432.26 163.397 433.08 163.89 434.16C164.383 435.24 164.63 436.52 164.63 438C164.63 439.48 164.383 440.76 163.89 441.84C163.397 442.92 162.717 443.747 161.85 444.32C160.997 444.88 160.023 445.16 158.93 445.16ZM158.93 443.38C160.05 443.38 160.943 442.92 161.61 442C162.29 441.08 162.63 439.747 162.63 438C162.63 436.253 162.29 434.92 161.61 434C160.943 433.08 160.05 432.62 158.93 432.62C157.797 432.62 156.89 433.08 156.21 434C155.543 434.92 155.21 436.253 155.21 438C155.21 439.747 155.543 441.08 156.21 442C156.89 442.92 157.797 443.38 158.93 443.38ZM172.27 445.16C171.163 445.16 170.177 444.88 169.31 444.32C168.457 443.747 167.783 442.92 167.29 441.84C166.797 440.76 166.55 439.48 166.55 438C166.55 436.52 166.797 435.24 167.29 434.16C167.783 433.08 168.457 432.26 169.31 431.7C170.177 431.127 171.163 430.84 172.27 430.84C173.363 430.84 174.337 431.127 175.19 431.7C176.057 432.26 176.737 433.08 177.23 434.16C177.723 435.24 177.97 436.52 177.97 438C177.97 439.48 177.723 440.76 177.23 441.84C176.737 442.92 176.057 443.747 175.19 444.32C174.337 444.88 173.363 445.16 172.27 445.16ZM172.27 443.38C173.39 443.38 174.283 442.92 174.95 442C175.63 441.08 175.97 439.747 175.97 438C175.97 436.253 175.63 434.92 174.95 434C174.283 433.08 173.39 432.62 172.27 432.62C171.137 432.62 170.23 433.08 169.55 434C168.883 434.92 168.55 436.253 168.55 438C168.55 439.747 168.883 441.08 169.55 442C170.23 442.92 171.137 443.38 172.27 443.38ZM185.61 445.16C184.503 445.16 183.516 444.88 182.65 444.32C181.796 443.747 181.123 442.92 180.63 441.84C180.136 440.76 179.89 439.48 179.89 438C179.89 436.52 180.136 435.24 180.63 434.16C181.123 433.08 181.796 432.26 182.65 431.7C183.516 431.127 184.503 430.84 185.61 430.84C186.703 430.84 187.676 431.127 188.53 431.7C189.396 432.26 190.076 433.08 190.57 434.16C191.063 435.24 191.31 436.52 191.31 438C191.31 439.48 191.063 440.76 190.57 441.84C190.076 442.92 189.396 443.747 188.53 444.32C187.676 444.88 186.703 445.16 185.61 445.16ZM185.61 443.38C186.73 443.38 187.623 442.92 188.29 442C188.97 441.08 189.31 439.747 189.31 438C189.31 436.253 188.97 434.92 188.29 434C187.623 433.08 186.73 432.62 185.61 432.62C184.476 432.62 183.57 433.08 182.89 434C182.223 434.92 181.89 436.253 181.89 438C181.89 439.747 182.223 441.08 182.89 442C183.57 442.92 184.476 443.38 185.61 443.38Z" fill="black"/>
<path d="M200.31 440.71L198.88 442.16V444H198.14V437H198.88V441.23L202.99 437H203.84L200.81 440.17L204.05 444H203.17L200.31 440.71ZM210.029 444L208.429 441.75C208.249 441.77 208.063 441.78 207.869 441.78H205.989V444H205.249V437H207.869C208.763 437 209.463 437.213 209.969 437.64C210.476 438.067 210.729 438.653 210.729 439.4C210.729 439.947 210.589 440.41 210.309 440.79C210.036 441.163 209.643 441.433 209.129 441.6L210.839 444H210.029ZM207.849 441.15C208.543 441.15 209.073 440.997 209.439 440.69C209.806 440.383 209.989 439.953 209.989 439.4C209.989 438.833 209.806 438.4 209.439 438.1C209.073 437.793 208.543 437.64 207.849 437.64H205.989V441.15H207.849ZM222.086 437L219.726 444H218.946L216.896 438.03L214.836 444H214.066L211.706 437H212.466L214.486 443.02L216.576 437H217.266L219.326 443.05L221.376 437H222.086Z" fill="black"/>
<path d="M101.3 418.36V419H96.39V418.49L99.3 415.64C99.6667 415.28 99.9133 414.97 100.04 414.71C100.173 414.443 100.24 414.177 100.24 413.91C100.24 413.497 100.097 413.177 99.81 412.95C99.53 412.717 99.1267 412.6 98.6 412.6C97.78 412.6 97.1433 412.86 96.69 413.38L96.18 412.94C96.4533 412.62 96.8 412.373 97.22 412.2C97.6467 412.027 98.1267 411.94 98.66 411.94C99.3733 411.94 99.9367 412.11 100.35 412.45C100.77 412.783 100.98 413.243 100.98 413.83C100.98 414.19 100.9 414.537 100.74 414.87C100.58 415.203 100.277 415.587 99.83 416.02L97.45 418.36H101.3ZM104.955 419.06C104.415 419.06 103.931 418.917 103.505 418.63C103.085 418.343 102.755 417.933 102.515 417.4C102.281 416.86 102.165 416.227 102.165 415.5C102.165 414.773 102.281 414.143 102.515 413.61C102.755 413.07 103.085 412.657 103.505 412.37C103.931 412.083 104.415 411.94 104.955 411.94C105.495 411.94 105.975 412.083 106.395 412.37C106.821 412.657 107.155 413.07 107.395 413.61C107.635 414.143 107.755 414.773 107.755 415.5C107.755 416.227 107.635 416.86 107.395 417.4C107.155 417.933 106.821 418.343 106.395 418.63C105.975 418.917 105.495 419.06 104.955 419.06ZM104.955 418.4C105.361 418.4 105.718 418.287 106.025 418.06C106.338 417.833 106.581 417.503 106.755 417.07C106.928 416.637 107.015 416.113 107.015 415.5C107.015 414.887 106.928 414.363 106.755 413.93C106.581 413.497 106.338 413.167 106.025 412.94C105.718 412.713 105.361 412.6 104.955 412.6C104.548 412.6 104.188 412.713 103.875 412.94C103.568 413.167 103.328 413.497 103.155 413.93C102.981 414.363 102.895 414.887 102.895 415.5C102.895 416.113 102.981 416.637 103.155 417.07C103.328 417.503 103.568 417.833 103.875 418.06C104.188 418.287 104.548 418.4 104.955 418.4ZM113.546 418.36V419H108.636V418.49L111.546 415.64C111.913 415.28 112.159 414.97 112.286 414.71C112.419 414.443 112.486 414.177 112.486 413.91C112.486 413.497 112.343 413.177 112.056 412.95C111.776 412.717 111.373 412.6 110.846 412.6C110.026 412.6 109.389 412.86 108.936 413.38L108.426 412.94C108.699 412.62 109.046 412.373 109.466 412.2C109.893 412.027 110.373 411.94 110.906 411.94C111.619 411.94 112.183 412.11 112.596 412.45C113.016 412.783 113.226 413.243 113.226 413.83C113.226 414.19 113.146 414.537 112.986 414.87C112.826 415.203 112.523 415.587 112.076 416.02L109.696 418.36H113.546ZM117.201 419.06C116.661 419.06 116.177 418.917 115.751 418.63C115.331 418.343 115.001 417.933 114.761 417.4C114.527 416.86 114.411 416.227 114.411 415.5C114.411 414.773 114.527 414.143 114.761 413.61C115.001 413.07 115.331 412.657 115.751 412.37C116.177 412.083 116.661 411.94 117.201 411.94C117.741 411.94 118.221 412.083 118.641 412.37C119.067 412.657 119.401 413.07 119.641 413.61C119.881 414.143 120.001 414.773 120.001 415.5C120.001 416.227 119.881 416.86 119.641 417.4C119.401 417.933 119.067 418.343 118.641 418.63C118.221 418.917 117.741 419.06 117.201 419.06ZM117.201 418.4C117.607 418.4 117.964 418.287 118.271 418.06C118.584 417.833 118.827 417.503 119.001 417.07C119.174 416.637 119.261 416.113 119.261 415.5C119.261 414.887 119.174 414.363 119.001 413.93C118.827 413.497 118.584 413.167 118.271 412.94C117.964 412.713 117.607 412.6 117.201 412.6C116.794 412.6 116.434 412.713 116.121 412.94C115.814 413.167 115.574 413.497 115.401 413.93C115.227 414.363 115.141 414.887 115.141 415.5C115.141 416.113 115.227 416.637 115.401 417.07C115.574 417.503 115.814 417.833 116.121 418.06C116.434 418.287 116.794 418.4 117.201 418.4ZM121.464 419.05C121.318 419.05 121.191 418.997 121.084 418.89C120.984 418.783 120.934 418.653 120.934 418.5C120.934 418.347 120.984 418.22 121.084 418.12C121.191 418.013 121.318 417.96 121.464 417.96C121.611 417.96 121.738 418.013 121.844 418.12C121.951 418.22 122.004 418.347 122.004 418.5C122.004 418.653 121.951 418.783 121.844 418.89C121.738 418.997 121.611 419.05 121.464 419.05ZM125.726 419.06C125.186 419.06 124.703 418.917 124.276 418.63C123.856 418.343 123.526 417.933 123.286 417.4C123.053 416.86 122.936 416.227 122.936 415.5C122.936 414.773 123.053 414.143 123.286 413.61C123.526 413.07 123.856 412.657 124.276 412.37C124.703 412.083 125.186 411.94 125.726 411.94C126.266 411.94 126.746 412.083 127.166 412.37C127.593 412.657 127.926 413.07 128.166 413.61C128.406 414.143 128.526 414.773 128.526 415.5C128.526 416.227 128.406 416.86 128.166 417.4C127.926 417.933 127.593 418.343 127.166 418.63C126.746 418.917 126.266 419.06 125.726 419.06ZM125.726 418.4C126.133 418.4 126.489 418.287 126.796 418.06C127.109 417.833 127.353 417.503 127.526 417.07C127.699 416.637 127.786 416.113 127.786 415.5C127.786 414.887 127.699 414.363 127.526 413.93C127.353 413.497 127.109 413.167 126.796 412.94C126.489 412.713 126.133 412.6 125.726 412.6C125.319 412.6 124.959 412.713 124.646 412.94C124.339 413.167 124.099 413.497 123.926 413.93C123.753 414.363 123.666 414.887 123.666 415.5C123.666 416.113 123.753 416.637 123.926 417.07C124.099 417.503 124.339 417.833 124.646 418.06C124.959 418.287 125.319 418.4 125.726 418.4ZM131.839 415C132.573 415.04 133.129 415.24 133.509 415.6C133.896 415.953 134.089 416.417 134.089 416.99C134.089 417.39 133.993 417.747 133.799 418.06C133.606 418.367 133.319 418.61 132.939 418.79C132.559 418.97 132.096 419.06 131.549 419.06C131.043 419.06 130.563 418.98 130.109 418.82C129.663 418.653 129.303 418.433 129.029 418.16L129.379 417.59C129.613 417.83 129.923 418.027 130.309 418.18C130.696 418.327 131.109 418.4 131.549 418.4C132.123 418.4 132.566 418.277 132.879 418.03C133.193 417.777 133.349 417.43 133.349 416.99C133.349 416.557 133.193 416.217 132.879 415.97C132.566 415.723 132.093 415.6 131.459 415.6H130.959V415.07L132.899 412.64H129.319V412H133.819V412.51L131.839 415Z" fill="#969696"/>
<rect x="336" y="412" width="60" height="32" rx="16" fill="#F5F5F5"/>
<path d="M350.306 425.92V426.724H352.43V429.544H353.426V423.136H352.43V425.92H350.306ZM350.906 428.368C349.346 427.816 348.29 426.46 348.29 425.08V424.708H350.654V423.916H344.906V424.708H347.306V425.08C347.306 426.628 346.202 428.08 344.594 428.668L345.11 429.448C346.37 428.968 347.366 427.96 347.822 426.712C348.29 427.816 349.214 428.704 350.414 429.136L350.906 428.368ZM349.874 433.12C348.254 433.12 347.27 432.664 347.27 431.884C347.27 431.104 348.254 430.636 349.874 430.636C351.494 430.636 352.478 431.104 352.478 431.884C352.478 432.664 351.494 433.12 349.874 433.12ZM349.874 429.88C347.666 429.88 346.286 430.612 346.286 431.884C346.286 433.156 347.666 433.888 349.874 433.888C352.082 433.888 353.45 433.156 353.45 431.884C353.45 430.612 352.082 429.88 349.874 429.88ZM361.873 428.536C360.289 427.972 359.221 426.604 359.221 425.128V423.772H358.237V425.104C358.237 426.772 357.193 428.212 355.549 428.8L356.065 429.58C357.349 429.1 358.309 428.116 358.753 426.844C359.233 427.972 360.169 428.872 361.381 429.316L361.873 428.536ZM358.261 430.312H357.277V433.648H364.417V432.844H358.261V430.312ZM363.949 426.424V423.112H362.965V431.068H363.949V427.24H365.545V426.424H363.949ZM368.16 425.74C368.16 424.924 368.868 424.372 369.9 424.372C370.908 424.372 371.628 424.924 371.628 425.74C371.628 426.568 370.908 427.108 369.9 427.108C368.868 427.108 368.16 426.568 368.16 425.74ZM373.32 428.608C372.396 428.752 371.4 428.824 370.404 428.884V427.828C371.688 427.672 372.552 426.88 372.552 425.74C372.552 424.48 371.46 423.628 369.9 423.628C368.328 423.628 367.248 424.48 367.248 425.74C367.248 426.892 368.112 427.684 369.42 427.84V428.92C368.424 428.956 367.452 428.968 366.624 428.968L366.756 429.772C368.592 429.772 371.148 429.736 373.392 429.328L373.32 428.608ZM369.156 430.672H368.172V433.636H375.36V432.832H369.156V430.672ZM374.976 426.772V423.136H373.992V431.368H374.976V427.588H376.56V426.772H374.976ZM381.371 429.712H383.831V431.752H381.371V429.712ZM384.803 431.752V429.712H386.483V428.908H379.859V427.18H386.231V423.916H378.863V424.72H385.271V426.388H378.887V429.712H380.399V431.752H377.663V432.556H387.443V431.752H384.803Z" fill="#969696"/>
<g filter="url(#filter4_d)">
<rect x="84" y="476" width="328" height="80" fill="white"/>
</g>
<path d="M102.32 524.88C103.693 525.013 104.74 525.44 105.46 526.16C106.18 526.867 106.54 527.773 106.54 528.88C106.54 529.68 106.34 530.407 105.94 531.06C105.54 531.7 104.94 532.213 104.14 532.6C103.353 532.973 102.387 533.16 101.24 533.16C100.24 533.16 99.28 533.013 98.36 532.72C97.44 532.413 96.6867 531.993 96.1 531.46L97.02 529.88C97.5 530.333 98.1133 530.7 98.86 530.98C99.6067 531.247 100.4 531.38 101.24 531.38C102.28 531.38 103.087 531.16 103.66 530.72C104.247 530.28 104.54 529.673 104.54 528.9C104.54 528.127 104.253 527.527 103.68 527.1C103.107 526.673 102.24 526.46 101.08 526.46H99.96V525.06L103.48 520.74H96.74V519H105.98V520.36L102.32 524.88ZM109.745 530.38C110.119 530.38 110.425 530.513 110.665 530.78C110.919 531.033 111.045 531.353 111.045 531.74C111.045 531.94 111.019 532.133 110.965 532.32C110.925 532.507 110.839 532.793 110.705 533.18L109.765 535.96H108.505L109.245 532.98C108.992 532.887 108.785 532.733 108.625 532.52C108.479 532.293 108.405 532.033 108.405 531.74C108.405 531.34 108.532 531.013 108.785 530.76C109.039 530.507 109.359 530.38 109.745 530.38ZM116.937 524.58C118.937 524.58 120.403 524.96 121.337 525.72C122.283 526.467 122.757 527.493 122.757 528.8C122.757 529.627 122.557 530.373 122.157 531.04C121.77 531.693 121.177 532.213 120.377 532.6C119.59 532.973 118.617 533.16 117.457 533.16C116.47 533.16 115.517 533.013 114.597 532.72C113.677 532.413 112.917 531.993 112.317 531.46L113.237 529.88C113.717 530.333 114.33 530.7 115.077 530.98C115.823 531.247 116.61 531.38 117.437 531.38C118.49 531.38 119.303 531.16 119.877 530.72C120.463 530.267 120.757 529.653 120.757 528.88C120.757 528.04 120.437 527.407 119.797 526.98C119.157 526.54 118.063 526.32 116.517 526.32H113.337L114.077 519H121.977V520.74H115.757L115.377 524.58H116.937ZM128.323 524.58C130.323 524.58 131.79 524.96 132.723 525.72C133.67 526.467 134.143 527.493 134.143 528.8C134.143 529.627 133.943 530.373 133.543 531.04C133.157 531.693 132.563 532.213 131.763 532.6C130.977 532.973 130.003 533.16 128.843 533.16C127.857 533.16 126.903 533.013 125.983 532.72C125.063 532.413 124.303 531.993 123.703 531.46L124.623 529.88C125.103 530.333 125.717 530.7 126.463 530.98C127.21 531.247 127.997 531.38 128.823 531.38C129.877 531.38 130.69 531.16 131.263 530.72C131.85 530.267 132.143 529.653 132.143 528.88C132.143 528.04 131.823 527.407 131.183 526.98C130.543 526.54 129.45 526.32 127.903 526.32H124.723L125.463 519H133.363V520.74H127.143L126.763 524.58H128.323ZM141.528 533.16C140.421 533.16 139.434 532.88 138.568 532.32C137.714 531.747 137.041 530.92 136.548 529.84C136.054 528.76 135.808 527.48 135.808 526C135.808 524.52 136.054 523.24 136.548 522.16C137.041 521.08 137.714 520.26 138.568 519.7C139.434 519.127 140.421 518.84 141.528 518.84C142.621 518.84 143.594 519.127 144.448 519.7C145.314 520.26 145.994 521.08 146.488 522.16C146.981 523.24 147.228 524.52 147.228 526C147.228 527.48 146.981 528.76 146.488 529.84C145.994 530.92 145.314 531.747 144.448 532.32C143.594 532.88 142.621 533.16 141.528 533.16ZM141.528 531.38C142.648 531.38 143.541 530.92 144.208 530C144.888 529.08 145.228 527.747 145.228 526C145.228 524.253 144.888 522.92 144.208 522C143.541 521.08 142.648 520.62 141.528 520.62C140.394 520.62 139.488 521.08 138.808 522C138.141 522.92 137.808 524.253 137.808 526C137.808 527.747 138.141 529.08 138.808 530C139.488 530.92 140.394 531.38 141.528 531.38ZM150.253 530.38C150.626 530.38 150.933 530.513 151.173 530.78C151.426 531.033 151.553 531.353 151.553 531.74C151.553 531.94 151.526 532.133 151.473 532.32C151.433 532.507 151.346 532.793 151.213 533.18L150.273 535.96H149.013L149.753 532.98C149.5 532.887 149.293 532.733 149.133 532.52C148.986 532.293 148.913 532.033 148.913 531.74C148.913 531.34 149.04 531.013 149.293 530.76C149.546 530.507 149.866 530.38 150.253 530.38ZM158.93 533.16C157.823 533.16 156.837 532.88 155.97 532.32C155.117 531.747 154.443 530.92 153.95 529.84C153.457 528.76 153.21 527.48 153.21 526C153.21 524.52 153.457 523.24 153.95 522.16C154.443 521.08 155.117 520.26 155.97 519.7C156.837 519.127 157.823 518.84 158.93 518.84C160.023 518.84 160.997 519.127 161.85 519.7C162.717 520.26 163.397 521.08 163.89 522.16C164.383 523.24 164.63 524.52 164.63 526C164.63 527.48 164.383 528.76 163.89 529.84C163.397 530.92 162.717 531.747 161.85 532.32C160.997 532.88 160.023 533.16 158.93 533.16ZM158.93 531.38C160.05 531.38 160.943 530.92 161.61 530C162.29 529.08 162.63 527.747 162.63 526C162.63 524.253 162.29 522.92 161.61 522C160.943 521.08 160.05 520.62 158.93 520.62C157.797 520.62 156.89 521.08 156.21 522C155.543 522.92 155.21 524.253 155.21 526C155.21 527.747 155.543 529.08 156.21 530C156.89 530.92 157.797 531.38 158.93 531.38ZM172.27 533.16C171.163 533.16 170.177 532.88 169.31 532.32C168.457 531.747 167.783 530.92 167.29 529.84C166.797 528.76 166.55 527.48 166.55 526C166.55 524.52 166.797 523.24 167.29 522.16C167.783 521.08 168.457 520.26 169.31 519.7C170.177 519.127 171.163 518.84 172.27 518.84C173.363 518.84 174.337 519.127 175.19 519.7C176.057 520.26 176.737 521.08 177.23 522.16C177.723 523.24 177.97 524.52 177.97 526C177.97 527.48 177.723 528.76 177.23 529.84C176.737 530.92 176.057 531.747 175.19 532.32C174.337 532.88 173.363 533.16 172.27 533.16ZM172.27 531.38C173.39 531.38 174.283 530.92 174.95 530C175.63 529.08 175.97 527.747 175.97 526C175.97 524.253 175.63 522.92 174.95 522C174.283 521.08 173.39 520.62 172.27 520.62C171.137 520.62 170.23 521.08 169.55 522C168.883 522.92 168.55 524.253 168.55 526C168.55 527.747 168.883 529.08 169.55 530C170.23 530.92 171.137 531.38 172.27 531.38ZM185.61 533.16C184.503 533.16 183.516 532.88 182.65 532.32C181.796 531.747 181.123 530.92 180.63 529.84C180.136 528.76 179.89 527.48 179.89 526C179.89 524.52 180.136 523.24 180.63 522.16C181.123 521.08 181.796 520.26 182.65 519.7C183.516 519.127 184.503 518.84 185.61 518.84C186.703 518.84 187.676 519.127 188.53 519.7C189.396 520.26 190.076 521.08 190.57 522.16C191.063 523.24 191.31 524.52 191.31 526C191.31 527.48 191.063 528.76 190.57 529.84C190.076 530.92 189.396 531.747 188.53 532.32C187.676 532.88 186.703 533.16 185.61 533.16ZM185.61 531.38C186.73 531.38 187.623 530.92 188.29 530C188.97 529.08 189.31 527.747 189.31 526C189.31 524.253 188.97 522.92 188.29 522C187.623 521.08 186.73 520.62 185.61 520.62C184.476 520.62 183.57 521.08 182.89 522C182.223 522.92 181.89 524.253 181.89 526C181.89 527.747 182.223 529.08 182.89 530C183.57 530.92 184.476 531.38 185.61 531.38Z" fill="black"/>
<path d="M200.31 528.71L198.88 530.16V532H198.14V525H198.88V529.23L202.99 525H203.84L200.81 528.17L204.05 532H203.17L200.31 528.71ZM210.029 532L208.429 529.75C208.249 529.77 208.063 529.78 207.869 529.78H205.989V532H205.249V525H207.869C208.763 525 209.463 525.213 209.969 525.64C210.476 526.067 210.729 526.653 210.729 527.4C210.729 527.947 210.589 528.41 210.309 528.79C210.036 529.163 209.643 529.433 209.129 529.6L210.839 532H210.029ZM207.849 529.15C208.543 529.15 209.073 528.997 209.439 528.69C209.806 528.383 209.989 527.953 209.989 527.4C209.989 526.833 209.806 526.4 209.439 526.1C209.073 525.793 208.543 525.64 207.849 525.64H205.989V529.15H207.849ZM222.086 525L219.726 532H218.946L216.896 526.03L214.836 532H214.066L211.706 525H212.466L214.486 531.02L216.576 525H217.266L219.326 531.05L221.376 525H222.086Z" fill="black"/>
<path d="M101.3 506.36V507H96.39V506.49L99.3 503.64C99.6667 503.28 99.9133 502.97 100.04 502.71C100.173 502.443 100.24 502.177 100.24 501.91C100.24 501.497 100.097 501.177 99.81 500.95C99.53 500.717 99.1267 500.6 98.6 500.6C97.78 500.6 97.1433 500.86 96.69 501.38L96.18 500.94C96.4533 500.62 96.8 500.373 97.22 500.2C97.6467 500.027 98.1267 499.94 98.66 499.94C99.3733 499.94 99.9367 500.11 100.35 500.45C100.77 500.783 100.98 501.243 100.98 501.83C100.98 502.19 100.9 502.537 100.74 502.87C100.58 503.203 100.277 503.587 99.83 504.02L97.45 506.36H101.3ZM104.955 507.06C104.415 507.06 103.931 506.917 103.505 506.63C103.085 506.343 102.755 505.933 102.515 505.4C102.281 504.86 102.165 504.227 102.165 503.5C102.165 502.773 102.281 502.143 102.515 501.61C102.755 501.07 103.085 500.657 103.505 500.37C103.931 500.083 104.415 499.94 104.955 499.94C105.495 499.94 105.975 500.083 106.395 500.37C106.821 500.657 107.155 501.07 107.395 501.61C107.635 502.143 107.755 502.773 107.755 503.5C107.755 504.227 107.635 504.86 107.395 505.4C107.155 505.933 106.821 506.343 106.395 506.63C105.975 506.917 105.495 507.06 104.955 507.06ZM104.955 506.4C105.361 506.4 105.718 506.287 106.025 506.06C106.338 505.833 106.581 505.503 106.755 505.07C106.928 504.637 107.015 504.113 107.015 503.5C107.015 502.887 106.928 502.363 106.755 501.93C106.581 501.497 106.338 501.167 106.025 500.94C105.718 500.713 105.361 500.6 104.955 500.6C104.548 500.6 104.188 500.713 103.875 500.94C103.568 501.167 103.328 501.497 103.155 501.93C102.981 502.363 102.895 502.887 102.895 503.5C102.895 504.113 102.981 504.637 103.155 505.07C103.328 505.503 103.568 505.833 103.875 506.06C104.188 506.287 104.548 506.4 104.955 506.4ZM113.546 506.36V507H108.636V506.49L111.546 503.64C111.913 503.28 112.159 502.97 112.286 502.71C112.419 502.443 112.486 502.177 112.486 501.91C112.486 501.497 112.343 501.177 112.056 500.95C111.776 500.717 111.373 500.6 110.846 500.6C110.026 500.6 109.389 500.86 108.936 501.38L108.426 500.94C108.699 500.62 109.046 500.373 109.466 500.2C109.893 500.027 110.373 499.94 110.906 499.94C111.619 499.94 112.183 500.11 112.596 500.45C113.016 500.783 113.226 501.243 113.226 501.83C113.226 502.19 113.146 502.537 112.986 502.87C112.826 503.203 112.523 503.587 112.076 504.02L109.696 506.36H113.546ZM117.201 507.06C116.661 507.06 116.177 506.917 115.751 506.63C115.331 506.343 115.001 505.933 114.761 505.4C114.527 504.86 114.411 504.227 114.411 503.5C114.411 502.773 114.527 502.143 114.761 501.61C115.001 501.07 115.331 500.657 115.751 500.37C116.177 500.083 116.661 499.94 117.201 499.94C117.741 499.94 118.221 500.083 118.641 500.37C119.067 500.657 119.401 501.07 119.641 501.61C119.881 502.143 120.001 502.773 120.001 503.5C120.001 504.227 119.881 504.86 119.641 505.4C119.401 505.933 119.067 506.343 118.641 506.63C118.221 506.917 117.741 507.06 117.201 507.06ZM117.201 506.4C117.607 506.4 117.964 506.287 118.271 506.06C118.584 505.833 118.827 505.503 119.001 505.07C119.174 504.637 119.261 504.113 119.261 503.5C119.261 502.887 119.174 502.363 119.001 501.93C118.827 501.497 118.584 501.167 118.271 500.94C117.964 500.713 117.607 500.6 117.201 500.6C116.794 500.6 116.434 500.713 116.121 500.94C115.814 501.167 115.574 501.497 115.401 501.93C115.227 502.363 115.141 502.887 115.141 503.5C115.141 504.113 115.227 504.637 115.401 505.07C115.574 505.503 115.814 505.833 116.121 506.06C116.434 506.287 116.794 506.4 117.201 506.4ZM121.464 507.05C121.318 507.05 121.191 506.997 121.084 506.89C120.984 506.783 120.934 506.653 120.934 506.5C120.934 506.347 120.984 506.22 121.084 506.12C121.191 506.013 121.318 505.96 121.464 505.96C121.611 505.96 121.738 506.013 121.844 506.12C121.951 506.22 122.004 506.347 122.004 506.5C122.004 506.653 121.951 506.783 121.844 506.89C121.738 506.997 121.611 507.05 121.464 507.05ZM125.726 507.06C125.186 507.06 124.703 506.917 124.276 506.63C123.856 506.343 123.526 505.933 123.286 505.4C123.053 504.86 122.936 504.227 122.936 503.5C122.936 502.773 123.053 502.143 123.286 501.61C123.526 501.07 123.856 500.657 124.276 500.37C124.703 500.083 125.186 499.94 125.726 499.94C126.266 499.94 126.746 500.083 127.166 500.37C127.593 500.657 127.926 501.07 128.166 501.61C128.406 502.143 128.526 502.773 128.526 503.5C128.526 504.227 128.406 504.86 128.166 505.4C127.926 505.933 127.593 506.343 127.166 506.63C126.746 506.917 126.266 507.06 125.726 507.06ZM125.726 506.4C126.133 506.4 126.489 506.287 126.796 506.06C127.109 505.833 127.353 505.503 127.526 505.07C127.699 504.637 127.786 504.113 127.786 503.5C127.786 502.887 127.699 502.363 127.526 501.93C127.353 501.497 127.109 501.167 126.796 500.94C126.489 500.713 126.133 500.6 125.726 500.6C125.319 500.6 124.959 500.713 124.646 500.94C124.339 501.167 124.099 501.497 123.926 501.93C123.753 502.363 123.666 502.887 123.666 503.5C123.666 504.113 123.753 504.637 123.926 505.07C124.099 505.503 124.339 505.833 124.646 506.06C124.959 506.287 125.319 506.4 125.726 506.4ZM131.839 503C132.573 503.04 133.129 503.24 133.509 503.6C133.896 503.953 134.089 504.417 134.089 504.99C134.089 505.39 133.993 505.747 133.799 506.06C133.606 506.367 133.319 506.61 132.939 506.79C132.559 506.97 132.096 507.06 131.549 507.06C131.043 507.06 130.563 506.98 130.109 506.82C129.663 506.653 129.303 506.433 129.029 506.16L129.379 505.59C129.613 505.83 129.923 506.027 130.309 506.18C130.696 506.327 131.109 506.4 131.549 506.4C132.123 506.4 132.566 506.277 132.879 506.03C133.193 505.777 133.349 505.43 133.349 504.99C133.349 504.557 133.193 504.217 132.879 503.97C132.566 503.723 132.093 503.6 131.459 503.6H130.959V503.07L132.899 500.64H129.319V500H133.819V500.51L131.839 503Z" fill="#969696"/>
<path d="M345.194 512.288V513.08H349.238C349.034 515.636 347.594 517.7 344.702 519.08L345.23 519.884C348.806 518.132 350.234 515.396 350.234 512.288H345.194ZM352.406 511.124V521.888H353.39V511.124H352.406ZM356.053 511.964V512.768H360.013C359.809 514.664 358.153 516.188 355.621 516.98L356.017 517.76C359.113 516.788 361.069 514.748 361.069 511.964H356.053ZM358.225 518.192H357.241V521.648H364.417V520.844H358.225V518.192ZM363.949 514.4V511.136H362.965V518.996H363.949V515.216H365.545V514.4H363.949ZM371.064 516.284H368.04V512.876H371.064V516.284ZM372.024 512.084H367.08V517.064H372.024V512.084ZM369.276 518.264H368.292V521.648H375.468V520.844H369.276V518.264ZM374.988 514.4V511.112H374.004V518.996H374.988V515.228H376.584V514.4H374.988ZM381.371 517.712H383.831V519.752H381.371V517.712ZM384.803 519.752V517.712H386.483V516.908H379.859V515.18H386.231V511.916H378.863V512.72H385.271V514.388H378.887V517.712H380.399V519.752H377.663V520.556H387.443V519.752H384.803Z" fill="#969696"/>
<g filter="url(#filter5_d)">
<rect x="84" y="564" width="328" height="80" fill="white"/>
</g>
<path d="M102.32 612.88C103.693 613.013 104.74 613.44 105.46 614.16C106.18 614.867 106.54 615.773 106.54 616.88C106.54 617.68 106.34 618.407 105.94 619.06C105.54 619.7 104.94 620.213 104.14 620.6C103.353 620.973 102.387 621.16 101.24 621.16C100.24 621.16 99.28 621.013 98.36 620.72C97.44 620.413 96.6867 619.993 96.1 619.46L97.02 617.88C97.5 618.333 98.1133 618.7 98.86 618.98C99.6067 619.247 100.4 619.38 101.24 619.38C102.28 619.38 103.087 619.16 103.66 618.72C104.247 618.28 104.54 617.673 104.54 616.9C104.54 616.127 104.253 615.527 103.68 615.1C103.107 614.673 102.24 614.46 101.08 614.46H99.96V613.06L103.48 608.74H96.74V607H105.98V608.36L102.32 612.88ZM109.745 618.38C110.119 618.38 110.425 618.513 110.665 618.78C110.919 619.033 111.045 619.353 111.045 619.74C111.045 619.94 111.019 620.133 110.965 620.32C110.925 620.507 110.839 620.793 110.705 621.18L109.765 623.96H108.505L109.245 620.98C108.992 620.887 108.785 620.733 108.625 620.52C108.479 620.293 108.405 620.033 108.405 619.74C108.405 619.34 108.532 619.013 108.785 618.76C109.039 618.507 109.359 618.38 109.745 618.38ZM116.937 612.58C118.937 612.58 120.403 612.96 121.337 613.72C122.283 614.467 122.757 615.493 122.757 616.8C122.757 617.627 122.557 618.373 122.157 619.04C121.77 619.693 121.177 620.213 120.377 620.6C119.59 620.973 118.617 621.16 117.457 621.16C116.47 621.16 115.517 621.013 114.597 620.72C113.677 620.413 112.917 619.993 112.317 619.46L113.237 617.88C113.717 618.333 114.33 618.7 115.077 618.98C115.823 619.247 116.61 619.38 117.437 619.38C118.49 619.38 119.303 619.16 119.877 618.72C120.463 618.267 120.757 617.653 120.757 616.88C120.757 616.04 120.437 615.407 119.797 614.98C119.157 614.54 118.063 614.32 116.517 614.32H113.337L114.077 607H121.977V608.74H115.757L115.377 612.58H116.937ZM128.323 612.58C130.323 612.58 131.79 612.96 132.723 613.72C133.67 614.467 134.143 615.493 134.143 616.8C134.143 617.627 133.943 618.373 133.543 619.04C133.157 619.693 132.563 620.213 131.763 620.6C130.977 620.973 130.003 621.16 128.843 621.16C127.857 621.16 126.903 621.013 125.983 620.72C125.063 620.413 124.303 619.993 123.703 619.46L124.623 617.88C125.103 618.333 125.717 618.7 126.463 618.98C127.21 619.247 127.997 619.38 128.823 619.38C129.877 619.38 130.69 619.16 131.263 618.72C131.85 618.267 132.143 617.653 132.143 616.88C132.143 616.04 131.823 615.407 131.183 614.98C130.543 614.54 129.45 614.32 127.903 614.32H124.723L125.463 607H133.363V608.74H127.143L126.763 612.58H128.323ZM141.528 621.16C140.421 621.16 139.434 620.88 138.568 620.32C137.714 619.747 137.041 618.92 136.548 617.84C136.054 616.76 135.808 615.48 135.808 614C135.808 612.52 136.054 611.24 136.548 610.16C137.041 609.08 137.714 608.26 138.568 607.7C139.434 607.127 140.421 606.84 141.528 606.84C142.621 606.84 143.594 607.127 144.448 607.7C145.314 608.26 145.994 609.08 146.488 610.16C146.981 611.24 147.228 612.52 147.228 614C147.228 615.48 146.981 616.76 146.488 617.84C145.994 618.92 145.314 619.747 144.448 620.32C143.594 620.88 142.621 621.16 141.528 621.16ZM141.528 619.38C142.648 619.38 143.541 618.92 144.208 618C144.888 617.08 145.228 615.747 145.228 614C145.228 612.253 144.888 610.92 144.208 610C143.541 609.08 142.648 608.62 141.528 608.62C140.394 608.62 139.488 609.08 138.808 610C138.141 610.92 137.808 612.253 137.808 614C137.808 615.747 138.141 617.08 138.808 618C139.488 618.92 140.394 619.38 141.528 619.38ZM150.253 618.38C150.626 618.38 150.933 618.513 151.173 618.78C151.426 619.033 151.553 619.353 151.553 619.74C151.553 619.94 151.526 620.133 151.473 620.32C151.433 620.507 151.346 620.793 151.213 621.18L150.273 623.96H149.013L149.753 620.98C149.5 620.887 149.293 620.733 149.133 620.52C148.986 620.293 148.913 620.033 148.913 619.74C148.913 619.34 149.04 619.013 149.293 618.76C149.546 618.507 149.866 618.38 150.253 618.38ZM158.93 621.16C157.823 621.16 156.837 620.88 155.97 620.32C155.117 619.747 154.443 618.92 153.95 617.84C153.457 616.76 153.21 615.48 153.21 614C153.21 612.52 153.457 611.24 153.95 610.16C154.443 609.08 155.117 608.26 155.97 607.7C156.837 607.127 157.823 606.84 158.93 606.84C160.023 606.84 160.997 607.127 161.85 607.7C162.717 608.26 163.397 609.08 163.89 610.16C164.383 611.24 164.63 612.52 164.63 614C164.63 615.48 164.383 616.76 163.89 617.84C163.397 618.92 162.717 619.747 161.85 620.32C160.997 620.88 160.023 621.16 158.93 621.16ZM158.93 619.38C160.05 619.38 160.943 618.92 161.61 618C162.29 617.08 162.63 615.747 162.63 614C162.63 612.253 162.29 610.92 161.61 610C160.943 609.08 160.05 608.62 158.93 608.62C157.797 608.62 156.89 609.08 156.21 610C155.543 610.92 155.21 612.253 155.21 614C155.21 615.747 155.543 617.08 156.21 618C156.89 618.92 157.797 619.38 158.93 619.38ZM172.27 621.16C171.163 621.16 170.177 620.88 169.31 620.32C168.457 619.747 167.783 618.92 167.29 617.84C166.797 616.76 166.55 615.48 166.55 614C166.55 612.52 166.797 611.24 167.29 610.16C167.783 609.08 168.457 608.26 169.31 607.7C170.177 607.127 171.163 606.84 172.27 606.84C173.363 606.84 174.337 607.127 175.19 607.7C176.057 608.26 176.737 609.08 177.23 610.16C177.723 611.24 177.97 612.52 177.97 614C177.97 615.48 177.723 616.76 177.23 617.84C176.737 618.92 176.057 619.747 175.19 620.32C174.337 620.88 173.363 621.16 172.27 621.16ZM172.27 619.38C173.39 619.38 174.283 618.92 174.95 618C175.63 617.08 175.97 615.747 175.97 614C175.97 612.253 175.63 610.92 174.95 610C174.283 609.08 173.39 608.62 172.27 608.62C171.137 608.62 170.23 609.08 169.55 610C168.883 610.92 168.55 612.253 168.55 614C168.55 615.747 168.883 617.08 169.55 618C170.23 618.92 171.137 619.38 172.27 619.38ZM185.61 621.16C184.503 621.16 183.516 620.88 182.65 620.32C181.796 619.747 181.123 618.92 180.63 617.84C180.136 616.76 179.89 615.48 179.89 614C179.89 612.52 180.136 611.24 180.63 610.16C181.123 609.08 181.796 608.26 182.65 607.7C183.516 607.127 184.503 606.84 185.61 606.84C186.703 606.84 187.676 607.127 188.53 607.7C189.396 608.26 190.076 609.08 190.57 610.16C191.063 611.24 191.31 612.52 191.31 614C191.31 615.48 191.063 616.76 190.57 617.84C190.076 618.92 189.396 619.747 188.53 620.32C187.676 620.88 186.703 621.16 185.61 621.16ZM185.61 619.38C186.73 619.38 187.623 618.92 188.29 618C188.97 617.08 189.31 615.747 189.31 614C189.31 612.253 188.97 610.92 188.29 610C187.623 609.08 186.73 608.62 185.61 608.62C184.476 608.62 183.57 609.08 182.89 610C182.223 610.92 181.89 612.253 181.89 614C181.89 615.747 182.223 617.08 182.89 618C183.57 618.92 184.476 619.38 185.61 619.38Z" fill="black"/>
<path d="M200.31 616.71L198.88 618.16V620H198.14V613H198.88V617.23L202.99 613H203.84L200.81 616.17L204.05 620H203.17L200.31 616.71ZM210.029 620L208.429 617.75C208.249 617.77 208.063 617.78 207.869 617.78H205.989V620H205.249V613H207.869C208.763 613 209.463 613.213 209.969 613.64C210.476 614.067 210.729 614.653 210.729 615.4C210.729 615.947 210.589 616.41 210.309 616.79C210.036 617.163 209.643 617.433 209.129 617.6L210.839 620H210.029ZM207.849 617.15C208.543 617.15 209.073 616.997 209.439 616.69C209.806 616.383 209.989 615.953 209.989 615.4C209.989 614.833 209.806 614.4 209.439 614.1C209.073 613.793 208.543 613.64 207.849 613.64H205.989V617.15H207.849ZM222.086 613L219.726 620H218.946L216.896 614.03L214.836 620H214.066L211.706 613H212.466L214.486 619.02L216.576 613H217.266L219.326 619.05L221.376 613H222.086Z" fill="black"/>
<path d="M101.3 594.36V595H96.39V594.49L99.3 591.64C99.6667 591.28 99.9133 590.97 100.04 590.71C100.173 590.443 100.24 590.177 100.24 589.91C100.24 589.497 100.097 589.177 99.81 588.95C99.53 588.717 99.1267 588.6 98.6 588.6C97.78 588.6 97.1433 588.86 96.69 589.38L96.18 588.94C96.4533 588.62 96.8 588.373 97.22 588.2C97.6467 588.027 98.1267 587.94 98.66 587.94C99.3733 587.94 99.9367 588.11 100.35 588.45C100.77 588.783 100.98 589.243 100.98 589.83C100.98 590.19 100.9 590.537 100.74 590.87C100.58 591.203 100.277 591.587 99.83 592.02L97.45 594.36H101.3ZM104.955 595.06C104.415 595.06 103.931 594.917 103.505 594.63C103.085 594.343 102.755 593.933 102.515 593.4C102.281 592.86 102.165 592.227 102.165 591.5C102.165 590.773 102.281 590.143 102.515 589.61C102.755 589.07 103.085 588.657 103.505 588.37C103.931 588.083 104.415 587.94 104.955 587.94C105.495 587.94 105.975 588.083 106.395 588.37C106.821 588.657 107.155 589.07 107.395 589.61C107.635 590.143 107.755 590.773 107.755 591.5C107.755 592.227 107.635 592.86 107.395 593.4C107.155 593.933 106.821 594.343 106.395 594.63C105.975 594.917 105.495 595.06 104.955 595.06ZM104.955 594.4C105.361 594.4 105.718 594.287 106.025 594.06C106.338 593.833 106.581 593.503 106.755 593.07C106.928 592.637 107.015 592.113 107.015 591.5C107.015 590.887 106.928 590.363 106.755 589.93C106.581 589.497 106.338 589.167 106.025 588.94C105.718 588.713 105.361 588.6 104.955 588.6C104.548 588.6 104.188 588.713 103.875 588.94C103.568 589.167 103.328 589.497 103.155 589.93C102.981 590.363 102.895 590.887 102.895 591.5C102.895 592.113 102.981 592.637 103.155 593.07C103.328 593.503 103.568 593.833 103.875 594.06C104.188 594.287 104.548 594.4 104.955 594.4ZM113.546 594.36V595H108.636V594.49L111.546 591.64C111.913 591.28 112.159 590.97 112.286 590.71C112.419 590.443 112.486 590.177 112.486 589.91C112.486 589.497 112.343 589.177 112.056 588.95C111.776 588.717 111.373 588.6 110.846 588.6C110.026 588.6 109.389 588.86 108.936 589.38L108.426 588.94C108.699 588.62 109.046 588.373 109.466 588.2C109.893 588.027 110.373 587.94 110.906 587.94C111.619 587.94 112.183 588.11 112.596 588.45C113.016 588.783 113.226 589.243 113.226 589.83C113.226 590.19 113.146 590.537 112.986 590.87C112.826 591.203 112.523 591.587 112.076 592.02L109.696 594.36H113.546ZM117.201 595.06C116.661 595.06 116.177 594.917 115.751 594.63C115.331 594.343 115.001 593.933 114.761 593.4C114.527 592.86 114.411 592.227 114.411 591.5C114.411 590.773 114.527 590.143 114.761 589.61C115.001 589.07 115.331 588.657 115.751 588.37C116.177 588.083 116.661 587.94 117.201 587.94C117.741 587.94 118.221 588.083 118.641 588.37C119.067 588.657 119.401 589.07 119.641 589.61C119.881 590.143 120.001 590.773 120.001 591.5C120.001 592.227 119.881 592.86 119.641 593.4C119.401 593.933 119.067 594.343 118.641 594.63C118.221 594.917 117.741 595.06 117.201 595.06ZM117.201 594.4C117.607 594.4 117.964 594.287 118.271 594.06C118.584 593.833 118.827 593.503 119.001 593.07C119.174 592.637 119.261 592.113 119.261 591.5C119.261 590.887 119.174 590.363 119.001 589.93C118.827 589.497 118.584 589.167 118.271 588.94C117.964 588.713 117.607 588.6 117.201 588.6C116.794 588.6 116.434 588.713 116.121 588.94C115.814 589.167 115.574 589.497 115.401 589.93C115.227 590.363 115.141 590.887 115.141 591.5C115.141 592.113 115.227 592.637 115.401 593.07C115.574 593.503 115.814 593.833 116.121 594.06C116.434 594.287 116.794 594.4 117.201 594.4ZM121.464 595.05C121.318 595.05 121.191 594.997 121.084 594.89C120.984 594.783 120.934 594.653 120.934 594.5C120.934 594.347 120.984 594.22 121.084 594.12C121.191 594.013 121.318 593.96 121.464 593.96C121.611 593.96 121.738 594.013 121.844 594.12C121.951 594.22 122.004 594.347 122.004 594.5C122.004 594.653 121.951 594.783 121.844 594.89C121.738 594.997 121.611 595.05 121.464 595.05ZM125.726 595.06C125.186 595.06 124.703 594.917 124.276 594.63C123.856 594.343 123.526 593.933 123.286 593.4C123.053 592.86 122.936 592.227 122.936 591.5C122.936 590.773 123.053 590.143 123.286 589.61C123.526 589.07 123.856 588.657 124.276 588.37C124.703 588.083 125.186 587.94 125.726 587.94C126.266 587.94 126.746 588.083 127.166 588.37C127.593 588.657 127.926 589.07 128.166 589.61C128.406 590.143 128.526 590.773 128.526 591.5C128.526 592.227 128.406 592.86 128.166 593.4C127.926 593.933 127.593 594.343 127.166 594.63C126.746 594.917 126.266 595.06 125.726 595.06ZM125.726 594.4C126.133 594.4 126.489 594.287 126.796 594.06C127.109 593.833 127.353 593.503 127.526 593.07C127.699 592.637 127.786 592.113 127.786 591.5C127.786 590.887 127.699 590.363 127.526 589.93C127.353 589.497 127.109 589.167 126.796 588.94C126.489 588.713 126.133 588.6 125.726 588.6C125.319 588.6 124.959 588.713 124.646 588.94C124.339 589.167 124.099 589.497 123.926 589.93C123.753 590.363 123.666 590.887 123.666 591.5C123.666 592.113 123.753 592.637 123.926 593.07C124.099 593.503 124.339 593.833 124.646 594.06C124.959 594.287 125.319 594.4 125.726 594.4ZM131.839 591C132.573 591.04 133.129 591.24 133.509 591.6C133.896 591.953 134.089 592.417 134.089 592.99C134.089 593.39 133.993 593.747 133.799 594.06C133.606 594.367 133.319 594.61 132.939 594.79C132.559 594.97 132.096 595.06 131.549 595.06C131.043 595.06 130.563 594.98 130.109 594.82C129.663 594.653 129.303 594.433 129.029 594.16L129.379 593.59C129.613 593.83 129.923 594.027 130.309 594.18C130.696 594.327 131.109 594.4 131.549 594.4C132.123 594.4 132.566 594.277 132.879 594.03C133.193 593.777 133.349 593.43 133.349 592.99C133.349 592.557 133.193 592.217 132.879 591.97C132.566 591.723 132.093 591.6 131.459 591.6H130.959V591.07L132.899 588.64H129.319V588H133.819V588.51L131.839 591Z" fill="#969696"/>
<path d="M345.194 600.288V601.08H349.238C349.034 603.636 347.594 605.7 344.702 607.08L345.23 607.884C348.806 606.132 350.234 603.396 350.234 600.288H345.194ZM352.406 599.124V609.888H353.39V599.124H352.406ZM356.053 599.964V600.768H360.013C359.809 602.664 358.153 604.188 355.621 604.98L356.017 605.76C359.113 604.788 361.069 602.748 361.069 599.964H356.053ZM358.225 606.192H357.241V609.648H364.417V608.844H358.225V606.192ZM363.949 602.4V599.136H362.965V606.996H363.949V603.216H365.545V602.4H363.949ZM371.064 604.284H368.04V600.876H371.064V604.284ZM372.024 600.084H367.08V605.064H372.024V600.084ZM369.276 606.264H368.292V609.648H375.468V608.844H369.276V606.264ZM374.988 602.4V599.112H374.004V606.996H374.988V603.228H376.584V602.4H374.988ZM381.371 605.712H383.831V607.752H381.371V605.712ZM384.803 607.752V605.712H386.483V604.908H379.859V603.18H386.231V599.916H378.863V600.72H385.271V602.388H378.887V605.712H380.399V607.752H377.663V608.556H387.443V607.752H384.803Z" fill="#969696"/>
<path d="M88.608 367.188H91.02V366.168H84.948V367.188H87.36V368.22C87.36 370.08 86.244 372.096 84.564 372.876L85.272 373.86C86.544 373.248 87.516 371.964 87.996 370.452C88.5 371.856 89.472 373.032 90.732 373.584L91.416 372.612C89.724 371.892 88.608 370.02 88.608 368.22V367.188ZM92.28 365.088V375.924H93.528V365.088H92.28ZM101.891 369.552C100.283 369.876 98.7831 369.984 97.3671 370.008V365.844H96.1311V371.028H97.0071C98.5911 371.028 100.235 370.92 102.047 370.56L101.891 369.552ZM98.5191 372.156H97.2711V375.72H104.483V374.712H98.5191V372.156ZM104.111 368.232V365.1H102.875V372.9H104.111V369.264H105.647V368.232H104.111ZM115.205 367.812V368.82H117.125V371.544H118.361V365.088H117.125V367.812H115.205ZM115.829 370.224C114.209 369.66 113.285 368.316 113.285 366.96V366.816H115.541V365.82H109.745V366.816H112.037V366.972C112.037 368.46 111.065 369.9 109.385 370.5L110.021 371.484C111.305 371.028 112.217 370.068 112.697 368.88C113.153 369.924 114.017 370.776 115.217 371.196L115.829 370.224ZM114.761 374.976C113.213 374.976 112.337 374.592 112.337 373.884C112.337 373.176 113.213 372.792 114.761 372.792C116.285 372.792 117.173 373.176 117.173 373.884C117.173 374.592 116.285 374.976 114.761 374.976ZM114.761 371.832C112.493 371.832 111.101 372.6 111.101 373.884C111.101 375.18 112.493 375.936 114.761 375.936C117.017 375.936 118.409 375.18 118.409 373.884C118.409 372.6 117.017 371.832 114.761 371.832ZM126.809 370.392C125.165 369.828 124.229 368.46 124.229 367.02V365.748H122.98V367.008C122.98 368.592 122.057 370.056 120.317 370.644L120.989 371.604C122.261 371.148 123.161 370.224 123.629 369.036C124.109 370.092 124.985 370.956 126.185 371.376L126.809 370.392ZM123.281 372.3H122.045V375.72H129.317V374.712H123.281V372.3ZM128.885 368.328V365.076H127.649V373.068H128.885V369.348H130.421V368.328H128.885ZM135.875 366.336H134.639V373.188H135.359C136.487 373.188 137.735 373.128 139.187 372.864L139.055 371.808C137.879 372.024 136.835 372.108 135.875 372.132V366.336ZM142.199 365.088V369.396H140.915V365.304H139.751V375.384H140.915V370.416H142.199V375.924H143.375V365.088H142.199ZM146.866 373.032H152.938V375.936H154.174V372.036H146.866V373.032ZM150.886 369.012C150.946 368.796 150.982 368.556 150.982 368.316C150.982 368.064 150.946 367.836 150.898 367.62H152.938V369.012H150.886ZM148.162 369.9C147.226 369.9 146.518 369.264 146.518 368.316C146.518 367.368 147.226 366.72 148.162 366.72C149.098 366.72 149.806 367.368 149.806 368.316C149.806 369.264 149.098 369.9 148.162 369.9ZM152.938 365.088V366.612H150.37C149.866 366.036 149.074 365.676 148.162 365.676C146.554 365.676 145.342 366.768 145.342 368.316C145.342 369.852 146.554 370.956 148.162 370.956C149.074 370.968 149.866 370.608 150.37 370.02H152.938V371.496H154.174V365.076L152.938 365.088Z" fill="black"/>
<rect x="64" y="4" width="368" height="788" rx="44" stroke="#350064" stroke-width="8"/>
</g>
<defs>
<filter id="filter0_d" x="0" y="0" width="496" height="916" filterUnits="userSpaceOnUse" color-interpolation-filters="sRGB">
<feFlood flood-opacity="0" result="BackgroundImageFix"/>
<feColorMatrix in="SourceAlpha" type="matrix" values="0 0 0 0 0 0 0 0 0 0 0 0 0 0 0 0 0 0 127 0"/>
<feOffset dy="60"/>
<feGaussianBlur stdDeviation="30"/>
<feColorMatrix type="matrix" values="0 0 0 0 0 0 0 0 0 0 0 0 0 0 0 0 0 0 0.1 0"/>
<feBlend mode="normal" in2="BackgroundImageFix" result="effect1_dropShadow"/>
<feBlend mode="normal" in="SourceGraphic" in2="effect1_dropShadow" result="shape"/>
</filter>
<filter id="filter1_d" x="72" y="114" width="352" height="104" filterUnits="userSpaceOnUse" color-interpolation-filters="sRGB">
<feFlood flood-opacity="0" result="BackgroundImageFix"/>
<feColorMatrix in="SourceAlpha" type="matrix" values="0 0 0 0 0 0 0 0 0 0 0 0 0 0 0 0 0 0 127 0"/>
<feOffset dy="2"/>
<feGaussianBlur stdDeviation="6"/>
<feColorMatrix type="matrix" values="0 0 0 0 0 0 0 0 0 0 0 0 0 0 0 0 0 0 0.08 0"/>
<feBlend mode="normal" in2="BackgroundImageFix" result="effect1_dropShadow"/>
<feBlend mode="normal" in="SourceGraphic" in2="effect1_dropShadow" result="shape"/>
</filter>
<filter id="filter2_d" x="72" y="202" width="352" height="132" filterUnits="userSpaceOnUse" color-interpolation-filters="sRGB">
<feFlood flood-opacity="0" result="BackgroundImageFix"/>
<feColorMatrix in="SourceAlpha" type="matrix" values="0 0 0 0 0 0 0 0 0 0 0 0 0 0 0 0 0 0 127 0"/>
<feOffset dy="2"/>
<feGaussianBlur stdDeviation="6"/>
<feColorMatrix type="matrix" values="0 0 0 0 0 0 0 0 0 0 0 0 0 0 0 0 0 0 0.08 0"/>
<feBlend mode="normal" in2="BackgroundImageFix" result="effect1_dropShadow"/>
<feBlend mode="normal" in="SourceGraphic" in2="effect1_dropShadow" result="shape"/>
</filter>
<filter id="filter3_d" x="72" y="378" width="352" height="104" filterUnits="userSpaceOnUse" color-interpolation-filters="sRGB">
<feFlood flood-opacity="0" result="BackgroundImageFix"/>
<feColorMatrix in="SourceAlpha" type="matrix" values="0 0 0 0 0 0 0 0 0 0 0 0 0 0 0 0 0 0 127 0"/>
<feOffset dy="2"/>
<feGaussianBlur stdDeviation="6"/>
<feColorMatrix type="matrix" values="0 0 0 0 0 0 0 0 0 0 0 0 0 0 0 0 0 0 0.08 0"/>
<feBlend mode="normal" in2="BackgroundImageFix" result="effect1_dropShadow"/>
<feBlend mode="normal" in="SourceGraphic" in2="effect1_dropShadow" result="shape"/>
</filter>
<filter id="filter4_d" x="72" y="466" width="352" height="104" filterUnits="userSpaceOnUse" color-interpolation-filters="sRGB">
<feFlood flood-opacity="0" result="BackgroundImageFix"/>
<feColorMatrix in="SourceAlpha" type="matrix" values="0 0 0 0 0 0 0 0 0 0 0 0 0 0 0 0 0 0 127 0"/>
<feOffset dy="2"/>
<feGaussianBlur stdDeviation="6"/>
<feColorMatrix type="matrix" values="0 0 0 0 0 0 0 0 0 0 0 0 0 0 0 0 0 0 0.08 0"/>
<feBlend mode="normal" in2="BackgroundImageFix" result="effect1_dropShadow"/>
<feBlend mode="normal" in="SourceGraphic" in2="effect1_dropShadow" result="shape"/>
</filter>
<filter id="filter5_d" x="72" y="554" width="352" height="104" filterUnits="userSpaceOnUse" color-interpolation-filters="sRGB">
<feFlood flood-opacity="0" result="BackgroundImageFix"/>
<feColorMatrix in="SourceAlpha" type="matrix" values="0 0 0 0 0 0 0 0 0 0 0 0 0 0 0 0 0 0 127 0"/>
<feOffset dy="2"/>
<feGaussianBlur stdDeviation="6"/>
<feColorMatrix type="matrix" values="0 0 0 0 0 0 0 0 0 0 0 0 0 0 0 0 0 0 0.08 0"/>
<feBlend mode="normal" in2="BackgroundImageFix" result="effect1_dropShadow"/>
<feBlend mode="normal" in="SourceGraphic" in2="effect1_dropShadow" result="shape"/>
</filter>
<linearGradient id="paint0_linear" x1="220" y1="253.005" x2="120.536" y2="253.005" gradientUnits="userSpaceOnUse">
<stop stop-color="#500096"/>
<stop offset="1" stop-color="#0050FF"/>
</linearGradient>
<linearGradient id="paint1_linear" x1="124" y1="277.005" x2="120.021" y2="277.005" gradientUnits="userSpaceOnUse">
<stop stop-color="#500096"/>
<stop offset="1" stop-color="#0050FF"/>
</linearGradient>
<linearGradient id="paint2_linear" x1="280" y1="301.005" x2="120.857" y2="301.005" gradientUnits="userSpaceOnUse">
<stop stop-color="#500096"/>
<stop offset="1" stop-color="#0050FF"/>
</linearGradient>
</defs>
</svg>
