<svg width="1920" height="1080" viewBox="0 0 1920 1080" fill="none" xmlns="http://www.w3.org/2000/svg">
<rect width="1920" height="1080" fill="white"/>
<path d="M275.566 500.523L275.544 490.723L270.687 498.833H269.462L264.604 490.85V500.523H261.985V485.739H264.245L270.117 495.539L275.882 485.739H278.142L278.163 500.523H275.566ZM286.972 500.671C285.832 500.671 284.804 500.424 283.888 499.932C282.973 499.439 282.255 498.756 281.734 497.883C281.227 496.996 280.974 495.996 280.974 494.884C280.974 493.772 281.227 492.779 281.734 491.906C282.255 491.033 282.973 490.35 283.888 489.857C284.804 489.364 285.832 489.118 286.972 489.118C288.127 489.118 289.161 489.364 290.077 489.857C290.992 490.35 291.703 491.033 292.21 491.906C292.731 492.779 292.991 493.772 292.991 494.884C292.991 495.996 292.731 496.996 292.21 497.883C291.703 498.756 290.992 499.439 290.077 499.932C289.161 500.424 288.127 500.671 286.972 500.671ZM286.972 498.411C287.944 498.411 288.746 498.087 289.38 497.439C290.013 496.792 290.33 495.94 290.33 494.884C290.33 493.828 290.013 492.976 289.38 492.328C288.746 491.681 287.944 491.357 286.972 491.357C286 491.357 285.198 491.681 284.564 492.328C283.945 492.976 283.635 493.828 283.635 494.884C283.635 495.94 283.945 496.792 284.564 497.439C285.198 498.087 286 498.411 286.972 498.411ZM301.915 489.118C303.337 489.118 304.478 489.533 305.337 490.364C306.195 491.195 306.625 492.427 306.625 494.06V500.523H303.985V494.398C303.985 493.413 303.753 492.673 303.288 492.181C302.823 491.674 302.162 491.42 301.303 491.42C300.331 491.42 299.564 491.716 299.001 492.307C298.437 492.885 298.156 493.722 298.156 494.821V500.523H295.516V489.245H298.029V490.702C298.466 490.181 299.015 489.787 299.676 489.519C300.338 489.252 301.084 489.118 301.915 489.118ZM316.753 499.91C316.444 500.164 316.064 500.354 315.613 500.481C315.177 500.607 314.712 500.671 314.219 500.671C312.98 500.671 312.023 500.347 311.347 499.699C310.671 499.052 310.333 498.108 310.333 496.869V491.441H308.474V489.329H310.333V486.753H312.973V489.329H315.993V491.441H312.973V496.806C312.973 497.355 313.107 497.777 313.374 498.073C313.642 498.355 314.029 498.495 314.536 498.495C315.127 498.495 315.62 498.341 316.014 498.031L316.753 499.91ZM322.41 500.671C321.495 500.671 320.601 500.551 319.728 500.312C318.855 500.072 318.158 499.77 317.637 499.404L318.651 497.397C319.158 497.735 319.763 498.01 320.467 498.221C321.185 498.418 321.889 498.517 322.579 498.517C324.156 498.517 324.944 498.101 324.944 497.27C324.944 496.876 324.74 496.602 324.332 496.447C323.938 496.292 323.297 496.144 322.41 496.003C321.481 495.862 320.72 495.701 320.129 495.517C319.552 495.334 319.045 495.018 318.608 494.567C318.186 494.102 317.975 493.462 317.975 492.645C317.975 491.575 318.418 490.723 319.305 490.09C320.207 489.442 321.417 489.118 322.938 489.118C323.712 489.118 324.487 489.21 325.261 489.393C326.036 489.562 326.669 489.794 327.162 490.09L326.148 492.096C325.191 491.533 324.114 491.251 322.917 491.251C322.143 491.251 321.551 491.371 321.143 491.61C320.749 491.836 320.551 492.138 320.551 492.518C320.551 492.941 320.763 493.244 321.185 493.427C321.622 493.596 322.29 493.757 323.191 493.912C324.093 494.053 324.832 494.215 325.409 494.398C325.986 494.581 326.479 494.891 326.888 495.327C327.31 495.764 327.521 496.383 327.521 497.186C327.521 498.242 327.064 499.087 326.148 499.72C325.233 500.354 323.987 500.671 322.41 500.671ZM340.397 494.947C340.397 495.13 340.383 495.391 340.355 495.729H331.505C331.66 496.559 332.062 497.221 332.709 497.714C333.371 498.193 334.188 498.432 335.159 498.432C336.398 498.432 337.419 498.024 338.222 497.207L339.637 498.833C339.13 499.439 338.489 499.896 337.715 500.206C336.94 500.516 336.067 500.671 335.096 500.671C333.857 500.671 332.766 500.424 331.822 499.932C330.879 499.439 330.147 498.756 329.626 497.883C329.119 496.996 328.865 495.996 328.865 494.884C328.865 493.786 329.112 492.8 329.605 491.927C330.111 491.04 330.808 490.35 331.695 489.857C332.583 489.364 333.582 489.118 334.695 489.118C335.793 489.118 336.771 489.364 337.63 489.857C338.503 490.336 339.179 491.019 339.658 491.906C340.151 492.779 340.397 493.793 340.397 494.947ZM334.695 491.23C333.85 491.23 333.132 491.484 332.54 491.99C331.963 492.483 331.611 493.145 331.484 493.976H337.884C337.771 493.159 337.426 492.497 336.849 491.99C336.271 491.484 335.553 491.23 334.695 491.23ZM345.446 490.892C346.206 489.709 347.544 489.118 349.459 489.118V491.631C349.234 491.589 349.03 491.568 348.846 491.568C347.819 491.568 347.016 491.871 346.439 492.476C345.861 493.068 345.573 493.926 345.573 495.053V500.523H342.933V489.245H345.446V490.892ZM354.212 490.892C354.972 489.709 356.31 489.118 358.225 489.118V491.631C357.999 491.589 357.795 491.568 357.612 491.568C356.584 491.568 355.782 491.871 355.204 492.476C354.627 493.068 354.339 493.926 354.339 495.053V500.523H351.699V489.245H354.212V490.892ZM364.711 489.118C366.372 489.118 367.639 489.519 368.512 490.322C369.399 491.11 369.843 492.307 369.843 493.912V500.523H367.351V499.15C367.027 499.643 366.562 500.023 365.957 500.291C365.366 500.544 364.647 500.671 363.803 500.671C362.958 500.671 362.219 500.53 361.585 500.248C360.951 499.953 360.459 499.551 360.107 499.045C359.769 498.524 359.6 497.939 359.6 497.292C359.6 496.278 359.973 495.468 360.719 494.863C361.479 494.243 362.669 493.933 364.288 493.933H367.203V493.765C367.203 492.976 366.964 492.371 366.485 491.948C366.02 491.526 365.323 491.315 364.394 491.315C363.76 491.315 363.134 491.413 362.514 491.61C361.909 491.807 361.395 492.082 360.973 492.434L359.938 490.512C360.529 490.061 361.24 489.716 362.071 489.477C362.902 489.238 363.782 489.118 364.711 489.118ZM364.352 498.749C365.014 498.749 365.598 498.601 366.105 498.305C366.626 497.996 366.992 497.559 367.203 496.996V495.686H364.478C362.958 495.686 362.198 496.186 362.198 497.186C362.198 497.665 362.388 498.045 362.768 498.326C363.148 498.608 363.676 498.749 364.352 498.749ZM380.011 499.91C379.701 500.164 379.321 500.354 378.87 500.481C378.434 500.607 377.969 500.671 377.476 500.671C376.237 500.671 375.28 500.347 374.604 499.699C373.928 499.052 373.59 498.108 373.59 496.869V491.441H371.732V489.329H373.59V486.753H376.23V489.329H379.25V491.441H376.23V496.806C376.23 497.355 376.364 497.777 376.631 498.073C376.899 498.355 377.286 498.495 377.793 498.495C378.384 498.495 378.877 498.341 379.271 498.031L380.011 499.91Z" fill="black"/>
<path d="M261.922 750.636H264.879V744.364C264.879 742.568 264.646 740.604 264.499 738.915H264.604L266.188 742.273L270.708 750.636H273.876V735.007H270.919V741.238C270.919 743.012 271.151 745.082 271.32 746.708H271.215L269.652 743.329L265.111 735.007H261.922V750.636ZM282.43 750.932C285.387 750.932 288.111 748.651 288.111 744.744C288.111 740.794 285.387 738.513 282.43 738.513C279.473 738.513 276.749 740.794 276.749 744.744C276.749 748.651 279.473 750.932 282.43 750.932ZM282.43 748.398C280.825 748.398 279.917 746.961 279.917 744.744C279.917 742.505 280.825 741.048 282.43 741.048C284.035 741.048 284.943 742.505 284.943 744.744C284.943 746.961 284.035 748.398 282.43 748.398ZM294.44 750.932C295.475 750.932 296.299 750.7 296.932 750.488L296.425 748.229C296.109 748.355 295.644 748.482 295.264 748.482C294.208 748.482 293.659 747.848 293.659 746.497V741.259H296.573V738.809H293.659V735.641H291.061L290.702 738.809L288.886 738.957V741.259H290.554V746.497C290.554 749.158 291.631 750.932 294.44 750.932ZM303.53 750.932C306.486 750.932 309.211 748.651 309.211 744.744C309.211 740.794 306.486 738.513 303.53 738.513C300.573 738.513 297.848 740.794 297.848 744.744C297.848 748.651 300.573 750.932 303.53 750.932ZM303.53 748.398C301.924 748.398 301.016 746.961 301.016 744.744C301.016 742.505 301.924 741.048 303.53 741.048C305.135 741.048 306.043 742.505 306.043 744.744C306.043 746.961 305.135 748.398 303.53 748.398ZM319.972 750.932C323.056 750.932 324.682 749.263 324.682 747.194C324.682 744.997 322.95 744.216 321.387 743.624C320.141 743.16 318.98 742.843 318.98 741.977C318.98 741.301 319.487 740.837 320.543 740.837C321.43 740.837 322.253 741.259 323.098 741.85L324.492 739.971C323.499 739.231 322.19 738.513 320.458 738.513C317.797 738.513 316.065 740.013 316.065 742.146C316.065 744.11 317.797 745.018 319.296 745.589C320.543 746.074 321.768 746.476 321.768 747.363C321.768 748.102 321.24 748.609 320.057 748.609C318.959 748.609 317.945 748.144 316.889 747.32L315.474 749.263C316.635 750.235 318.388 750.932 319.972 750.932ZM329.965 750.932C331.316 750.932 332.499 750.256 333.534 749.369H333.597L333.83 750.636H336.364V743.73C336.364 740.309 334.822 738.513 331.823 738.513C329.965 738.513 328.275 739.21 326.881 740.076L328 742.125C329.099 741.491 330.155 741.005 331.253 741.005C332.71 741.005 333.217 741.893 333.259 743.054C328.507 743.561 326.459 744.892 326.459 747.426C326.459 749.432 327.853 750.932 329.965 750.932ZM330.978 748.503C330.07 748.503 329.415 748.102 329.415 747.173C329.415 746.117 330.387 745.335 333.259 744.955V747.341C332.52 748.081 331.865 748.503 330.978 748.503ZM339.528 750.636H342.612V742.505C343.499 741.639 344.111 741.174 345.083 741.174C346.244 741.174 346.751 741.829 346.751 743.645V750.636H349.856V743.265C349.856 740.287 348.758 738.513 346.202 738.513C344.597 738.513 343.393 739.358 342.358 740.372H342.274L342.063 738.809H339.528V750.636ZM356.437 750.932C359.521 750.932 361.147 749.263 361.147 747.194C361.147 744.997 359.415 744.216 357.853 743.624C356.606 743.16 355.445 742.843 355.445 741.977C355.445 741.301 355.952 740.837 357.008 740.837C357.895 740.837 358.718 741.259 359.563 741.85L360.957 739.971C359.965 739.231 358.655 738.513 356.923 738.513C354.262 738.513 352.53 740.013 352.53 742.146C352.53 744.11 354.262 745.018 355.762 745.589C357.008 746.074 358.233 746.476 358.233 747.363C358.233 748.102 357.705 748.609 356.522 748.609C355.424 748.609 354.41 748.144 353.354 747.32L351.939 749.263C353.101 750.235 354.853 750.932 356.437 750.932ZM374.932 750.932C376.959 750.932 378.628 750.129 379.916 748.63L378.269 746.687C377.424 747.595 376.368 748.229 375.038 748.229C372.566 748.229 370.961 746.18 370.961 742.78C370.961 739.421 372.735 737.394 375.101 737.394C376.284 737.394 377.192 737.943 377.973 738.703L379.621 736.718C378.607 735.662 377.023 734.712 375.038 734.712C371.088 734.712 367.772 737.732 367.772 742.885C367.772 748.102 370.982 750.932 374.932 750.932ZM385.587 750.932C388.945 750.932 390.424 748.524 390.424 745.589V735.007H387.298V745.335C387.298 747.489 386.58 748.229 385.207 748.229C384.32 748.229 383.496 747.743 382.884 746.602L380.73 748.186C381.786 750.003 383.306 750.932 385.587 750.932ZM394.191 750.636H397.316V746.243L399.365 743.624L403.399 750.636H406.842L401.224 741.153L405.997 735.007H402.554L397.38 741.787H397.316V735.007H394.191V750.636ZM413.454 750.636H416.58V746.243L418.629 743.624L422.663 750.636H426.105L420.487 741.153L425.261 735.007H421.818L416.644 741.787H416.58V735.007H413.454V750.636ZM431.059 737.478H433.087C435.093 737.478 436.191 738.049 436.191 739.738C436.191 741.407 435.093 742.252 433.087 742.252H431.059V737.478ZM439.93 750.636L436.276 744.237C438.071 743.54 439.254 742.083 439.254 739.738C439.254 736.148 436.656 735.007 433.382 735.007H427.933V750.636H431.059V744.723H433.234L436.445 750.636H439.93Z" fill="black"/>
<path d="M261.605 646.995H262.647V655.95H268.166V656.851H261.605V646.995ZM269.685 649.445H270.685V656.851H269.685V649.445ZM270.192 647.826C269.986 647.826 269.812 647.755 269.671 647.615C269.53 647.474 269.46 647.305 269.46 647.108C269.46 646.92 269.53 646.756 269.671 646.615C269.812 646.474 269.986 646.404 270.192 646.404C270.399 646.404 270.572 646.474 270.713 646.615C270.854 646.746 270.924 646.906 270.924 647.094C270.924 647.3 270.854 647.474 270.713 647.615C270.572 647.755 270.399 647.826 270.192 647.826ZM280.323 649.445V655.95C280.323 657.208 280.014 658.137 279.394 658.738C278.784 659.348 277.859 659.653 276.62 659.653C275.935 659.653 275.283 659.55 274.663 659.343C274.053 659.146 273.556 658.869 273.171 658.513L273.678 657.752C274.034 658.071 274.466 658.32 274.973 658.498C275.489 658.677 276.029 658.766 276.592 658.766C277.531 658.766 278.221 658.545 278.662 658.104C279.103 657.672 279.324 656.997 279.324 656.077V655.133C279.014 655.603 278.606 655.959 278.099 656.203C277.601 656.447 277.048 656.569 276.437 656.569C275.743 656.569 275.109 656.419 274.537 656.119C273.973 655.809 273.527 655.382 273.199 654.838C272.88 654.284 272.72 653.66 272.72 652.965C272.72 652.27 272.88 651.651 273.199 651.106C273.527 650.562 273.973 650.14 274.537 649.839C275.1 649.539 275.733 649.389 276.437 649.389C277.066 649.389 277.634 649.515 278.141 649.769C278.648 650.022 279.056 650.388 279.366 650.867V649.445H280.323ZM276.536 655.682C277.071 655.682 277.554 655.57 277.986 655.345C278.418 655.11 278.751 654.786 278.986 654.373C279.23 653.96 279.352 653.491 279.352 652.965C279.352 652.439 279.23 651.975 278.986 651.571C278.751 651.158 278.418 650.839 277.986 650.614C277.564 650.379 277.08 650.262 276.536 650.262C276.001 650.262 275.517 650.374 275.086 650.6C274.663 650.825 274.33 651.144 274.086 651.557C273.851 651.97 273.734 652.439 273.734 652.965C273.734 653.491 273.851 653.96 274.086 654.373C274.33 654.786 274.663 655.11 275.086 655.345C275.517 655.57 276.001 655.682 276.536 655.682ZM286.892 649.389C287.822 649.389 288.559 649.661 289.103 650.205C289.657 650.74 289.934 651.524 289.934 652.557V656.851H288.934V652.655C288.934 651.886 288.742 651.299 288.357 650.895C287.972 650.492 287.423 650.29 286.709 650.29C285.912 650.29 285.278 650.529 284.809 651.008C284.349 651.477 284.119 652.13 284.119 652.965V656.851H283.119V646.404H284.119V650.74C284.391 650.309 284.766 649.975 285.245 649.741C285.724 649.506 286.273 649.389 286.892 649.389ZM296.548 656.401C296.36 656.569 296.126 656.701 295.844 656.795C295.572 656.879 295.285 656.921 294.985 656.921C294.29 656.921 293.755 656.734 293.38 656.358C293.005 655.983 292.817 655.452 292.817 654.767V650.29H291.493V649.445H292.817V647.826H293.816V649.445H296.069V650.29H293.816V654.711C293.816 655.152 293.924 655.49 294.14 655.725C294.366 655.95 294.685 656.063 295.098 656.063C295.304 656.063 295.501 656.03 295.689 655.964C295.886 655.898 296.055 655.804 296.196 655.682L296.548 656.401Z" fill="black"/>
<path d="M261.408 905.669H267.223V904.557H262.717V895.348H261.408V905.669ZM268.927 905.669H270.208V898.023H268.927V905.669ZM269.574 896.447C270.081 896.447 270.461 896.095 270.461 895.616C270.461 895.095 270.081 894.785 269.574 894.785C269.067 894.785 268.687 895.095 268.687 895.616C268.687 896.095 269.067 896.447 269.574 896.447ZM275.381 909.189C277.746 909.189 279.239 907.964 279.239 906.542C279.239 905.289 278.352 904.726 276.578 904.726H275.085C274.057 904.726 273.748 904.388 273.748 903.895C273.748 903.472 273.959 903.219 274.24 902.98C274.578 903.149 275.001 903.247 275.381 903.247C276.93 903.247 278.169 902.219 278.169 900.586C278.169 899.924 277.915 899.361 277.549 899.009H279.112V898.023H276.451C276.183 897.925 275.803 897.826 275.381 897.826C273.832 897.826 272.508 898.882 272.508 900.558C272.508 901.473 273.001 902.205 273.508 902.614V902.67C273.114 902.951 272.649 903.458 272.649 904.092C272.649 904.697 272.945 905.106 273.353 905.345V905.401C272.635 905.866 272.213 906.486 272.213 907.133C272.213 908.457 273.508 909.189 275.381 909.189ZM275.381 902.374C274.494 902.374 273.748 901.67 273.748 900.558C273.748 899.431 274.48 898.77 275.381 898.77C276.282 898.77 277 899.446 277 900.558C277 901.67 276.254 902.374 275.381 902.374ZM275.564 908.316C274.17 908.316 273.339 907.781 273.339 906.964C273.339 906.514 273.579 906.063 274.128 905.669C274.466 905.753 274.832 905.796 275.113 905.796H276.437C277.451 905.796 278 906.035 278 906.739C278 907.542 277.028 908.316 275.564 908.316ZM280.738 905.669H282.019V900.121C282.794 899.347 283.329 898.953 284.117 898.953C285.131 898.953 285.567 899.558 285.567 900.994V905.669H286.849V900.825C286.849 898.868 286.117 897.826 284.511 897.826C283.469 897.826 282.681 898.404 281.977 899.108L282.019 897.531V894.461H280.738V905.669ZM291.698 905.852C292.163 905.852 292.67 905.711 293.106 905.57L292.853 904.613C292.599 904.712 292.247 904.81 291.98 904.81C291.093 904.81 290.797 904.275 290.797 903.332V899.065H292.867V898.023H290.797V895.883H289.727L289.572 898.023L288.375 898.094V899.065H289.516V903.303C289.516 904.838 290.065 905.852 291.698 905.852Z" fill="black"/>
<path d="M412.656 656.851L410.403 653.683C410.149 653.711 409.887 653.725 409.614 653.725H406.967V656.851H405.925V646.995H409.614C410.872 646.995 411.858 647.295 412.571 647.896C413.285 648.497 413.641 649.323 413.641 650.374C413.641 651.144 413.444 651.796 413.05 652.331C412.665 652.857 412.111 653.237 411.389 653.472L413.796 656.851H412.656ZM409.586 652.838C410.562 652.838 411.309 652.622 411.825 652.191C412.341 651.759 412.599 651.153 412.599 650.374C412.599 649.576 412.341 648.966 411.825 648.544C411.309 648.112 410.562 647.896 409.586 647.896H406.967V652.838H409.586ZM422.338 653.458H416.143C416.199 654.227 416.495 654.852 417.03 655.33C417.565 655.8 418.241 656.034 419.057 656.034C419.517 656.034 419.94 655.955 420.325 655.795C420.709 655.626 421.043 655.382 421.324 655.063L421.887 655.711C421.559 656.105 421.146 656.405 420.648 656.612C420.16 656.818 419.621 656.921 419.029 656.921C418.269 656.921 417.593 656.762 417.002 656.443C416.42 656.114 415.964 655.664 415.636 655.091C415.307 654.518 415.143 653.871 415.143 653.148C415.143 652.425 415.298 651.778 415.608 651.205C415.927 650.632 416.359 650.187 416.903 649.867C417.457 649.548 418.076 649.389 418.762 649.389C419.447 649.389 420.062 649.548 420.606 649.867C421.151 650.187 421.578 650.632 421.887 651.205C422.197 651.768 422.352 652.416 422.352 653.148L422.338 653.458ZM418.762 650.248C418.048 650.248 417.447 650.477 416.959 650.937C416.481 651.388 416.208 651.979 416.143 652.712H421.395C421.329 651.979 421.052 651.388 420.564 650.937C420.085 650.477 419.484 650.248 418.762 650.248ZM431.244 649.445V655.95C431.244 657.208 430.934 658.137 430.315 658.738C429.704 659.348 428.78 659.653 427.541 659.653C426.856 659.653 426.203 659.55 425.584 659.343C424.973 659.146 424.476 658.869 424.091 658.513L424.598 657.752C424.955 658.071 425.387 658.32 425.893 658.498C426.41 658.677 426.949 658.766 427.513 658.766C428.451 658.766 429.141 658.545 429.582 658.104C430.024 657.672 430.244 656.997 430.244 656.077V655.133C429.934 655.603 429.526 655.959 429.019 656.203C428.522 656.447 427.968 656.569 427.358 656.569C426.663 656.569 426.029 656.419 425.457 656.119C424.894 655.809 424.448 655.382 424.119 654.838C423.8 654.284 423.641 653.66 423.641 652.965C423.641 652.27 423.8 651.651 424.119 651.106C424.448 650.562 424.894 650.14 425.457 649.839C426.02 649.539 426.654 649.389 427.358 649.389C427.987 649.389 428.555 649.515 429.061 649.769C429.568 650.022 429.977 650.388 430.286 650.867V649.445H431.244ZM427.456 655.682C427.991 655.682 428.475 655.57 428.907 655.345C429.338 655.11 429.672 654.786 429.906 654.373C430.15 653.96 430.272 653.491 430.272 652.965C430.272 652.439 430.15 651.975 429.906 651.571C429.672 651.158 429.338 650.839 428.907 650.614C428.484 650.379 428.001 650.262 427.456 650.262C426.921 650.262 426.438 650.374 426.006 650.6C425.584 650.825 425.25 651.144 425.006 651.557C424.772 651.97 424.654 652.439 424.654 652.965C424.654 653.491 424.772 653.96 425.006 654.373C425.25 654.786 425.584 655.11 426.006 655.345C426.438 655.57 426.921 655.682 427.456 655.682ZM440.713 649.445V656.851H439.756V655.499C439.493 655.95 439.132 656.302 438.672 656.555C438.212 656.799 437.686 656.921 437.095 656.921C436.128 656.921 435.363 656.654 434.8 656.119C434.246 655.574 433.969 654.781 433.969 653.739V649.445H434.969V653.641C434.969 654.42 435.161 655.011 435.546 655.415C435.931 655.819 436.48 656.02 437.193 656.02C437.972 656.02 438.587 655.786 439.038 655.316C439.488 654.838 439.714 654.176 439.714 653.331V649.445H440.713ZM443.513 646.404H444.513V656.851H443.513V646.404ZM449.885 649.389C450.852 649.389 451.594 649.633 452.11 650.121C452.626 650.6 452.884 651.313 452.884 652.261V656.851H451.927V655.697C451.701 656.081 451.368 656.382 450.927 656.598C450.495 656.814 449.979 656.921 449.378 656.921C448.552 656.921 447.895 656.724 447.407 656.33C446.919 655.936 446.675 655.415 446.675 654.767C446.675 654.138 446.9 653.631 447.351 653.247C447.811 652.862 448.538 652.669 449.533 652.669H451.885V652.219C451.885 651.58 451.706 651.097 451.349 650.768C450.993 650.431 450.472 650.262 449.787 650.262C449.317 650.262 448.867 650.341 448.435 650.501C448.003 650.651 447.632 650.862 447.323 651.135L446.872 650.388C447.247 650.069 447.698 649.825 448.224 649.656C448.749 649.478 449.303 649.389 449.885 649.389ZM449.533 656.133C450.096 656.133 450.58 656.006 450.983 655.753C451.387 655.49 451.687 655.115 451.885 654.626V653.416H449.561C448.294 653.416 447.661 653.857 447.661 654.739C447.661 655.171 447.825 655.513 448.153 655.767C448.482 656.011 448.942 656.133 449.533 656.133ZM456.557 650.895C456.792 650.398 457.139 650.022 457.599 649.769C458.068 649.515 458.645 649.389 459.331 649.389V650.36L459.091 650.346C458.312 650.346 457.702 650.585 457.261 651.064C456.82 651.543 456.599 652.214 456.599 653.078V656.851H455.599V649.445H456.557V650.895Z" fill="black"/>
<path d="M405.728 905.669H408.375C411.487 905.669 413.191 903.74 413.191 900.473C413.191 897.193 411.487 895.348 408.319 895.348H405.728V905.669ZM407.038 904.599V896.404H408.206C410.642 896.404 411.839 897.855 411.839 900.473C411.839 903.078 410.642 904.599 408.206 904.599H407.038ZM418.366 905.852C419.407 905.852 420.224 905.5 420.9 905.064L420.435 904.219C419.872 904.599 419.267 904.824 418.52 904.824C417.07 904.824 416.07 903.782 415.986 902.149H421.139C421.167 901.966 421.196 901.698 421.196 901.417C421.196 899.234 420.097 897.826 418.154 897.826C416.38 897.826 414.705 899.375 414.705 901.853C414.705 904.374 416.338 905.852 418.366 905.852ZM415.972 901.234C416.127 899.727 417.084 898.854 418.168 898.854C419.365 898.854 420.069 899.685 420.069 901.234H415.972ZM423.078 905.669H424.36V900.121C425.064 899.333 425.711 898.953 426.289 898.953C427.26 898.953 427.711 899.558 427.711 900.994V905.669H428.992V900.121C429.71 899.333 430.329 898.953 430.921 898.953C431.892 898.953 432.343 899.558 432.343 900.994V905.669H433.624V900.825C433.624 898.868 432.878 897.826 431.301 897.826C430.372 897.826 429.569 898.432 428.781 899.291C428.471 898.39 427.837 897.826 426.669 897.826C425.753 897.826 424.951 898.404 424.289 899.136H424.247L424.134 898.023H423.078V905.669ZM436.113 905.669H437.395V898.023H436.113V905.669ZM436.761 896.447C437.268 896.447 437.648 896.095 437.648 895.616C437.648 895.095 437.268 894.785 436.761 894.785C436.254 894.785 435.874 895.095 435.874 895.616C435.874 896.095 436.254 896.447 436.761 896.447ZM441.343 905.852C441.68 905.852 441.906 905.81 442.089 905.739L441.906 904.754C441.765 904.782 441.709 904.782 441.638 904.782C441.441 904.782 441.272 904.627 441.272 904.233V894.461H439.991V904.148C439.991 905.232 440.385 905.852 441.343 905.852ZM444.006 905.669H445.287V898.023H444.006V905.669ZM444.654 896.447C445.16 896.447 445.541 896.095 445.541 895.616C445.541 895.095 445.16 894.785 444.654 894.785C444.147 894.785 443.766 895.095 443.766 895.616C443.766 896.095 444.147 896.447 444.654 896.447ZM450.46 909.189C452.825 909.189 454.318 907.964 454.318 906.542C454.318 905.289 453.431 904.726 451.657 904.726H450.164C449.136 904.726 448.827 904.388 448.827 903.895C448.827 903.472 449.038 903.219 449.32 902.98C449.657 903.149 450.08 903.247 450.46 903.247C452.009 903.247 453.248 902.219 453.248 900.586C453.248 899.924 452.994 899.361 452.628 899.009H454.191V898.023H451.53C451.263 897.925 450.882 897.826 450.46 897.826C448.911 897.826 447.588 898.882 447.588 900.558C447.588 901.473 448.08 902.205 448.587 902.614V902.67C448.193 902.951 447.728 903.458 447.728 904.092C447.728 904.697 448.024 905.106 448.432 905.345V905.401C447.714 905.866 447.292 906.486 447.292 907.133C447.292 908.457 448.587 909.189 450.46 909.189ZM450.46 902.374C449.573 902.374 448.827 901.67 448.827 900.558C448.827 899.431 449.559 898.77 450.46 898.77C451.361 898.77 452.079 899.446 452.079 900.558C452.079 901.67 451.333 902.374 450.46 902.374ZM450.643 908.316C449.249 908.316 448.418 907.781 448.418 906.964C448.418 906.514 448.658 906.063 449.207 905.669C449.545 905.753 449.911 905.796 450.192 905.796H451.516C452.53 905.796 453.079 906.035 453.079 906.739C453.079 907.542 452.107 908.316 450.643 908.316ZM455.817 905.669H457.098V900.121C457.873 899.347 458.408 898.953 459.196 898.953C460.21 898.953 460.647 899.558 460.647 900.994V905.669H461.928V900.825C461.928 898.868 461.196 897.826 459.591 897.826C458.549 897.826 457.76 898.404 457.056 899.108L457.098 897.531V894.461H455.817V905.669ZM466.777 905.852C467.242 905.852 467.749 905.711 468.185 905.57L467.932 904.613C467.679 904.712 467.327 904.81 467.059 904.81C466.172 904.81 465.876 904.275 465.876 903.332V899.065H467.946V898.023H465.876V895.883H464.806L464.651 898.023L463.454 898.094V899.065H464.595V903.303C464.595 904.838 465.144 905.852 466.777 905.852Z" fill="black"/>
<path d="M560.482 646.995V656.851H559.482V648.966L555.61 655.598H555.117L551.245 649.008V656.851H550.246V646.995H551.105L555.385 654.303L559.623 646.995H560.482ZM569.931 653.458H563.736C563.792 654.227 564.088 654.852 564.623 655.33C565.158 655.8 565.833 656.034 566.65 656.034C567.11 656.034 567.532 655.955 567.917 655.795C568.302 655.626 568.635 655.382 568.917 655.063L569.48 655.711C569.152 656.105 568.739 656.405 568.241 656.612C567.753 656.818 567.213 656.921 566.622 656.921C565.862 656.921 565.186 656.762 564.594 656.443C564.012 656.114 563.557 655.664 563.229 655.091C562.9 654.518 562.736 653.871 562.736 653.148C562.736 652.425 562.891 651.778 563.201 651.205C563.52 650.632 563.951 650.187 564.496 649.867C565.05 649.548 565.669 649.389 566.354 649.389C567.04 649.389 567.655 649.548 568.199 649.867C568.743 650.187 569.17 650.632 569.48 651.205C569.79 651.768 569.945 652.416 569.945 653.148L569.931 653.458ZM566.354 650.248C565.641 650.248 565.04 650.477 564.552 650.937C564.073 651.388 563.801 651.979 563.736 652.712H568.987C568.922 651.979 568.645 651.388 568.157 650.937C567.678 650.477 567.077 650.248 566.354 650.248ZM578.738 646.404V656.851H577.781V655.387C577.48 655.884 577.081 656.264 576.584 656.527C576.096 656.79 575.542 656.921 574.922 656.921C574.228 656.921 573.599 656.762 573.036 656.443C572.472 656.124 572.031 655.678 571.712 655.105C571.393 654.533 571.233 653.88 571.233 653.148C571.233 652.416 571.393 651.763 571.712 651.191C572.031 650.618 572.472 650.177 573.036 649.867C573.599 649.548 574.228 649.389 574.922 649.389C575.523 649.389 576.063 649.515 576.542 649.769C577.03 650.013 577.429 650.374 577.738 650.853V646.404H578.738ZM575.007 656.034C575.523 656.034 575.988 655.917 576.401 655.682C576.823 655.438 577.152 655.096 577.386 654.655C577.63 654.213 577.752 653.711 577.752 653.148C577.752 652.585 577.63 652.083 577.386 651.641C577.152 651.2 576.823 650.862 576.401 650.628C575.988 650.384 575.523 650.262 575.007 650.262C574.481 650.262 574.007 650.384 573.585 650.628C573.172 650.862 572.843 651.2 572.599 651.641C572.365 652.083 572.247 652.585 572.247 653.148C572.247 653.711 572.365 654.213 572.599 654.655C572.843 655.096 573.172 655.438 573.585 655.682C574.007 655.917 574.481 656.034 575.007 656.034ZM581.522 649.445H582.522V656.851H581.522V649.445ZM582.029 647.826C581.823 647.826 581.649 647.755 581.508 647.615C581.367 647.474 581.297 647.305 581.297 647.108C581.297 646.92 581.367 646.756 581.508 646.615C581.649 646.474 581.823 646.404 582.029 646.404C582.236 646.404 582.409 646.474 582.55 646.615C582.691 646.746 582.761 646.906 582.761 647.094C582.761 647.3 582.691 647.474 582.55 647.615C582.409 647.755 582.236 647.826 582.029 647.826ZM591.977 649.445V656.851H591.02V655.499C590.757 655.95 590.396 656.302 589.936 656.555C589.476 656.799 588.95 656.921 588.359 656.921C587.392 656.921 586.627 656.654 586.064 656.119C585.51 655.574 585.233 654.781 585.233 653.739V649.445H586.233V653.641C586.233 654.42 586.425 655.011 586.81 655.415C587.195 655.819 587.744 656.02 588.457 656.02C589.236 656.02 589.851 655.786 590.302 655.316C590.752 654.838 590.978 654.176 590.978 653.331V649.445H591.977ZM604.014 649.389C604.943 649.389 605.671 649.656 606.196 650.191C606.731 650.726 606.999 651.515 606.999 652.557V656.851H605.999V652.655C605.999 651.886 605.811 651.299 605.436 650.895C605.07 650.492 604.549 650.29 603.873 650.29C603.103 650.29 602.498 650.529 602.057 651.008C601.615 651.477 601.395 652.13 601.395 652.965V656.851H600.395V652.655C600.395 651.886 600.207 651.299 599.832 650.895C599.466 650.492 598.94 650.29 598.255 650.29C597.495 650.29 596.889 650.529 596.439 651.008C595.998 651.477 595.777 652.13 595.777 652.965V656.851H594.777V649.445H595.735V650.797C595.998 650.346 596.364 649.999 596.833 649.755C597.302 649.511 597.842 649.389 598.452 649.389C599.072 649.389 599.607 649.52 600.057 649.783C600.517 650.046 600.86 650.435 601.085 650.952C601.357 650.463 601.747 650.083 602.254 649.811C602.77 649.529 603.357 649.389 604.014 649.389Z" fill="black"/>
<path d="M551.358 896.404H553.09C554.709 896.404 555.596 896.883 555.596 898.249C555.596 899.586 554.709 900.234 553.09 900.234H551.358V896.404ZM557.201 905.669L554.554 901.149C555.962 900.811 556.892 899.854 556.892 898.249C556.892 896.095 555.385 895.348 553.287 895.348H550.049V905.669H551.358V901.29H553.217L555.723 905.669H557.201ZM561.806 905.852C562.848 905.852 563.664 905.5 564.34 905.064L563.876 904.219C563.312 904.599 562.707 904.824 561.961 904.824C560.51 904.824 559.511 903.782 559.426 902.149H564.58C564.608 901.966 564.636 901.698 564.636 901.417C564.636 899.234 563.538 897.826 561.595 897.826C559.821 897.826 558.145 899.375 558.145 901.853C558.145 904.374 559.778 905.852 561.806 905.852ZM559.412 901.234C559.567 899.727 560.525 898.854 561.609 898.854C562.805 898.854 563.51 899.685 563.51 901.234H559.412ZM568.944 909.189C571.309 909.189 572.802 907.964 572.802 906.542C572.802 905.289 571.915 904.726 570.141 904.726H568.648C567.62 904.726 567.311 904.388 567.311 903.895C567.311 903.472 567.522 903.219 567.803 902.98C568.141 903.149 568.564 903.247 568.944 903.247C570.493 903.247 571.732 902.219 571.732 900.586C571.732 899.924 571.478 899.361 571.112 899.009H572.675V898.023H570.014C569.747 897.925 569.366 897.826 568.944 897.826C567.395 897.826 566.072 898.882 566.072 900.558C566.072 901.473 566.564 902.205 567.071 902.614V902.67C566.677 902.951 566.212 903.458 566.212 904.092C566.212 904.697 566.508 905.106 566.916 905.345V905.401C566.198 905.866 565.776 906.486 565.776 907.133C565.776 908.457 567.071 909.189 568.944 909.189ZM568.944 902.374C568.057 902.374 567.311 901.67 567.311 900.558C567.311 899.431 568.043 898.77 568.944 898.77C569.845 898.77 570.563 899.446 570.563 900.558C570.563 901.67 569.817 902.374 568.944 902.374ZM569.127 908.316C567.733 908.316 566.902 907.781 566.902 906.964C566.902 906.514 567.142 906.063 567.691 905.669C568.029 905.753 568.395 905.796 568.676 905.796H570C571.014 905.796 571.563 906.035 571.563 906.739C571.563 907.542 570.591 908.316 569.127 908.316ZM576.526 905.852C577.582 905.852 578.342 905.303 579.06 904.472H579.102L579.201 905.669H580.271V898.023H578.99V903.444C578.258 904.359 577.708 904.74 576.92 904.74C575.906 904.74 575.484 904.134 575.484 902.712V898.023H574.203V902.867C574.203 904.81 574.921 905.852 576.526 905.852ZM584.205 905.852C584.543 905.852 584.769 905.81 584.952 905.739L584.769 904.754C584.628 904.782 584.571 904.782 584.501 904.782C584.304 904.782 584.135 904.627 584.135 904.233V894.461H582.854V904.148C582.854 905.232 583.248 905.852 584.205 905.852ZM588.629 905.852C589.572 905.852 590.431 905.359 591.163 904.754H591.205L591.318 905.669H592.374V900.966C592.374 899.079 591.585 897.826 589.727 897.826C588.502 897.826 587.418 898.375 586.714 898.826L587.221 899.713C587.826 899.305 588.629 898.896 589.516 898.896C590.769 898.896 591.093 899.84 591.093 900.825C587.84 901.191 586.39 902.022 586.39 903.684C586.39 905.064 587.347 905.852 588.629 905.852ZM588.995 904.824C588.234 904.824 587.643 904.472 587.643 903.599C587.643 902.614 588.516 901.98 591.093 901.67V903.81C590.346 904.472 589.741 904.824 588.995 904.824ZM594.816 905.669H596.097V900.755C596.604 899.446 597.393 898.995 598.026 898.995C598.336 898.995 598.519 899.023 598.773 899.122L599.012 897.995C598.773 897.869 598.533 897.826 598.195 897.826C597.337 897.826 596.562 898.446 596.027 899.417H595.985L595.872 898.023H594.816V905.669Z" fill="black"/>
<path d="M697.284 656.936C696.551 656.936 695.847 656.818 695.172 656.584C694.505 656.349 693.989 656.039 693.623 655.654L694.031 654.852C694.388 655.208 694.862 655.499 695.453 655.725C696.044 655.941 696.655 656.049 697.284 656.049C698.166 656.049 698.828 655.889 699.269 655.57C699.71 655.241 699.931 654.819 699.931 654.303C699.931 653.908 699.809 653.594 699.564 653.359C699.33 653.125 699.039 652.946 698.692 652.824C698.344 652.693 697.861 652.552 697.241 652.402C696.5 652.214 695.908 652.036 695.467 651.867C695.026 651.688 694.646 651.421 694.327 651.064C694.017 650.707 693.862 650.224 693.862 649.614C693.862 649.116 693.993 648.666 694.256 648.262C694.519 647.849 694.923 647.521 695.467 647.277C696.012 647.033 696.687 646.911 697.495 646.911C698.058 646.911 698.607 646.99 699.142 647.15C699.687 647.3 700.156 647.511 700.55 647.784L700.198 648.614C699.785 648.342 699.344 648.14 698.875 648.009C698.405 647.868 697.945 647.798 697.495 647.798C696.631 647.798 695.979 647.967 695.538 648.304C695.106 648.633 694.89 649.06 694.89 649.586C694.89 649.98 695.007 650.299 695.242 650.543C695.486 650.778 695.786 650.961 696.143 651.092C696.509 651.214 696.997 651.35 697.607 651.501C698.33 651.679 698.912 651.857 699.353 652.036C699.804 652.205 700.184 652.467 700.494 652.824C700.804 653.171 700.958 653.646 700.958 654.246C700.958 654.744 700.822 655.199 700.55 655.612C700.287 656.016 699.879 656.339 699.325 656.584C698.771 656.818 698.091 656.936 697.284 656.936ZM709.466 653.458H703.271C703.327 654.227 703.623 654.852 704.158 655.33C704.693 655.8 705.369 656.034 706.185 656.034C706.645 656.034 707.068 655.955 707.453 655.795C707.837 655.626 708.171 655.382 708.452 655.063L709.016 655.711C708.687 656.105 708.274 656.405 707.776 656.612C707.288 656.818 706.749 656.921 706.157 656.921C705.397 656.921 704.721 656.762 704.13 656.443C703.548 656.114 703.092 655.664 702.764 655.091C702.435 654.518 702.271 653.871 702.271 653.148C702.271 652.425 702.426 651.778 702.736 651.205C703.055 650.632 703.487 650.187 704.031 649.867C704.585 649.548 705.205 649.389 705.89 649.389C706.575 649.389 707.19 649.548 707.734 649.867C708.279 650.187 708.706 650.632 709.016 651.205C709.325 651.768 709.48 652.416 709.48 653.148L709.466 653.458ZM705.89 650.248C705.176 650.248 704.576 650.477 704.087 650.937C703.609 651.388 703.337 651.979 703.271 652.712H708.523C708.457 651.979 708.18 651.388 707.692 650.937C707.213 650.477 706.613 650.248 705.89 650.248ZM720.751 649.389C721.681 649.389 722.408 649.656 722.934 650.191C723.469 650.726 723.736 651.515 723.736 652.557V656.851H722.737V652.655C722.737 651.886 722.549 651.299 722.174 650.895C721.807 650.492 721.287 650.29 720.611 650.29C719.841 650.29 719.236 650.529 718.794 651.008C718.353 651.477 718.133 652.13 718.133 652.965V656.851H717.133V652.655C717.133 651.886 716.945 651.299 716.57 650.895C716.204 650.492 715.678 650.29 714.993 650.29C714.232 650.29 713.627 650.529 713.176 651.008C712.735 651.477 712.515 652.13 712.515 652.965V656.851H711.515V649.445H712.472V650.797C712.735 650.346 713.101 649.999 713.571 649.755C714.04 649.511 714.58 649.389 715.19 649.389C715.809 649.389 716.344 649.52 716.795 649.783C717.255 650.046 717.598 650.435 717.823 650.952C718.095 650.463 718.485 650.083 718.991 649.811C719.508 649.529 720.094 649.389 720.751 649.389ZM726.448 649.445H727.447V656.851H726.448V649.445ZM726.954 647.826C726.748 647.826 726.574 647.755 726.433 647.615C726.293 647.474 726.222 647.305 726.222 647.108C726.222 646.92 726.293 646.756 726.433 646.615C726.574 646.474 726.748 646.404 726.954 646.404C727.161 646.404 727.335 646.474 727.475 646.615C727.616 646.746 727.687 646.906 727.687 647.094C727.687 647.3 727.616 647.474 727.475 647.615C727.335 647.755 727.161 647.826 726.954 647.826ZM734.044 649.389C734.739 649.389 735.368 649.548 735.931 649.867C736.494 650.177 736.936 650.618 737.255 651.191C737.574 651.763 737.733 652.416 737.733 653.148C737.733 653.88 737.574 654.533 737.255 655.105C736.936 655.678 736.494 656.124 735.931 656.443C735.368 656.762 734.739 656.921 734.044 656.921C733.425 656.921 732.866 656.79 732.369 656.527C731.881 656.264 731.487 655.884 731.186 655.387V656.851H730.229V646.404H731.228V650.853C731.538 650.374 731.932 650.013 732.411 649.769C732.899 649.515 733.444 649.389 734.044 649.389ZM733.974 656.034C734.49 656.034 734.96 655.917 735.382 655.682C735.804 655.438 736.133 655.096 736.368 654.655C736.612 654.213 736.734 653.711 736.734 653.148C736.734 652.585 736.612 652.083 736.368 651.641C736.133 651.2 735.804 650.862 735.382 650.628C734.96 650.384 734.49 650.262 733.974 650.262C733.448 650.262 732.974 650.384 732.552 650.628C732.139 650.862 731.81 651.2 731.566 651.641C731.332 652.083 731.214 652.585 731.214 653.148C731.214 653.711 731.332 654.213 731.566 654.655C731.81 655.096 732.139 655.438 732.552 655.682C732.974 655.917 733.448 656.034 733.974 656.034ZM742.799 656.921C742.085 656.921 741.442 656.762 740.87 656.443C740.297 656.114 739.846 655.664 739.518 655.091C739.189 654.518 739.025 653.871 739.025 653.148C739.025 652.425 739.189 651.778 739.518 651.205C739.846 650.632 740.297 650.187 740.87 649.867C741.442 649.548 742.085 649.389 742.799 649.389C743.512 649.389 744.155 649.548 744.727 649.867C745.3 650.187 745.746 650.632 746.065 651.205C746.394 651.778 746.558 652.425 746.558 653.148C746.558 653.871 746.394 654.518 746.065 655.091C745.746 655.664 745.3 656.114 744.727 656.443C744.155 656.762 743.512 656.921 742.799 656.921ZM742.799 656.034C743.324 656.034 743.794 655.917 744.207 655.682C744.629 655.438 744.957 655.096 745.192 654.655C745.427 654.213 745.544 653.711 745.544 653.148C745.544 652.585 745.427 652.083 745.192 651.641C744.957 651.2 744.629 650.862 744.207 650.628C743.794 650.384 743.324 650.262 742.799 650.262C742.273 650.262 741.799 650.384 741.376 650.628C740.963 650.862 740.635 651.2 740.391 651.641C740.156 652.083 740.039 652.585 740.039 653.148C740.039 653.711 740.156 654.213 740.391 654.655C740.635 655.096 740.963 655.438 741.376 655.682C741.799 655.917 742.273 656.034 742.799 656.034ZM748.599 646.404H749.599V656.851H748.599V646.404ZM759.139 646.404V656.851H758.181V655.387C757.881 655.884 757.482 656.264 756.984 656.527C756.496 656.79 755.942 656.921 755.323 656.921C754.628 656.921 753.999 656.762 753.436 656.443C752.873 656.124 752.432 655.678 752.113 655.105C751.793 654.533 751.634 653.88 751.634 653.148C751.634 652.416 751.793 651.763 752.113 651.191C752.432 650.618 752.873 650.177 753.436 649.867C753.999 649.548 754.628 649.389 755.323 649.389C755.924 649.389 756.463 649.515 756.942 649.769C757.43 650.013 757.829 650.374 758.139 650.853V646.404H759.139ZM755.407 656.034C755.924 656.034 756.388 655.917 756.801 655.682C757.224 655.438 757.552 655.096 757.787 654.655C758.031 654.213 758.153 653.711 758.153 653.148C758.153 652.585 758.031 652.083 757.787 651.641C757.552 651.2 757.224 650.862 756.801 650.628C756.388 650.384 755.924 650.262 755.407 650.262C754.882 650.262 754.408 650.384 753.985 650.628C753.572 650.862 753.244 651.2 753 651.641C752.765 652.083 752.648 652.585 752.648 653.148C752.648 653.711 752.765 654.213 753 654.655C753.244 655.096 753.572 655.438 753.985 655.682C754.408 655.917 754.882 656.034 755.407 656.034Z" fill="black"/>
<path d="M694.369 905.669H695.552V899.952C695.552 899.065 695.453 897.812 695.397 896.911H695.453L696.27 899.263L698.227 904.627H699.1L701.057 899.263L701.874 896.911H701.93C701.86 897.812 701.761 899.065 701.761 899.952V905.669H702.986V895.348H701.409L699.438 900.868C699.198 901.586 698.973 902.304 698.734 903.022H698.663C698.41 902.304 698.171 901.586 697.931 900.868L695.946 895.348H694.369V905.669ZM708.766 905.852C709.808 905.852 710.625 905.5 711.301 905.064L710.836 904.219C710.273 904.599 709.667 904.824 708.921 904.824C707.471 904.824 706.471 903.782 706.387 902.149H711.54C711.568 901.966 711.596 901.698 711.596 901.417C711.596 899.234 710.498 897.826 708.555 897.826C706.781 897.826 705.105 899.375 705.105 901.853C705.105 904.374 706.739 905.852 708.766 905.852ZM706.373 901.234C706.527 899.727 707.485 898.854 708.569 898.854C709.766 898.854 710.47 899.685 710.47 901.234H706.373ZM716.084 905.852C716.999 905.852 717.801 905.359 718.407 904.768H718.435L718.562 905.669H719.604V894.461H718.322V897.404L718.393 898.727C717.717 898.164 717.14 897.826 716.239 897.826C714.493 897.826 712.93 899.375 712.93 901.853C712.93 904.402 714.169 905.852 716.084 905.852ZM716.365 904.782C715.014 904.782 714.253 903.684 714.253 901.839C714.253 900.093 715.225 898.911 716.464 898.911C717.097 898.911 717.675 899.136 718.322 899.713V903.726C717.689 904.43 717.069 904.782 716.365 904.782ZM722.21 905.669H723.491V898.023H722.21V905.669ZM722.858 896.447C723.365 896.447 723.745 896.095 723.745 895.616C723.745 895.095 723.365 894.785 722.858 894.785C722.351 894.785 721.971 895.095 721.971 895.616C721.971 896.095 722.351 896.447 722.858 896.447ZM728.312 905.852C729.368 905.852 730.129 905.303 730.847 904.472H730.889L730.988 905.669H732.058V898.023H730.776V903.444C730.044 904.359 729.495 904.74 728.707 904.74C727.693 904.74 727.27 904.134 727.27 902.712V898.023H725.989V902.867C725.989 904.81 726.707 905.852 728.312 905.852ZM734.64 905.669H735.922V900.121C736.626 899.333 737.273 898.953 737.85 898.953C738.822 898.953 739.273 899.558 739.273 900.994V905.669H740.554V900.121C741.272 899.333 741.891 898.953 742.483 898.953C743.454 898.953 743.905 899.558 743.905 900.994V905.669H745.186V900.825C745.186 898.868 744.44 897.826 742.863 897.826C741.934 897.826 741.131 898.432 740.343 899.291C740.033 898.39 739.399 897.826 738.231 897.826C737.315 897.826 736.513 898.404 735.851 899.136H735.809L735.696 898.023H734.64V905.669Z" fill="black"/>
<path d="M845.096 651.768C845.743 651.909 846.241 652.191 846.588 652.613C846.945 653.026 847.123 653.561 847.123 654.218C847.123 655.063 846.809 655.715 846.18 656.175C845.56 656.626 844.64 656.851 843.42 656.851H838.886V646.995H843.139C844.237 646.995 845.086 647.216 845.687 647.657C846.297 648.098 846.602 648.722 846.602 649.529C846.602 650.074 846.466 650.539 846.194 650.923C845.931 651.299 845.565 651.58 845.096 651.768ZM839.928 647.854V651.43H843.068C843.866 651.43 844.481 651.28 844.913 650.98C845.344 650.67 845.56 650.224 845.56 649.642C845.56 649.06 845.344 648.619 844.913 648.319C844.481 648.009 843.866 647.854 843.068 647.854H839.928ZM843.406 655.992C844.288 655.992 844.955 655.842 845.405 655.542C845.856 655.241 846.081 654.772 846.081 654.134C846.081 652.904 845.19 652.289 843.406 652.289H839.928V655.992H843.406ZM852.317 656.921C851.604 656.921 850.961 656.762 850.388 656.443C849.816 656.114 849.365 655.664 849.037 655.091C848.708 654.518 848.544 653.871 848.544 653.148C848.544 652.425 848.708 651.778 849.037 651.205C849.365 650.632 849.816 650.187 850.388 649.867C850.961 649.548 851.604 649.389 852.317 649.389C853.031 649.389 853.674 649.548 854.246 649.867C854.819 650.187 855.265 650.632 855.584 651.205C855.913 651.778 856.077 652.425 856.077 653.148C856.077 653.871 855.913 654.518 855.584 655.091C855.265 655.664 854.819 656.114 854.246 656.443C853.674 656.762 853.031 656.921 852.317 656.921ZM852.317 656.034C852.843 656.034 853.312 655.917 853.725 655.682C854.148 655.438 854.476 655.096 854.711 654.655C854.946 654.213 855.063 653.711 855.063 653.148C855.063 652.585 854.946 652.083 854.711 651.641C854.476 651.2 854.148 650.862 853.725 650.628C853.312 650.384 852.843 650.262 852.317 650.262C851.792 650.262 851.318 650.384 850.895 650.628C850.482 650.862 850.154 651.2 849.91 651.641C849.675 652.083 849.558 652.585 849.558 653.148C849.558 653.711 849.675 654.213 849.91 654.655C850.154 655.096 850.482 655.438 850.895 655.682C851.318 655.917 851.792 656.034 852.317 656.034ZM858.118 646.404H859.117V656.851H858.118V646.404ZM868.657 646.404V656.851H867.7V655.387C867.4 655.884 867.001 656.264 866.503 656.527C866.015 656.79 865.461 656.921 864.842 656.921C864.147 656.921 863.518 656.762 862.955 656.443C862.392 656.124 861.951 655.678 861.632 655.105C861.312 654.533 861.153 653.88 861.153 653.148C861.153 652.416 861.312 651.763 861.632 651.191C861.951 650.618 862.392 650.177 862.955 649.867C863.518 649.548 864.147 649.389 864.842 649.389C865.443 649.389 865.982 649.515 866.461 649.769C866.949 650.013 867.348 650.374 867.658 650.853V646.404H868.657ZM864.926 656.034C865.443 656.034 865.907 655.917 866.32 655.682C866.743 655.438 867.071 655.096 867.306 654.655C867.55 654.213 867.672 653.711 867.672 653.148C867.672 652.585 867.55 652.083 867.306 651.641C867.071 651.2 866.743 650.862 866.32 650.628C865.907 650.384 865.443 650.262 864.926 650.262C864.401 650.262 863.927 650.384 863.504 650.628C863.091 650.862 862.763 651.2 862.519 651.641C862.284 652.083 862.167 652.585 862.167 653.148C862.167 653.711 862.284 654.213 862.519 654.655C862.763 655.096 863.091 655.438 863.504 655.682C863.927 655.917 864.401 656.034 864.926 656.034Z" fill="black"/>
<path d="M838.689 905.669H841.984C844.293 905.669 845.898 904.669 845.898 902.642C845.898 901.234 845.025 900.417 843.786 900.178V900.107C844.758 899.798 845.307 898.896 845.307 897.869C845.307 896.052 843.857 895.348 841.759 895.348H838.689V905.669ZM839.999 899.741V896.376H841.59C843.195 896.376 844.026 896.827 844.026 898.038C844.026 899.079 843.308 899.741 841.533 899.741H839.999ZM839.999 904.627V900.741H841.801C843.603 900.741 844.617 901.318 844.617 902.599C844.617 903.993 843.575 904.627 841.801 904.627H839.999ZM850.801 905.852C852.674 905.852 854.349 904.388 854.349 901.853C854.349 899.305 852.674 897.826 850.801 897.826C848.929 897.826 847.253 899.305 847.253 901.853C847.253 904.388 848.929 905.852 850.801 905.852ZM850.801 904.782C849.478 904.782 848.591 903.613 848.591 901.853C848.591 900.093 849.478 898.896 850.801 898.896C852.125 898.896 853.026 900.093 853.026 901.853C853.026 903.613 852.125 904.782 850.801 904.782ZM857.721 905.852C858.059 905.852 858.284 905.81 858.467 905.739L858.284 904.754C858.143 904.782 858.087 904.782 858.017 904.782C857.819 904.782 857.65 904.627 857.65 904.233V894.461H856.369V904.148C856.369 905.232 856.763 905.852 857.721 905.852ZM862.989 905.852C863.904 905.852 864.707 905.359 865.312 904.768H865.34L865.467 905.669H866.509V894.461H865.228V897.404L865.298 898.727C864.622 898.164 864.045 897.826 863.144 897.826C861.398 897.826 859.835 899.375 859.835 901.853C859.835 904.402 861.074 905.852 862.989 905.852ZM863.271 904.782C861.919 904.782 861.159 903.684 861.159 901.839C861.159 900.093 862.13 898.911 863.369 898.911C864.003 898.911 864.58 899.136 865.228 899.713V903.726C864.594 904.43 863.975 904.782 863.271 904.782Z" fill="black"/>
<path d="M291.258 605.796H268.392L263.379 616.891H260.282L278.417 577.467H281.289L299.424 616.891H296.327L291.258 605.796ZM290.188 603.374L279.825 580.621L269.518 603.374H290.188ZM315.592 587.267C319.235 587.267 322.032 588.205 323.984 590.083C325.937 591.922 326.913 594.645 326.913 598.249V616.891H324.209V611.653C323.271 613.38 321.9 614.732 320.098 615.708C318.296 616.647 316.137 617.116 313.621 617.116C310.355 617.116 307.764 616.347 305.849 614.807C303.972 613.268 303.033 611.24 303.033 608.725C303.033 606.284 303.897 604.313 305.624 602.811C307.389 601.272 310.186 600.502 314.016 600.502H324.097V598.136C324.097 595.396 323.346 593.312 321.844 591.885C320.38 590.458 318.221 589.745 315.367 589.745C313.415 589.745 311.537 590.083 309.735 590.759C307.97 591.434 306.469 592.335 305.23 593.462L303.822 591.434C305.286 590.12 307.051 589.106 309.116 588.393C311.181 587.642 313.34 587.267 315.592 587.267ZM314.016 614.807C316.456 614.807 318.521 614.244 320.211 613.118C321.938 611.991 323.233 610.358 324.097 608.218V602.698H314.072C311.181 602.698 309.078 603.224 307.764 604.275C306.487 605.327 305.849 606.772 305.849 608.612C305.849 610.527 306.562 612.048 307.989 613.174C309.416 614.263 311.425 614.807 314.016 614.807Z" fill="black"/>
<path d="M265.801 828.949V832.384H284.612C283.655 844.437 276.558 854.405 263.492 860.938L265.801 864.205C281.965 856.095 288.723 843.141 288.723 828.949H265.801ZM309.9 844.155H301.621V823.486H297.509V873.836H301.621V847.591H309.9V844.155Z" fill="black"/>
<path d="M579.673 607.035H558.722L554.385 616.891H548.584L566.438 577.467H572.014L589.923 616.891H584.01L579.673 607.035ZM577.702 602.529L569.198 583.212L560.693 602.529H577.702ZM605.886 586.76C610.016 586.76 613.17 587.774 615.348 589.801C617.563 591.829 618.67 594.851 618.67 598.869V616.891H613.545V612.949C612.644 614.338 611.349 615.408 609.659 616.159C608.007 616.872 606.036 617.229 603.746 617.229C600.404 617.229 597.719 616.422 595.692 614.807C593.702 613.193 592.707 611.071 592.707 608.443C592.707 605.815 593.664 603.712 595.579 602.135C597.494 600.521 600.535 599.713 604.703 599.713H613.264V598.643C613.264 596.315 612.588 594.532 611.236 593.293C609.884 592.054 607.895 591.434 605.266 591.434C603.502 591.434 601.774 591.735 600.085 592.335C598.395 592.899 596.968 593.668 595.804 594.645L593.552 590.59C595.091 589.351 596.931 588.412 599.071 587.774C601.211 587.098 603.483 586.76 605.886 586.76ZM604.647 613.061C606.712 613.061 608.495 612.611 609.997 611.71C611.499 610.771 612.588 609.457 613.264 607.767V603.6H604.928C600.348 603.6 598.057 605.139 598.057 608.218C598.057 609.72 598.639 610.902 599.803 611.766C600.967 612.63 602.582 613.061 604.647 613.061Z" fill="black"/>
<path d="M553.991 828.611V833.342H571.788C570.606 845.056 563.903 854.011 551.457 860.375L554.667 864.825C571.281 856.433 577.589 843.367 577.589 828.611H553.991ZM598.597 843.31H590.881V823.204H585.08V874.061H590.881V848.154H598.597V843.31Z" fill="black"/>
<path d="M867.919 608.443H849.615L846.124 616.891H836.774L854.346 577.467H863.358L880.986 616.891H871.411L867.919 608.443ZM865.047 601.516L858.796 586.422L852.544 601.516H865.047ZM896.678 586.14C901.371 586.14 904.976 587.267 907.491 589.519C910.007 591.735 911.265 595.095 911.265 599.601V616.891H903.042V613.118C901.39 615.934 898.311 617.342 893.806 617.342C891.478 617.342 889.45 616.947 887.723 616.159C886.033 615.37 884.738 614.282 883.837 612.892C882.936 611.503 882.485 609.926 882.485 608.161C882.485 605.345 883.537 603.13 885.639 601.516C887.779 599.901 891.065 599.094 895.495 599.094H902.479C902.479 597.179 901.897 595.715 900.733 594.701C899.569 593.65 897.823 593.124 895.495 593.124C893.881 593.124 892.285 593.387 890.708 593.912C889.169 594.401 887.854 595.076 886.766 595.94L883.612 589.801C885.264 588.637 887.235 587.736 889.525 587.098C891.853 586.459 894.237 586.14 896.678 586.14ZM896.002 611.428C897.504 611.428 898.837 611.09 900.001 610.414C901.165 609.701 901.991 608.668 902.479 607.317V604.219H896.453C892.848 604.219 891.046 605.402 891.046 607.767C891.046 608.894 891.478 609.795 892.341 610.471C893.242 611.109 894.463 611.428 896.002 611.428Z" fill="black"/>
<path d="M842.068 828.047V834.074H859.021C857.669 845.563 851.249 853.786 839.196 859.981L843.364 865.669C860.598 856.94 866.511 843.592 866.511 828.047H842.068ZM887.575 842.522H880.31V822.697H872.876V874.512H880.31V848.661H887.575V842.522Z" fill="black"/>
<path d="M435.465 606.359H413.501L408.77 616.891H404.433L422.455 577.467H426.567L444.589 616.891H440.196L435.465 606.359ZM433.945 602.98L424.483 581.804L415.021 602.98H433.945ZM460.629 587.041C464.496 587.041 467.463 588.018 469.528 589.97C471.593 591.885 472.625 594.738 472.625 598.531V616.891H468.796V612.273C467.894 613.812 466.562 615.014 464.797 615.877C463.07 616.741 461.005 617.173 458.602 617.173C455.297 617.173 452.669 616.384 450.717 614.807C448.764 613.23 447.788 611.146 447.788 608.556C447.788 606.04 448.689 604.013 450.491 602.473C452.331 600.934 455.241 600.164 459.221 600.164H468.627V598.362C468.627 595.809 467.913 593.875 466.486 592.561C465.06 591.209 462.976 590.533 460.235 590.533C458.358 590.533 456.555 590.852 454.828 591.491C453.101 592.091 451.618 592.936 450.379 594.025L448.577 591.04C450.078 589.764 451.881 588.787 453.983 588.111C456.086 587.398 458.301 587.041 460.629 587.041ZM459.221 614.019C461.474 614.019 463.408 613.512 465.022 612.498C466.637 611.447 467.838 609.945 468.627 607.993V603.149H459.334C454.265 603.149 451.731 604.914 451.731 608.443C451.731 610.17 452.388 611.541 453.702 612.554C455.016 613.531 456.856 614.019 459.221 614.019Z" fill="black"/>
<path d="M410.009 828.836V832.666H428.538C427.468 844.606 420.541 854.293 407.643 860.77L410.178 864.374C426.51 856.208 433.1 843.198 433.1 828.836H410.009ZM454.276 843.93H446.166V823.429H441.548V873.948H446.166V847.76H454.276V843.93Z" fill="black"/>
<path d="M723.824 607.767H704.112L700.226 616.891H692.679L710.42 577.467H717.629L735.426 616.891H727.767L723.824 607.767ZM721.403 602.023L713.968 584.789L706.59 602.023H721.403ZM751.254 586.478C755.684 586.478 759.063 587.548 761.391 589.688C763.757 591.791 764.94 594.983 764.94 599.263V616.891H758.294V613.23C757.43 614.544 756.191 615.558 754.577 616.272C753 616.947 751.085 617.285 748.832 617.285C746.579 617.285 744.608 616.91 742.918 616.159C741.229 615.37 739.915 614.3 738.976 612.949C738.075 611.559 737.624 610.001 737.624 608.274C737.624 605.571 738.619 603.412 740.609 601.797C742.637 600.145 745.809 599.319 750.127 599.319H757.9V598.869C757.9 596.766 757.261 595.151 755.985 594.025C754.746 592.899 752.887 592.335 750.409 592.335C748.719 592.335 747.048 592.598 745.396 593.124C743.782 593.65 742.411 594.382 741.285 595.32L738.525 590.195C740.102 588.994 741.998 588.074 744.214 587.436C746.429 586.797 748.776 586.478 751.254 586.478ZM750.296 612.16C752.061 612.16 753.619 611.766 754.971 610.977C756.36 610.151 757.336 608.988 757.9 607.486V603.994H750.634C746.579 603.994 744.552 605.327 744.552 607.993C744.552 609.269 745.058 610.283 746.072 611.034C747.086 611.785 748.494 612.16 750.296 612.16Z" fill="black"/>
<path d="M698.311 828.611V833.342H716.109C714.926 845.056 708.224 854.011 695.777 860.375L698.987 864.825C715.602 856.433 721.91 843.367 721.91 828.611H698.311ZM742.917 843.31H735.201V823.204H729.4V874.061H735.201V848.154H742.917V843.31Z" fill="black"/>
</svg>
